<svg width="21" height="24" viewBox="0 0 21 24" fill="none" xmlns="http://www.w3.org/2000/svg">
<path d="M12.6678 3.50131L6.28994 11.4753C6.17793 11.6154 6.11523 11.8032 6.11523 11.9988C6.11523 12.1944 6.17793 12.3822 6.28994 12.5223L12.6678 20.4993C12.72 20.5646 12.7824 20.6165 12.8513 20.652C12.9202 20.6874 12.9942 20.7057 13.069 20.7057C13.1438 20.7057 13.2179 20.6874 13.2868 20.652C13.3557 20.6165 13.4181 20.5646 13.4703 20.4993C13.5776 20.3654 13.6377 20.1856 13.6377 19.9983C13.6377 19.8111 13.5776 19.6312 13.4703 19.4973L7.47271 11.9988L13.4703 4.50181C13.5772 4.36793 13.6371 4.18844 13.6371 4.00156C13.6371 3.81468 13.5772 3.63518 13.4703 3.50131C13.4181 3.43599 13.3557 3.38408 13.2868 3.34863C13.2179 3.31318 13.1438 3.29492 13.069 3.29492C12.9942 3.29492 12.9202 3.31318 12.8513 3.34863C12.7824 3.38408 12.72 3.43599 12.6678 3.50131Z" fill="#333333"/>
</svg>
