<svg width="23" height="25" viewBox="0 0 23 25" fill="none" xmlns="http://www.w3.org/2000/svg">
<path d="M13.74 4.00106L6.35043 11.9751C6.22065 12.1151 6.14801 12.303 6.14801 12.4986C6.14801 12.6942 6.22065 12.882 6.35043 13.0221L13.74 20.9991C13.8005 21.0644 13.8728 21.1163 13.9526 21.1517C14.0325 21.1872 14.1183 21.2054 14.2049 21.2054C14.2916 21.2054 14.3774 21.1872 14.4572 21.1517C14.5371 21.1163 14.6094 21.0644 14.6698 20.9991C14.7942 20.8651 14.8638 20.6853 14.8638 20.4981C14.8638 20.3108 14.7942 20.131 14.6698 19.9971L7.72084 12.4986L14.6698 5.00156C14.7938 4.86769 14.8631 4.68819 14.8631 4.50131C14.8631 4.31443 14.7938 4.13494 14.6698 4.00106C14.6094 3.93575 14.5371 3.88383 14.4572 3.84839C14.3774 3.81294 14.2916 3.79468 14.2049 3.79468C14.1183 3.79468 14.0325 3.81294 13.9526 3.84839C13.8728 3.88383 13.8005 3.93575 13.74 4.00106Z" fill="#333333"/>
</svg>
