<svg width="21" height="24" viewBox="0 0 21 24" fill="none" xmlns="http://www.w3.org/2000/svg">
<path d="M8.61346 20.4987L14.9913 12.5247C15.1033 12.3846 15.166 12.1968 15.166 12.0012C15.166 11.8056 15.1033 11.6178 14.9913 11.4777L8.61346 3.50069C8.56128 3.43538 8.4989 3.38346 8.42998 3.34802C8.36107 3.31257 8.28703 3.29431 8.21223 3.29431C8.13743 3.29431 8.06339 3.31257 7.99448 3.34802C7.92557 3.38346 7.86318 3.43538 7.811 3.50069C7.70364 3.63463 7.64354 3.81445 7.64354 4.00169C7.64354 4.18894 7.70364 4.36875 7.811 4.50269L13.8085 12.0012L7.811 19.4982C7.70401 19.6321 7.64414 19.8116 7.64414 19.9984C7.64414 20.1853 7.70401 20.3648 7.811 20.4987C7.86318 20.564 7.92557 20.6159 7.99448 20.6514C8.06339 20.6868 8.13743 20.7051 8.21223 20.7051C8.28703 20.7051 8.36107 20.6868 8.42998 20.6514C8.49889 20.6159 8.56128 20.564 8.61346 20.4987Z" fill="#333333"/>
</svg>
