<svg width="24" height="25" viewBox="0 0 24 25" fill="none" xmlns="http://www.w3.org/2000/svg">
<path d="M9.82684 20.9989L17.2165 13.0249C17.3462 12.8849 17.4189 12.697 17.4189 12.5014C17.4189 12.3058 17.3462 12.118 17.2165 11.9779L9.82685 4.00094C9.76639 3.93562 9.69411 3.88371 9.61426 3.84826C9.53442 3.81281 9.44863 3.79455 9.36197 3.79455C9.2753 3.79455 9.18951 3.81281 9.10967 3.84826C9.02983 3.88371 8.95754 3.93562 8.89708 4.00094C8.77269 4.13488 8.70305 4.31469 8.70305 4.50194C8.70305 4.68918 8.77269 4.86899 8.89708 5.00293L15.8461 12.5014L8.89708 19.9984C8.77312 20.1323 8.70375 20.3118 8.70375 20.4987C8.70375 20.6856 8.77312 20.8651 8.89708 20.9989C8.95754 21.0643 9.02982 21.1162 9.10967 21.1516C9.18951 21.1871 9.2753 21.2053 9.36196 21.2053C9.44863 21.2053 9.53441 21.1871 9.61426 21.1516C9.6941 21.1162 9.76639 21.0643 9.82684 20.9989Z" fill="#333333"/>
</svg>
