<svg width="90" height="90" viewBox="0 0 90 90" fill="none" xmlns="http://www.w3.org/2000/svg">
<path d="M45 5.625C55.4429 5.625 65.4581 9.77343 72.8423 17.1577C80.2266 24.5419 84.375 34.5571 84.375 45C84.375 55.4429 80.2266 65.4581 72.8423 72.8423C65.4581 80.2266 55.4429 84.375 45 84.375C34.5571 84.375 24.5419 80.2266 17.1577 72.8423C9.77343 65.4581 5.625 55.4429 5.625 45C5.625 34.5571 9.77343 24.5419 17.1577 17.1577C24.5419 9.77343 34.5571 5.625 45 5.625ZM45 78.75C53.9511 78.75 62.5355 75.1942 68.8648 68.8648C75.1942 62.5355 78.75 53.9511 78.75 45C78.75 36.0489 75.1942 27.4645 68.8648 21.1351C62.5355 14.8058 53.9511 11.25 45 11.25C36.0489 11.25 27.4645 14.8058 21.1351 21.1351C14.8058 27.4645 11.25 36.0489 11.25 45C11.25 53.9511 14.8058 62.5355 21.1351 68.8648C27.4645 75.1942 36.0489 78.75 45 78.75ZM49.2188 63.2812C49.2188 64.4001 48.7743 65.4732 47.9831 66.2644C47.1919 67.0555 46.1189 67.5 45 67.5C43.8811 67.5 42.8081 67.0555 42.0169 66.2644C41.2257 65.4732 40.7812 64.4001 40.7812 63.2812C40.7812 62.1624 41.2257 61.0893 42.0169 60.2981C42.8081 59.507 43.8811 59.0625 45 59.0625C46.1189 59.0625 47.1919 59.507 47.9831 60.2981C48.7743 61.0893 49.2188 62.1624 49.2188 63.2812ZM45 22.5C45.7459 22.5 46.4613 22.7963 46.9887 23.3238C47.5162 23.8512 47.8125 24.5666 47.8125 25.3125V50.625C47.8125 51.3709 47.5162 52.0863 46.9887 52.6137C46.4613 53.1412 45.7459 53.4375 45 53.4375C44.2541 53.4375 43.5387 53.1412 43.0113 52.6137C42.4838 52.0863 42.1875 51.3709 42.1875 50.625V25.3125C42.1875 24.5666 42.4838 23.8512 43.0113 23.3238C43.5387 22.7963 44.2541 22.5 45 22.5Z" fill="#666666"/>
</svg>
