<svg width="208" height="207" viewBox="0 0 208 207" fill="none" xmlns="http://www.w3.org/2000/svg">
<path d="M104 12.9375C128.019 12.9375 151.054 22.4789 168.037 39.4626C185.021 56.4464 194.562 79.4813 194.562 103.5C194.562 127.519 185.021 150.554 168.037 167.537C151.054 184.521 128.019 194.062 104 194.062C79.9813 194.062 56.9464 184.521 39.9626 167.537C22.9789 150.554 13.4375 127.519 13.4375 103.5C13.4375 79.4813 22.9789 56.4464 39.9626 39.4626C56.9464 22.4789 79.9813 12.9375 104 12.9375ZM104 181.125C124.587 181.125 144.332 172.947 158.889 158.389C173.447 143.832 181.625 124.087 181.625 103.5C181.625 82.9126 173.447 63.1683 158.889 48.6108C144.332 34.0533 124.587 25.875 104 25.875C83.4126 25.875 63.6683 34.0533 49.1108 48.6108C34.5533 63.1683 26.375 82.9126 26.375 103.5C26.375 124.087 34.5533 143.832 49.1108 158.389C63.6683 172.947 83.4126 181.125 104 181.125ZM113.703 145.547C113.703 148.12 112.681 150.588 110.861 152.408C109.041 154.228 106.573 155.25 104 155.25C101.427 155.25 98.9585 154.228 97.1389 152.408C95.3192 150.588 94.2969 148.12 94.2969 145.547C94.2969 142.973 95.3192 140.505 97.1389 138.686C98.9585 136.866 101.427 135.844 104 135.844C106.573 135.844 109.041 136.866 110.861 138.686C112.681 140.505 113.703 142.973 113.703 145.547ZM104 51.75C105.716 51.75 107.361 52.4315 108.574 53.6447C109.787 54.8578 110.469 56.5031 110.469 58.2188V116.438C110.469 118.153 109.787 119.798 108.574 121.012C107.361 122.225 105.716 122.906 104 122.906C102.284 122.906 100.639 122.225 99.4259 121.012C98.2128 119.798 97.5312 118.153 97.5312 116.438V58.2188C97.5312 56.5031 98.2128 54.8578 99.4259 53.6447C100.639 52.4315 102.284 51.75 104 51.75Z" fill="#666666"/>
</svg>
