<svg width="20" height="21" viewBox="0 0 20 21" fill="none" xmlns="http://www.w3.org/2000/svg">
<path d="M2 6C2 5.33696 2.26339 4.70107 2.73223 4.23223C3.20107 3.76339 3.83696 3.5 4.5 3.5H6.982C7.446 3.5 7.892 3.684 8.22 4.013L9.5 5.293L7.44 7.353C7.39344 7.3997 7.33811 7.43673 7.27718 7.46196C7.21626 7.48719 7.15094 7.50012 7.085 7.5H2V6ZM2 8.5V15C2 15.663 2.26339 16.2989 2.73223 16.7678C3.20107 17.2366 3.83696 17.5 4.5 17.5H15.5C16.163 17.5 16.7989 17.2366 17.2678 16.7678C17.7366 16.2989 18 15.663 18 15V8C18 7.33696 17.7366 6.70107 17.2678 6.23223C16.7989 5.76339 16.163 5.5 15.5 5.5H10.707L8.147 8.06C8.00761 8.19957 7.84205 8.31027 7.65982 8.38577C7.47759 8.46127 7.28225 8.50009 7.085 8.5H2Z" fill="#666666"/>
</svg>
