<svg width="21" height="21" viewBox="0 0 21 21" fill="none" xmlns="http://www.w3.org/2000/svg">
<path d="M2.5 6C2.5 5.33696 2.76339 4.70107 3.23223 4.23223C3.70107 3.76339 4.33696 3.5 5 3.5H7.482C7.946 3.5 8.392 3.684 8.72 4.013L10 5.293L7.94 7.353C7.89344 7.3997 7.83811 7.43673 7.77718 7.46196C7.71626 7.48719 7.65094 7.50012 7.585 7.5H2.5V6ZM2.5 8.5V15C2.5 15.663 2.76339 16.2989 3.23223 16.7678C3.70107 17.2366 4.33696 17.5 5 17.5H16C16.663 17.5 17.2989 17.2366 17.7678 16.7678C18.2366 16.2989 18.5 15.663 18.5 15V8C18.5 7.33696 18.2366 6.70107 17.7678 6.23223C17.2989 5.76339 16.663 5.5 16 5.5H11.207L8.647 8.06C8.50761 8.19957 8.34205 8.31027 8.15982 8.38577C7.97759 8.46127 7.78225 8.50009 7.585 8.5H2.5Z" fill="#666666"/>
</svg>
