<svg width="20" height="20" viewBox="0 0 20 20" fill="none" xmlns="http://www.w3.org/2000/svg">
<rect x="0.5" y="0.5" width="19" height="19" rx="9.5" stroke="#D30F1A"/>
<g clip-path="url(#clip0_6_20672)">
<path d="M14.8438 7.93828C14.8438 8.10495 14.7854 8.24661 14.6687 8.36328L10.1438 12.8883L9.29375 13.7383C9.17708 13.8549 9.03542 13.9133 8.86875 13.9133C8.70208 13.9133 8.56042 13.8549 8.44375 13.7383L7.59375 12.8883L5.33125 10.6258C5.21458 10.5091 5.15625 10.3674 5.15625 10.2008C5.15625 10.0341 5.21458 9.89245 5.33125 9.77578L6.18125 8.92578C6.29792 8.80911 6.43958 8.75078 6.60625 8.75078C6.77292 8.75078 6.91458 8.80911 7.03125 8.92578L8.86875 10.7695L12.9688 6.66328C13.0854 6.54661 13.2271 6.48828 13.3938 6.48828C13.5604 6.48828 13.7021 6.54661 13.8188 6.66328L14.6687 7.51328C14.7854 7.62995 14.8438 7.77161 14.8438 7.93828Z" fill="#D30F1A"/>
</g>
<defs>
<clipPath id="clip0_6_20672">
<rect width="10" height="8" fill="white" transform="translate(5 6)"/>
</clipPath>
</defs>
</svg>
