<svg width="21" height="20" viewBox="0 0 21 20" fill="none" xmlns="http://www.w3.org/2000/svg">
<rect x="1" y="0.5" width="19" height="19" rx="9.5" stroke="#D30F1A"/>
<g clip-path="url(#clip0_6_17505)">
<path d="M15.3438 7.9373C15.3438 8.10397 15.2854 8.24564 15.1687 8.3623L10.6438 12.8873L9.79375 13.7373C9.67708 13.854 9.53542 13.9123 9.36875 13.9123C9.20208 13.9123 9.06042 13.854 8.94375 13.7373L8.09375 12.8873L5.83125 10.6248C5.71458 10.5081 5.65625 10.3665 5.65625 10.1998C5.65625 10.0331 5.71458 9.89147 5.83125 9.7748L6.68125 8.9248C6.79792 8.80814 6.93958 8.7498 7.10625 8.7498C7.27292 8.7498 7.41458 8.80814 7.53125 8.9248L9.36875 10.7686L13.4688 6.6623C13.5854 6.54564 13.7271 6.4873 13.8938 6.4873C14.0604 6.4873 14.2021 6.54564 14.3188 6.6623L15.1687 7.5123C15.2854 7.62897 15.3438 7.77064 15.3438 7.9373Z" fill="#D30F1A"/>
</g>
<defs>
<clipPath id="clip0_6_17505">
<rect width="10" height="8" fill="white" transform="translate(5.5 6)"/>
</clipPath>
</defs>
</svg>
