<svg width="27" height="26" viewBox="0 0 27 26" fill="none" xmlns="http://www.w3.org/2000/svg">
<path d="M26.4255 13C26.4255 14.358 26.2176 15.6686 25.8271 16.8983C25.2315 18.7778 24.2202 20.4732 22.897 21.8758C22.8689 21.9093 22.8408 21.9399 22.8099 21.9706C22.7706 22.0124 22.7284 22.0543 22.6891 22.0933C20.3124 24.5026 16.9974 26 13.3285 26C12.761 26 12.1963 25.9638 11.6485 25.8968C11.6429 25.894 11.6401 25.894 11.6344 25.894C10.286 25.7184 8.99931 25.3419 7.81097 24.7926C7.71264 24.748 7.61432 24.7006 7.51599 24.6532C5.58038 23.7023 3.91726 22.2857 2.67274 20.5541C2.56598 20.4035 2.45923 20.2529 2.35809 20.0967C2.10526 19.7175 1.87489 19.3243 1.667 18.92C0.748359 17.1437 0.231445 15.1332 0.231445 13C0.231445 5.81961 6.09448 0 13.3285 0C20.5624 0 26.4255 5.81961 26.4255 13Z" fill="#EDDDD6"/>
<path d="M22.8969 21.8762C22.8688 21.9097 22.8407 21.9403 22.8098 21.971C22.7705 22.0128 22.7284 22.0547 22.689 22.0937C20.3124 24.503 16.9974 26.0004 13.3284 26.0004C12.7609 26.0004 12.1962 25.9641 11.6484 25.8972C11.6428 25.8944 11.64 25.8944 11.6344 25.8944C10.2859 25.7188 8.99925 25.3423 7.81091 24.793C7.92329 20.0832 7.87553 15.9618 7.87553 15.8837C7.92048 15.7861 10.1174 15.2256 13.0419 15.1308C17.6435 14.9858 21.5316 17.5624 22.8969 21.8762Z" fill="#507849"/>
<path d="M11.6485 25.8968C11.6485 25.8968 11.6401 25.8941 11.6344 25.8941C10.286 25.7184 8.9993 25.3419 7.81096 24.7926C7.71264 24.748 7.61431 24.7006 7.51599 24.6532C5.58037 23.7023 3.91725 22.2857 2.67273 20.5541C5.19549 17.1214 7.25753 16.1204 7.87558 15.8833C8.002 15.8331 8.06661 15.8164 8.06661 15.8164L11.6485 25.8968Z" fill="#507849"/>
<path d="M13.379 7.49023C13.379 7.49023 16.4018 7.63244 16.5732 4.75471C16.7558 1.69014 13.8987 1.39735 12.6851 2.63545C11.4715 3.87354 11.6962 5.13395 11.6962 5.13395C11.6962 5.13395 10.8506 4.37826 9.92917 5.30683C9.25212 5.99002 9.60048 7.10263 9.60048 7.10263C9.60048 7.10263 8.04131 7.04407 8.18739 8.39371C8.33348 9.74613 9.3055 10.4321 9.3055 10.4321L13.3762 7.48744L13.379 7.49023Z" fill="#E56445"/>
<path d="M10.6146 12.7871L10.9293 15.9772C10.9293 15.9772 11.5979 16.8388 13.4942 16.8081C14.9044 16.7858 15.3652 16.4233 15.3652 16.4233L15.0112 14.8283L14.6628 13.2723L11.1962 12.8596L10.6146 12.7899V12.7871Z" fill="#FCA397"/>
<path d="M11.1962 12.8574C11.213 12.9439 11.2552 13.0443 11.3198 13.1558C12.1963 14.6783 14.1965 14.8317 15.0112 14.8261L14.6629 13.2701L11.1962 12.8574Z" fill="black"/>
<path d="M14.6628 5.93174C14.6628 5.93174 16.7445 9.76594 16.2979 12.0525C15.8512 14.3391 13.7723 14.155 12.5081 13.8232C11.2439 13.4914 10.6146 12.7915 10.6146 12.7915C10.6146 12.7915 9.49932 13.2711 8.64529 12.2756C7.79126 11.2801 8.16209 10.0253 8.79418 9.69343C9.42628 9.3616 10.2438 9.76594 10.2438 9.76594L9.53865 8.6589C9.53865 8.6589 11.6204 2.57439 14.6656 5.92896L14.6628 5.93174Z" fill="#FCA397"/>
<path d="M10.2803 11.5119C10.2579 11.5119 10.2326 11.5063 10.2101 11.4924L8.93467 10.759C8.86724 10.72 8.84477 10.6363 8.8841 10.5694C8.92343 10.5025 9.00771 10.4802 9.07513 10.5192L10.3506 11.2526C10.418 11.2916 10.4405 11.3753 10.4011 11.4422C10.3758 11.4868 10.3281 11.5119 10.2803 11.5119Z" fill="black"/>
<path d="M9.24091 11.6233C9.19034 11.6233 9.14259 11.5954 9.1173 11.548C9.08078 11.4811 9.10887 11.3947 9.1763 11.3612L9.82525 11.0238C9.89267 10.9875 9.97976 11.0154 10.0135 11.0824C10.05 11.1493 10.0219 11.2357 9.95448 11.2692L9.30553 11.6066C9.28586 11.6177 9.26339 11.6233 9.24091 11.6233Z" fill="black"/>
<path d="M15.2276 7.43379C15.1995 7.43379 15.1742 7.42543 15.149 7.4087C14.7894 7.16889 14.4607 7.39754 14.4466 7.4087C14.3848 7.45331 14.2949 7.43937 14.25 7.37802C14.205 7.31668 14.2191 7.23023 14.2809 7.18283C14.3005 7.16889 14.7809 6.82869 15.3063 7.18004C15.3709 7.22187 15.3877 7.30831 15.3456 7.37245C15.3175 7.41149 15.2754 7.43379 15.2304 7.43379H15.2276Z" fill="black"/>
<path d="M14.795 11.0641C14.795 11.0641 14.7781 11.0641 14.7669 11.0641C14.691 11.0502 14.6405 10.9749 14.6545 10.8996C14.8877 9.70889 14.191 8.93369 14.1854 8.92811C14.132 8.87234 14.1376 8.78311 14.1938 8.73013C14.25 8.67714 14.3399 8.68272 14.3932 8.73849C14.427 8.77474 15.1911 9.62523 14.9326 10.9526C14.9186 11.0195 14.8596 11.0641 14.795 11.0641Z" fill="black"/>
<path d="M15.2304 9.3156C15.1546 9.3156 15.0928 9.25704 15.09 9.18175L15.0562 8.42049C15.0534 8.34241 15.1124 8.27827 15.1911 8.27549C15.2698 8.2727 15.3344 8.33126 15.3372 8.40933L15.3709 9.1706C15.3737 9.24867 15.3147 9.31281 15.236 9.3156C15.236 9.3156 15.2332 9.3156 15.2304 9.3156Z" fill="black"/>
<path d="M13.1206 9.51703C13.0447 9.51703 12.9829 9.45847 12.9801 9.38318L12.9464 8.62192C12.9436 8.54384 13.0026 8.4797 13.0812 8.47691C13.1599 8.47134 13.2245 8.53268 13.2273 8.61076L13.261 9.37202C13.2638 9.4501 13.2048 9.51424 13.1262 9.51703C13.1262 9.51703 13.1234 9.51703 13.1206 9.51703Z" fill="black"/>
<path d="M15.0899 6.7988C15.0899 6.7988 14.6769 6.1909 13.8763 6.26341C13.0728 6.33591 12.6627 6.94101 12.6627 6.94101C12.6627 6.94101 13.1459 8.24603 12.1261 9.06306C11.1063 9.88009 10.2438 9.76298 10.2438 9.76298L9.42632 9.55942L8.73242 8.46911L10.7776 5.80051L13.5841 3.96289L15.2276 5.17589L15.0899 6.79601V6.7988Z" fill="#E56445"/>
<path d="M14.1291 11.881C13.8538 11.881 13.3734 11.8029 13.0784 11.3094C13.0391 11.2425 13.0616 11.1588 13.1262 11.117C13.1936 11.0779 13.2779 11.1002 13.32 11.1644C13.6431 11.7026 14.2639 11.5938 14.2892 11.5882C14.3651 11.5743 14.4381 11.6245 14.4522 11.6998C14.4662 11.7751 14.4185 11.8476 14.3426 11.8643C14.3314 11.8643 14.2499 11.881 14.1291 11.881Z" fill="black"/>
<path d="M16.076 10.4657C15.3203 10.4657 14.7079 9.83826 14.7079 9.06584C14.7079 8.29343 15.3231 7.66602 16.076 7.66602C16.8289 7.66602 17.4442 8.29343 17.4442 9.06584C17.4442 9.83826 16.8289 10.4657 16.076 10.4657ZM16.076 7.94487C15.4748 7.94487 14.9888 8.4468 14.9888 9.06584C14.9888 9.68489 15.4776 10.1868 16.076 10.1868C16.6744 10.1868 17.1632 9.68489 17.1632 9.06584C17.1632 8.4468 16.6744 7.94487 16.076 7.94487Z" fill="white"/>
<path d="M12.8228 10.7782C12.0446 10.7782 11.4125 10.1508 11.4125 9.37834C11.4125 8.60593 12.0446 7.97852 12.8228 7.97852C13.6009 7.97852 14.233 8.60593 14.233 9.37834C14.233 10.1508 13.6009 10.7782 12.8228 10.7782ZM12.8228 8.25737C12.1991 8.25737 11.6934 8.7593 11.6934 9.37834C11.6934 9.99739 12.1991 10.4993 12.8228 10.4993C13.4464 10.4993 13.9521 9.99739 13.9521 9.37834C13.9521 8.7593 13.4464 8.25737 12.8228 8.25737Z" fill="white"/>
<path d="M13.9577 9.37182C13.8847 9.37182 13.8229 9.31605 13.8173 9.24355C13.8117 9.16826 13.8678 9.09855 13.9465 9.09297L14.941 9.0121C15.0197 9.00653 15.0871 9.0623 15.0927 9.14037C15.0983 9.21566 15.0421 9.28538 14.9635 9.29095L13.969 9.37182C13.969 9.37182 13.9606 9.37182 13.9577 9.37182Z" fill="white"/>
<path d="M9.42353 9.70042C9.38982 9.70042 9.3533 9.68648 9.32801 9.66138C9.27183 9.6084 9.26902 9.51917 9.3224 9.4634C10.0781 8.66589 11.553 9.40205 11.6176 9.43552C11.6878 9.47177 11.7131 9.55542 11.6794 9.62234C11.6457 9.69206 11.5586 9.71715 11.4912 9.68369C11.4771 9.67812 10.1399 9.01166 9.53028 9.65581C9.50219 9.68369 9.46567 9.70042 9.42915 9.70042H9.42353Z" fill="white"/>
<path d="M13.5307 16.8374C12.6233 16.8374 11.5698 16.6087 10.5444 15.8614C10.4826 15.8168 10.4686 15.7275 10.5135 15.6662C10.5585 15.6048 10.6484 15.5909 10.7102 15.6355C13.1908 17.4453 15.8681 16.0343 15.8934 16.0203C15.9608 15.9841 16.0479 16.0092 16.0844 16.0761C16.1209 16.143 16.0956 16.2295 16.0282 16.2657C16.0114 16.2741 14.9494 16.8346 13.5279 16.8346L13.5307 16.8374Z" fill="white"/>
<path d="M12.1261 7.88635C12.1008 7.88635 12.0756 7.88077 12.0503 7.86404C11.9857 7.82221 11.966 7.73856 12.0053 7.67163C12.3902 7.06374 12.9886 7.10836 13.2499 7.2199C13.3201 7.25057 13.3538 7.33144 13.3257 7.40115C13.2948 7.47365 13.2133 7.50432 13.1431 7.47644C13.1178 7.46529 12.5953 7.26451 12.2441 7.81943C12.216 7.86125 12.1711 7.88356 12.1261 7.88356V7.88635Z" fill="black"/>
</svg>
