<svg width="26" height="26" viewBox="0 0 26 26" fill="none" xmlns="http://www.w3.org/2000/svg">
<g clip-path="url(#clip0_6_19371)">
<path d="M25.6069 13C25.6069 14.1544 25.4599 15.2754 25.1824 16.3406C23.7454 21.9037 18.8004 26 12.9192 26C8.96209 26 5.42955 24.1456 3.10265 21.24C1.30917 18.9953 0.231445 16.1259 0.231445 13C0.231445 5.81961 5.91126 0 12.9192 0C19.9271 0 25.6069 5.81961 25.6069 13Z" fill="#EDDDD6"/>
<path d="M25.1824 16.3405C23.7454 21.9036 18.8004 25.9999 12.9192 25.9999C8.9621 25.9999 5.42956 24.1455 3.10266 21.2399C6.81482 16.5859 10.8182 16.0895 10.8182 16.0895C10.8182 16.0895 10.7229 15.3868 10.8182 15.1972C10.8862 15.0634 11.1366 14.9407 11.2754 14.8821C11.3298 14.8598 11.3652 14.8459 11.3652 14.8459C11.3652 14.8459 11.5666 14.8096 11.8823 14.7594C12.5164 14.6562 13.6105 14.4917 14.4596 14.4276C14.7181 14.4053 14.9549 14.3941 15.1481 14.3969C15.3577 14.3969 15.5182 14.4192 15.6053 14.461C15.7115 14.5112 15.8339 14.8459 15.8339 14.8459C15.8339 14.8459 17.4043 14.5977 19.5733 14.8459C20.485 14.9518 22.752 15.3812 25.1824 16.3405Z" fill="#7C6053"/>
<path d="M10.7747 9.0458C10.7747 9.0458 8.55664 8.31521 8.54303 10.0246C8.52942 12.0044 10.8182 11.8036 10.8182 11.8036L10.7747 9.0458Z" fill="#F27E64"/>
<path d="M9.86024 10.923C9.81669 10.923 9.77587 10.9035 9.74866 10.8644L8.92403 9.68211C8.88049 9.62076 8.8941 9.53153 8.95669 9.48691C9.01929 9.4423 9.10365 9.45624 9.1472 9.52038L9.97182 10.7027C10.0154 10.764 10.0018 10.8533 9.93916 10.8979C9.91467 10.9146 9.88745 10.923 9.86024 10.923Z" fill="black"/>
<path d="M8.99748 10.6267C8.92944 10.6267 8.86957 10.5738 8.86141 10.5013C8.85324 10.426 8.90767 10.3563 8.98115 10.3479L9.58805 10.2782C9.66426 10.2698 9.72957 10.3256 9.73774 10.4009C9.7459 10.4762 9.69147 10.5459 9.61799 10.5542L9.01109 10.6239C9.01109 10.6239 9.0002 10.6239 8.99476 10.6239L8.99748 10.6267Z" fill="black"/>
<path d="M15.0446 13.3396L15.2705 15.6345C15.2705 15.6345 14.4486 16.195 13.3682 16.3177C11.9095 16.4823 11.3379 15.6429 11.3379 15.6429L11.1039 12.9492L15.0419 13.3396H15.0446Z" fill="#F27E64"/>
<path d="M15.0447 13.3381C15.0447 13.3381 14.514 15.2621 12.8349 15.1673C11.4795 15.0893 10.9216 13.1875 10.9216 13.1875L15.0447 13.3381Z" fill="black"/>
<path d="M9.92274 7.2335C9.92274 7.2335 9.37027 11.525 10.712 13.2734C12.1544 15.1473 14.1275 14.3581 14.8324 13.6889C15.7822 12.7854 15.891 11.6449 15.891 11.6449C15.891 11.6449 17.3253 11.7983 17.6872 10.5769C18.0683 9.29421 17.0994 8.38236 16.3918 8.39073C15.6815 8.3991 15.6134 8.53852 15.6134 8.53852L15.7005 7.20004C15.7005 7.20004 10.976 2.73565 9.92546 7.23629L9.92274 7.2335Z" fill="#F27E64"/>
<path d="M16.0054 10.4267C15.9728 10.4267 15.9374 10.4128 15.9102 10.3877C15.8558 10.3347 15.8558 10.2455 15.9075 10.1897L16.9063 9.13007C16.958 9.0743 17.0451 9.0743 17.0995 9.12728C17.1539 9.18027 17.1539 9.2695 17.1022 9.32527L16.1034 10.3849C16.0762 10.4128 16.0408 10.4267 16.0054 10.4267Z" fill="black"/>
<path d="M17.026 10.5069C17.0015 10.5069 16.977 10.5014 16.9552 10.4874L16.2694 10.0552C16.2068 10.0162 16.1851 9.92972 16.2259 9.8628C16.264 9.79866 16.3483 9.77635 16.4137 9.81818L17.0995 10.2504C17.1621 10.2894 17.1838 10.3759 17.143 10.4428C17.1185 10.4846 17.0723 10.5097 17.026 10.5097V10.5069Z" fill="black"/>
<path d="M13.7819 9.46719C13.7084 9.46719 13.6486 9.40863 13.6458 9.33334L13.6213 8.62227C13.6213 8.5442 13.6785 8.48006 13.752 8.47727C13.8255 8.46891 13.8908 8.53583 13.8935 8.61112L13.918 9.32219C13.918 9.40027 13.8608 9.4644 13.7874 9.46719C13.7874 9.46719 13.7846 9.46719 13.7819 9.46719Z" fill="black"/>
<path d="M11.1285 9.57204C11.055 9.57204 10.9951 9.51348 10.9924 9.43819L10.9679 8.72712C10.9679 8.64905 11.025 8.58491 11.0985 8.58212C11.1747 8.57933 11.2373 8.64068 11.24 8.71597L11.2645 9.42704C11.2645 9.50512 11.2074 9.56925 11.1339 9.57204C11.1339 9.57204 11.1312 9.57204 11.1285 9.57204Z" fill="black"/>
<path d="M12.5192 11.3292C12.4593 11.3292 12.4048 11.2901 12.3885 11.2288C12.0701 10.1301 12.3368 9.1904 12.3477 9.15136C12.3695 9.07886 12.4457 9.03425 12.5164 9.05655C12.5872 9.07886 12.6307 9.15694 12.609 9.22944C12.609 9.23781 12.3559 10.1329 12.6498 11.1479C12.6716 11.2204 12.6307 11.2985 12.5573 11.3208C12.5436 11.3236 12.53 11.3264 12.5192 11.3264V11.3292Z" fill="black"/>
<path d="M10.6576 8.12057C10.625 8.12057 10.5896 8.10663 10.5624 8.08153C10.5079 8.02855 10.5052 7.93932 10.5569 7.88355C10.8318 7.58797 11.3325 7.54335 11.3543 7.54335C11.4305 7.53778 11.4958 7.59355 11.5013 7.67162C11.5067 7.74691 11.4523 7.81663 11.3761 7.8222C11.3707 7.8222 10.9597 7.85845 10.7556 8.07875C10.7284 8.10663 10.693 8.12057 10.6576 8.12057Z" fill="black"/>
<path d="M14.0677 8.06527C14.0432 8.06527 14.0214 8.05969 13.9996 8.04575C13.7438 7.89238 13.3383 7.97604 13.3329 7.97604C13.2594 7.98998 13.1886 7.94257 13.1723 7.86728C13.1587 7.79199 13.2049 7.71949 13.2784 7.70276C13.3002 7.69719 13.7901 7.5968 14.1357 7.80594C14.201 7.84498 14.2228 7.93142 14.1847 7.99555C14.1602 8.04017 14.1139 8.06527 14.0677 8.06527Z" fill="black"/>
<path d="M15.9401 8.51088C15.9401 8.51088 15.6162 9.84936 15.4475 9.81032C15.2788 9.77407 15.3686 7.70221 15.8367 7.57673C16.3048 7.45125 15.9401 8.51088 15.9401 8.51088Z" fill="black"/>
<path d="M12.7232 12.5428C12.6497 12.5428 12.5899 12.4843 12.5871 12.409C12.5844 12.3309 12.6416 12.2668 12.7178 12.264C12.745 12.264 13.4118 12.2277 13.6703 11.6421C13.7002 11.5724 13.7819 11.5418 13.8499 11.5724C13.918 11.6031 13.9479 11.6868 13.918 11.7565C13.5886 12.4982 12.764 12.54 12.7286 12.54C12.7286 12.54 12.7259 12.54 12.7232 12.54V12.5428Z" fill="black"/>
<path d="M15.7223 8.33826C15.7223 8.33826 14.2935 8.2797 13.3056 7.56584C12.4728 6.96352 12.1218 6.06563 12.1218 6.06563C12.1218 6.06563 11.5067 6.01264 10.6576 6.60102C9.80847 7.18939 9.81119 8.89317 9.81119 8.89317C9.81119 8.89317 8.07486 6.08793 8.80151 5.03388C9.52543 3.97983 10.8182 4.77176 10.8182 4.77176C10.8182 4.77176 10.5161 2.90068 13.0879 3.51415C15.6625 4.12762 16.3374 6.35005 16.3374 6.35005C16.3374 6.35005 17.2028 6.23294 17.3444 7.05276C17.4859 7.87258 17.1947 8.72307 17.1947 8.72307C17.1947 8.72307 16.8028 8.37172 16.2313 8.61989L15.6597 8.86528L15.7196 8.33826H15.7223Z" fill="black"/>
<path d="M11.3652 14.8466C11.3652 14.8466 11.8605 15.3262 13.0035 15.3569C14.1466 15.3875 15.1508 14.4395 15.1508 14.4395L15.8884 15.8253L14.0649 16.9658L11.0087 16.7037V15.3011L11.3625 14.8494L11.3652 14.8466Z" fill="#7C6053"/>
<path d="M12.628 17.1075C11.3925 17.1075 10.7175 16.1817 10.7094 16.1706C10.6658 16.1092 10.6794 16.0228 10.7393 15.9754C10.7992 15.9308 10.8863 15.9447 10.9298 16.006C10.9652 16.0562 11.8061 17.1995 13.3792 16.7087C13.4527 16.6864 13.5261 16.7283 13.5479 16.8008C13.5697 16.8733 13.5289 16.9513 13.4581 16.9736C13.1587 17.0657 12.8811 17.1047 12.628 17.1047V17.1075Z" fill="white"/>
</g>
<defs>
<clipPath id="clip0_6_19371">
<rect width="25.3755" height="26" fill="white" transform="translate(0.231445)"/>
</clipPath>
</defs>
</svg>
