<svg width="27" height="26" viewBox="0 0 27 26" fill="none" xmlns="http://www.w3.org/2000/svg">
<path d="M26.194 13C26.194 14.358 25.9861 15.6686 25.5956 16.8983C25.0001 18.7778 23.9887 20.4732 22.6655 21.8758C22.6374 21.9093 22.6093 21.9399 22.5784 21.9706C22.5391 22.0124 22.497 22.0543 22.4576 22.0933C20.081 24.5026 16.766 26 13.097 26C12.5295 26 11.9649 25.9638 11.417 25.8968C11.4114 25.894 11.4086 25.894 11.403 25.894C10.0545 25.7184 8.76786 25.3419 7.57953 24.7926C7.4812 24.748 7.38287 24.7006 7.28455 24.6532C5.34893 23.7023 3.68582 22.2857 2.44129 20.5541C2.33454 20.4035 2.22778 20.2529 2.12665 20.0967C1.87381 19.7175 1.64345 19.3243 1.43556 18.92C0.516914 17.1437 0 15.1332 0 13C0 5.81961 5.86304 0 13.097 0C20.331 0 26.194 5.81961 26.194 13Z" fill="#EDDDD6"/>
<path d="M22.6655 21.8762C22.6374 21.9097 22.6094 21.9403 22.5785 21.971C22.5391 22.0128 22.497 22.0547 22.4576 22.0937C20.081 24.503 16.766 26.0004 13.097 26.0004C12.5295 26.0004 11.9649 25.9641 11.417 25.8972C11.4114 25.8944 11.4086 25.8944 11.403 25.8944C10.0545 25.7188 8.76787 25.3423 7.57953 24.793C7.6919 20.0832 7.64414 15.9618 7.64414 15.8837C7.68909 15.7861 9.88597 15.2256 12.8105 15.1308C17.4121 14.9858 21.3002 17.5624 22.6655 21.8762Z" fill="#507849"/>
<path d="M11.417 25.8968C11.417 25.8968 11.4086 25.8941 11.403 25.8941C10.0545 25.7184 8.76786 25.3419 7.57952 24.7926C7.48119 24.748 7.38287 24.7006 7.28454 24.6532C5.34892 23.7023 3.68581 22.2857 2.44128 20.5541C4.96405 17.1214 7.02608 16.1204 7.64413 15.8833C7.77055 15.8331 7.83516 15.8164 7.83516 15.8164L11.417 25.8968Z" fill="#507849"/>
<path d="M13.1476 7.49023C13.1476 7.49023 16.1704 7.63244 16.3417 4.75471C16.5244 1.69014 13.6673 1.39735 12.4537 2.63545C11.24 3.87354 11.4648 5.13395 11.4648 5.13395C11.4648 5.13395 10.6192 4.37826 9.69772 5.30683C9.02068 5.99002 9.36903 7.10263 9.36903 7.10263C9.36903 7.10263 7.80986 7.04407 7.95595 8.39371C8.10203 9.74613 9.07406 10.4321 9.07406 10.4321L13.1448 7.48744L13.1476 7.49023Z" fill="#E56445"/>
<path d="M10.3832 12.7871L10.6979 15.9772C10.6979 15.9772 11.3665 16.8388 13.2628 16.8081C14.6731 16.7858 15.1338 16.4233 15.1338 16.4233L14.7798 14.8283L14.4315 13.2723L10.9648 12.8596L10.3832 12.7899V12.7871Z" fill="#FCA397"/>
<path d="M10.9647 12.8574C10.9816 12.9439 11.0237 13.0443 11.0883 13.1558C11.9648 14.6783 13.9651 14.8317 14.7798 14.8261L14.4314 13.2701L10.9647 12.8574Z" fill="black"/>
<path d="M14.4315 5.93174C14.4315 5.93174 16.5132 9.76594 16.0665 12.0525C15.6198 14.3391 13.5409 14.155 12.2767 13.8232C11.0125 13.4914 10.3832 12.7915 10.3832 12.7915C10.3832 12.7915 9.26794 13.2711 8.41391 12.2756C7.55988 11.2801 7.93071 10.0253 8.5628 9.69343C9.1949 9.3616 10.0124 9.76594 10.0124 9.76594L9.30727 8.6589C9.30727 8.6589 11.389 2.57439 14.4343 5.92896L14.4315 5.93174Z" fill="#FCA397"/>
<path d="M10.0489 11.5119C10.0264 11.5119 10.0011 11.5063 9.97865 11.4924L8.70322 10.759C8.6358 10.72 8.61332 10.6363 8.65265 10.5694C8.69198 10.5025 8.77626 10.4802 8.84369 10.5192L10.1191 11.2526C10.1865 11.2916 10.209 11.3753 10.1697 11.4422C10.1444 11.4868 10.0966 11.5119 10.0489 11.5119Z" fill="black"/>
<path d="M9.00947 11.6233C8.9589 11.6233 8.91114 11.5954 8.88586 11.548C8.84934 11.4811 8.87743 11.3947 8.94485 11.3612L9.5938 11.0238C9.66123 10.9875 9.74832 11.0154 9.78203 11.0824C9.81855 11.1493 9.79046 11.2357 9.72303 11.2692L9.07408 11.6066C9.05442 11.6177 9.03194 11.6233 9.00947 11.6233Z" fill="black"/>
<path d="M14.9961 7.43379C14.968 7.43379 14.9427 7.42543 14.9174 7.4087C14.5579 7.16889 14.2292 7.39754 14.2151 7.4087C14.1533 7.45331 14.0634 7.43937 14.0185 7.37802C13.9735 7.31668 13.9876 7.23023 14.0494 7.18283C14.069 7.16889 14.5494 6.82869 15.0748 7.18004C15.1394 7.22187 15.1562 7.30831 15.1141 7.37245C15.086 7.41149 15.0439 7.43379 14.9989 7.43379H14.9961Z" fill="black"/>
<path d="M14.5635 11.0641C14.5635 11.0641 14.5466 11.0641 14.5354 11.0641C14.4595 11.0502 14.409 10.9749 14.423 10.8996C14.6562 9.70889 13.9595 8.93369 13.9538 8.92811C13.9005 8.87234 13.9061 8.78311 13.9623 8.73013C14.0185 8.67714 14.1084 8.68272 14.1617 8.73849C14.1955 8.77474 14.9596 9.62523 14.7011 10.9526C14.6871 11.0195 14.6281 11.0641 14.5635 11.0641Z" fill="black"/>
<path d="M14.9989 9.3156C14.9231 9.3156 14.8613 9.25704 14.8585 9.18175L14.8247 8.42049C14.8219 8.34241 14.8809 8.27827 14.9596 8.27549C15.0382 8.2727 15.1029 8.33126 15.1057 8.40933L15.1394 9.1706C15.1422 9.24867 15.0832 9.31281 15.0045 9.3156C15.0045 9.3156 15.0017 9.3156 14.9989 9.3156Z" fill="black"/>
<path d="M12.8891 9.51703C12.8133 9.51703 12.7515 9.45847 12.7487 9.38318L12.7149 8.62192C12.7121 8.54384 12.7711 8.4797 12.8498 8.47691C12.9284 8.47134 12.9931 8.53268 12.9959 8.61076L13.0296 9.37202C13.0324 9.4501 12.9734 9.51424 12.8947 9.51703C12.8947 9.51703 12.8919 9.51703 12.8891 9.51703Z" fill="black"/>
<path d="M14.8585 6.7988C14.8585 6.7988 14.4455 6.1909 13.6448 6.26341C12.8414 6.33591 12.4312 6.94101 12.4312 6.94101C12.4312 6.94101 12.9144 8.24603 11.8946 9.06306C10.8748 9.88009 10.0124 9.76298 10.0124 9.76298L9.19488 9.55942L8.50098 8.46911L10.5462 5.80051L13.3527 3.96289L14.9961 5.17589L14.8585 6.79601V6.7988Z" fill="#E56445"/>
<path d="M13.8977 11.881C13.6223 11.881 13.142 11.8029 12.847 11.3094C12.8076 11.2425 12.8301 11.1588 12.8947 11.117C12.9622 11.0779 13.0464 11.1002 13.0886 11.1644C13.4116 11.7026 14.0325 11.5938 14.0578 11.5882C14.1336 11.5743 14.2067 11.6245 14.2207 11.6998C14.2348 11.7751 14.187 11.8476 14.1112 11.8643C14.0999 11.8643 14.0185 11.881 13.8977 11.881Z" fill="black"/>
<path d="M15.8445 10.4657C15.0888 10.4657 14.4764 9.83826 14.4764 9.06584C14.4764 8.29343 15.0916 7.66602 15.8445 7.66602C16.5974 7.66602 17.2127 8.29343 17.2127 9.06584C17.2127 9.83826 16.5974 10.4657 15.8445 10.4657ZM15.8445 7.94487C15.2433 7.94487 14.7573 8.4468 14.7573 9.06584C14.7573 9.68489 15.2461 10.1868 15.8445 10.1868C16.4429 10.1868 16.9317 9.68489 16.9317 9.06584C16.9317 8.4468 16.4429 7.94487 15.8445 7.94487Z" fill="white"/>
<path d="M12.5914 10.7782C11.8132 10.7782 11.1811 10.1508 11.1811 9.37834C11.1811 8.60593 11.8132 7.97852 12.5914 7.97852C13.3695 7.97852 14.0016 8.60593 14.0016 9.37834C14.0016 10.1508 13.3695 10.7782 12.5914 10.7782ZM12.5914 8.25737C11.9677 8.25737 11.462 8.7593 11.462 9.37834C11.462 9.99739 11.9677 10.4993 12.5914 10.4993C13.215 10.4993 13.7207 9.99739 13.7207 9.37834C13.7207 8.7593 13.215 8.25737 12.5914 8.25737Z" fill="white"/>
<path d="M13.7263 9.37182C13.6533 9.37182 13.5915 9.31605 13.5858 9.24355C13.5802 9.16826 13.6364 9.09855 13.7151 9.09297L14.7096 9.0121C14.7882 9.00653 14.8556 9.0623 14.8613 9.14037C14.8669 9.21566 14.8107 9.28538 14.732 9.29095L13.7375 9.37182C13.7375 9.37182 13.7291 9.37182 13.7263 9.37182Z" fill="white"/>
<path d="M9.19209 9.70042C9.15837 9.70042 9.12185 9.68648 9.09657 9.66138C9.04038 9.6084 9.03757 9.51917 9.09095 9.4634C9.84666 8.66589 11.3215 9.40205 11.3862 9.43552C11.4564 9.47177 11.4817 9.55542 11.448 9.62234C11.4143 9.69206 11.3272 9.71715 11.2597 9.68369C11.2457 9.67812 9.90846 9.01166 9.29884 9.65581C9.27075 9.68369 9.23423 9.70042 9.1977 9.70042H9.19209Z" fill="white"/>
<path d="M13.2993 16.8374C12.3919 16.8374 11.3384 16.6087 10.313 15.8614C10.2512 15.8168 10.2371 15.7275 10.2821 15.6662C10.327 15.6048 10.4169 15.5909 10.4787 15.6355C12.9594 17.4453 15.6366 16.0343 15.6619 16.0203C15.7293 15.9841 15.8164 16.0092 15.8529 16.0761C15.8895 16.143 15.8642 16.2295 15.7968 16.2657C15.7799 16.2741 14.718 16.8346 13.2965 16.8346L13.2993 16.8374Z" fill="white"/>
<path d="M11.8946 7.88635C11.8693 7.88635 11.8441 7.88077 11.8188 7.86404C11.7542 7.82221 11.7345 7.73856 11.7738 7.67163C12.1587 7.06374 12.7571 7.10836 13.0183 7.2199C13.0886 7.25057 13.1223 7.33144 13.0942 7.40115C13.0633 7.47365 12.9818 7.50432 12.9116 7.47644C12.8863 7.46529 12.3638 7.26451 12.0126 7.81943C11.9845 7.86125 11.9396 7.88356 11.8946 7.88356V7.88635Z" fill="black"/>
</svg>
