<svg width="33" height="32" viewBox="0 0 33 32" fill="none" xmlns="http://www.w3.org/2000/svg">
<g clip-path="url(#clip0_6_19350)">
<path d="M32.4703 16.0017C32.4703 19.4025 31.402 22.5561 29.5765 25.147C28.5705 26.5849 27.3259 27.8512 25.9049 28.8841C25.898 28.8944 25.8877 28.8978 25.8807 28.9047C25.7874 28.9733 25.6941 29.0419 25.5973 29.1037C23.8479 30.3254 21.8427 31.2073 19.6784 31.6568C18.6067 31.8833 17.4935 32 16.3526 32C13.7354 32 11.267 31.3823 9.08199 30.2808C7.8201 29.6493 6.65501 28.8566 5.61092 27.9301C5.05084 27.4291 4.52189 26.8937 4.03441 26.3206C3.23579 25.3838 2.54434 24.3577 1.97735 23.2562C0.860664 21.0771 0.231445 18.6132 0.231445 16.0017C0.231445 7.16526 7.45017 0 16.3526 0C25.255 0 32.4703 7.16526 32.4703 16.0017Z" fill="#EDDDD6"/>
<path d="M29.5766 25.1461C28.5636 26.5908 27.3121 27.864 25.8808 28.9038C24.0657 30.2284 21.9602 31.1824 19.6785 31.6559C19.6923 28.6876 19.8582 26.33 19.8582 26.33C19.8582 26.33 24.8851 19.1373 24.9542 19.1957C25.497 19.6383 27.5506 21.4091 29.5766 25.1461Z" fill="#46467F"/>
<path d="M25.8808 28.9043C24.0657 30.2289 21.9602 31.1829 19.6785 31.6565C18.6067 31.883 17.4935 31.9996 16.3526 31.9996C13.7355 31.9996 11.267 31.3819 9.082 30.2804C7.82011 29.649 6.65502 28.8562 5.61093 27.9297C5.05085 27.4287 4.5219 26.8934 4.03442 26.3203C5.01974 22.9984 7.18052 20.4728 7.82702 19.7453C7.98951 19.5599 8.1762 19.3918 8.37672 19.2374C8.38018 19.2305 8.3871 19.2305 8.39055 19.2271C9.23066 18.5785 10.3543 18.1598 11.464 17.8853C11.4744 17.8853 11.4813 17.8819 11.4848 17.8819C12.84 17.5524 14.1642 17.4392 14.9213 17.4014C15.3258 17.3809 15.5678 17.3809 15.5678 17.3809C15.5678 17.3809 17.6491 17.5833 19.8963 17.9334C21.9049 18.2456 24.045 18.6746 24.9473 19.1893C24.9922 19.2168 25.0303 19.2614 25.0683 19.3197C25.5765 20.1365 25.8012 24.1789 25.8808 28.9043Z" fill="#46467F"/>
<path d="M11.4883 10.0443C11.4883 10.0443 11.6231 12.4465 12.7121 12.5563C13.8012 12.6661 15.4019 11.3003 15.4019 11.3003L14.6517 8.59961L11.4883 10.0478V10.0443Z" fill="black"/>
<path d="M14.6309 14.5293L14.6827 18.2972C14.6827 18.2972 15.4122 19.3782 17.7389 19.5463C19.471 19.6733 20.076 19.2993 20.076 19.2993L19.8098 17.3913L19.5471 15.5313L15.3396 14.6734L14.6343 14.5293H14.6309Z" fill="#FCA397"/>
<path d="M15.5677 14.6934C15.5781 14.7963 15.6196 14.9164 15.6818 15.0571C16.5461 16.9308 18.8729 17.3151 19.8271 17.3906L19.5816 15.5341L15.5677 14.6934Z" fill="black"/>
<path d="M20.3526 6.94188C20.3526 6.94188 22.3855 11.6467 21.6249 14.2753C20.8643 16.9039 18.4477 16.475 17.0025 15.9568C15.5574 15.4386 14.8936 14.5532 14.8936 14.5532C14.8936 14.5532 13.5384 14.9994 12.643 13.7468C11.7475 12.4943 12.3145 11.0633 13.0889 10.7407C13.8634 10.4181 14.7761 10.9775 14.7761 10.9775L14.0673 9.60826C14.0673 9.60826 17.1408 2.70038 20.3526 6.94188Z" fill="#FCA397"/>
<path d="M14.6516 13.0331C14.6171 13.0331 14.5825 13.0228 14.5514 13.0022L12.8297 11.7977C12.7502 11.7428 12.7329 11.6365 12.7882 11.5575C12.8435 11.4786 12.9507 11.4614 13.0302 11.5163L14.7519 12.7208C14.8314 12.7758 14.8487 12.8821 14.7934 12.9611C14.7588 13.0091 14.707 13.0331 14.6516 13.0331Z" fill="black"/>
<path d="M13.0924 13.0261C13.0164 13.0261 12.9472 12.9746 12.9265 12.8991C12.9023 12.8065 12.9576 12.7138 13.0475 12.6898L14.1711 12.3912C14.261 12.3706 14.3578 12.4221 14.382 12.5113C14.4062 12.604 14.3509 12.6967 14.261 12.7207L13.1374 13.0192C13.1374 13.0192 13.1062 13.0261 13.0924 13.0261Z" fill="black"/>
<path d="M17.0717 9.21998C17.0406 9.21998 17.0095 9.21312 16.9818 9.19596C16.8989 9.14792 16.8747 9.04154 16.9231 8.95918C17.3621 8.22824 18.0709 8.26942 18.3855 8.39296C18.4754 8.42728 18.5168 8.52679 18.4823 8.61602C18.4477 8.70524 18.3474 8.74642 18.2576 8.7121C18.2299 8.70181 17.6145 8.47875 17.2204 9.13762C17.1893 9.19253 17.1305 9.21998 17.0717 9.21998Z" fill="black"/>
<path d="M20.8677 8.77036C20.8297 8.77036 20.7916 8.75664 20.7605 8.73262C20.3698 8.41691 19.9654 8.64682 19.9481 8.65712C19.8651 8.70516 19.7614 8.67771 19.713 8.59878C19.6646 8.51642 19.6888 8.41347 19.7717 8.36543C19.7959 8.3517 20.3975 8.00168 20.9783 8.46838C21.0509 8.52672 21.0648 8.63653 21.0025 8.70859C20.968 8.74977 20.9195 8.77036 20.8677 8.77036Z" fill="black"/>
<path d="M20.204 12.7754C20.204 12.7754 20.1729 12.7754 20.159 12.7686C20.0657 12.7445 20.0104 12.6484 20.038 12.5592C20.2766 11.6739 19.6508 10.3424 19.6439 10.3287C19.6024 10.2429 19.6405 10.1399 19.7269 10.0987C19.8133 10.0576 19.917 10.0953 19.9585 10.1811C19.9862 10.2394 20.6465 11.6395 20.3734 12.6484C20.3526 12.7239 20.2835 12.7754 20.2074 12.7754H20.204Z" fill="black"/>
<path d="M20.5221 10.5805C20.446 10.5805 20.3769 10.5324 20.3561 10.4569L20.1107 9.59559C20.083 9.50294 20.1383 9.41028 20.2317 9.38283C20.3215 9.35881 20.4183 9.41028 20.446 9.50294L20.6915 10.3643C20.7191 10.4569 20.6638 10.5496 20.5705 10.577C20.5532 10.5805 20.5394 10.5839 20.5221 10.5839V10.5805Z" fill="black"/>
<path d="M17.9602 10.6488C17.8841 10.6488 17.815 10.6008 17.7942 10.5253L17.5488 9.66395C17.5211 9.5713 17.5764 9.47864 17.6698 9.45119C17.7597 9.42717 17.8565 9.47864 17.8841 9.5713L18.1296 10.4326C18.1572 10.5253 18.1019 10.6179 18.0086 10.6454C17.9913 10.6488 17.9775 10.6523 17.9602 10.6523V10.6488Z" fill="black"/>
<path d="M20.6223 7.62509C20.6223 7.62509 20.3422 7.24761 19.3949 7.25104C18.4477 7.25447 17.9014 7.92021 17.9014 7.92021C17.9014 7.92021 17.8219 9.6223 16.5427 10.4733C15.2635 11.3244 14.7726 10.9744 14.7726 10.9744L13.8357 10.6518L13.1373 9.30316L15.8132 6.3897L19.0285 5.02734L20.6223 6.78434V7.62166V7.62509Z" fill="black"/>
<path d="M19.2463 13.87C18.9766 13.87 18.2713 13.7979 17.9256 13.0807C17.8841 12.9949 17.9221 12.8919 18.0051 12.8508C18.0915 12.8096 18.1953 12.8473 18.2368 12.9297C18.5548 13.5886 19.2878 13.5234 19.3189 13.5199C19.4157 13.5096 19.4986 13.5783 19.509 13.6744C19.5194 13.767 19.4502 13.8528 19.3569 13.8631C19.35 13.8631 19.312 13.8665 19.2497 13.8665L19.2463 13.87Z" fill="black"/>
<path d="M12.0172 12.2581C11.3534 11.5855 10.8037 9.928 10.9385 8.99459L10.9662 8.80585C10.9662 8.80585 9.86677 8.68574 10.2332 7.23073C10.5997 5.77572 12.4701 3.83341 15.3914 3.10247C18.3128 2.37497 20.6257 6.78805 20.6257 6.78805C20.6257 6.78805 18.1849 6.66108 16.3491 8.03717C14.5133 9.41325 13.8426 10.6521 13.8426 10.6521L12.0206 12.2546L12.0172 12.2581Z" fill="#7C6053"/>
<path d="M18.465 19.6705C16.1625 19.6705 14.4235 18.521 14.3336 18.4626C14.2541 18.4077 14.2333 18.3013 14.2886 18.2258C14.3439 18.1469 14.4511 18.1263 14.5272 18.1812C14.5514 18.1984 17.1132 19.8867 20.0311 19.1352C20.1245 19.1112 20.2178 19.1661 20.242 19.2588C20.2662 19.3514 20.2109 19.4441 20.1175 19.4681C19.5471 19.6156 18.9905 19.674 18.465 19.674V19.6705Z" fill="#F7734F"/>
<path d="M10.9385 9.16649C10.9109 9.16649 10.8798 9.15962 10.8521 9.14246C10.7691 9.09442 10.7415 8.99147 10.7864 8.90911L11.3361 7.95169C11.3845 7.86933 11.4882 7.84187 11.5712 7.88649C11.6542 7.93453 11.6819 8.03748 11.6369 8.11984L11.0872 9.07726C11.0561 9.13217 10.9973 9.16305 10.9385 9.16305V9.16649Z" fill="#FFBF69"/>
<path d="M25.905 28.8832C25.905 28.8832 25.8877 28.8969 25.8808 28.9037C25.7874 28.9724 25.6941 29.041 25.5973 29.1028L24.7122 24.724C24.695 24.6314 24.7537 24.5387 24.8471 24.5215C24.9404 24.501 25.0338 24.5627 25.0511 24.6554L25.905 28.8832Z" fill="#F7734F"/>
</g>
<defs>
<clipPath id="clip0_6_19350">
<rect width="32.2388" height="32" fill="white" transform="translate(0.231445)"/>
</clipPath>
</defs>
</svg>
