<svg width="33" height="32" viewBox="0 0 33 32" fill="none" xmlns="http://www.w3.org/2000/svg">
<g clip-path="url(#clip0_6_19412)">
<path d="M32.4703 16C32.4703 19.1609 31.5472 22.109 29.9499 24.5937C28.7987 26.3852 27.2982 27.9331 25.5419 29.1446C24.6016 29.7932 23.5886 30.3458 22.5168 30.7885C20.6188 31.5676 18.5376 32 16.3526 32C16.2281 32 16.1002 32 15.9723 31.9966C12.0933 31.9073 8.55303 30.459 5.81835 28.1115C5.34125 27.7031 4.89181 27.2673 4.46657 26.8074C1.83561 23.9622 0.231445 20.1665 0.231445 16C0.231445 7.16259 7.45017 0 16.3526 0C25.255 0 32.4703 7.16259 32.4703 16Z" fill="#EDDDD6"/>
<path d="M25.5419 29.1444C24.6015 29.793 23.5886 30.3456 22.5168 30.7883C20.6188 31.5674 18.5375 31.9998 16.3526 31.9998C16.2281 31.9998 16.1002 31.9998 15.9723 31.9964C12.0932 31.9072 8.55302 30.4588 5.81834 28.1114C5.34124 27.7029 4.89179 27.2671 4.46655 26.8072C5.60053 24.367 8.23149 19.7647 12.3456 18.6596C12.394 18.6459 12.4424 18.6356 12.4874 18.6219C17.248 17.4275 23.7061 18.5429 24.9922 19.5005C25.5212 19.9329 25.6145 24.2263 25.5419 29.1444Z" fill="#7C6053"/>
<path d="M13.4588 10.0939C13.4588 10.0939 10.7795 6.80602 11.9031 5.49842C13.0267 4.19083 14.7657 5.49842 14.7657 5.49842C14.7657 5.49842 14.8625 3.95402 16.5945 4.11533C18.3266 4.2732 19.3707 6.10932 19.3707 6.10932C19.3707 6.10932 20.8954 4.59581 21.9394 6.10932C22.9835 7.62283 22.261 10.0939 22.261 10.0939C22.261 10.0939 23.4641 9.91541 23.1426 11.3191C22.821 12.7228 20.9265 14.1711 20.9265 14.1711L13.4554 10.0939H13.4588Z" fill="black"/>
<path d="M19.3223 15.273L19.3742 18.983C19.3742 18.983 18.7139 20.0572 16.5323 20.2631C14.9074 20.4175 14.3301 20.0572 14.3301 20.0572L14.5306 18.1764L14.7311 16.3403L18.6655 15.424L19.3258 15.2695L19.3223 15.273Z" fill="#FCA397"/>
<path d="M18.662 15.4273C18.6551 15.5302 18.617 15.6503 18.5582 15.7876C17.7458 17.6512 15.4675 18.0802 14.5271 18.1763L14.7276 16.3402L18.662 15.4238V15.4273Z" fill="black"/>
<path d="M13.7769 7.89609C13.7769 7.89609 11.8789 12.5739 12.6879 15.1445C13.4969 17.715 15.8651 17.2414 17.2756 16.6992C18.6862 16.1569 19.3223 15.2715 19.3223 15.2715C19.3223 15.2715 20.6672 15.6799 21.5211 14.4272C22.3751 13.1745 21.7873 11.7777 21.0164 11.4757C20.2454 11.1736 19.3604 11.7434 19.3604 11.7434L20.0311 10.3809C20.0311 10.3809 16.8539 3.64727 13.7804 7.89265L13.7769 7.89609Z" fill="#FCA397"/>
<path d="M19.5229 13.7718C19.471 13.7718 19.4192 13.7478 19.3846 13.7032C19.3293 13.6277 19.3431 13.5178 19.4226 13.4629L20.8297 12.4299C20.9058 12.375 21.013 12.3887 21.0717 12.4642C21.1271 12.5397 21.1132 12.6495 21.0337 12.7044L19.6266 13.7375C19.5955 13.7615 19.5609 13.7718 19.5229 13.7718Z" fill="black"/>
<path d="M21.0579 13.7314C21.0579 13.7314 21.0302 13.7314 21.0164 13.728L19.9031 13.4603C19.8098 13.4397 19.7545 13.3436 19.7752 13.2543C19.7994 13.1617 19.8893 13.1068 19.9827 13.1274L21.0959 13.3951C21.1892 13.4156 21.2445 13.5117 21.2238 13.601C21.2031 13.6799 21.1339 13.7314 21.0544 13.7314H21.0579Z" fill="black"/>
<path d="M16.809 10.0732C16.7364 10.0732 16.6707 10.0286 16.6465 9.95996C16.3906 9.24954 15.7545 9.3525 15.7268 9.35593C15.6335 9.37309 15.5436 9.31132 15.5263 9.21522C15.509 9.12256 15.5713 9.03332 15.6646 9.01616C15.9896 8.95782 16.688 9.05048 16.9714 9.84328C17.0026 9.93251 16.9576 10.032 16.8677 10.0629C16.847 10.0698 16.8297 10.0732 16.809 10.0732Z" fill="black"/>
<path d="M13.3068 9.70846C13.2584 9.70846 13.21 9.68787 13.1754 9.64668C13.1132 9.57461 13.1235 9.46478 13.1961 9.40301C13.3621 9.2623 13.8011 8.89164 14.0017 9.11472C14.0639 9.18679 14.057 9.29318 13.9878 9.35839C13.9429 9.39958 13.8807 9.40987 13.8253 9.39271C13.7873 9.40301 13.6698 9.45449 13.4208 9.66384C13.3897 9.6913 13.3482 9.70503 13.3102 9.70503L13.3068 9.70846Z" fill="black"/>
<path d="M13.9843 13.23C13.9325 13.23 13.8806 13.206 13.846 13.1614C13.2376 12.372 14.4061 11.1228 14.4545 11.0713C14.5202 11.0026 14.6274 10.9992 14.7 11.0644C14.7691 11.1296 14.7726 11.236 14.7069 11.3081C14.4234 11.6101 13.7631 12.4921 14.1192 12.9554C14.1779 13.031 14.1606 13.1373 14.088 13.1957C14.0569 13.2197 14.0189 13.23 13.9843 13.23Z" fill="black"/>
<path d="M13.6802 11.5766C13.6802 11.5766 13.6629 11.5766 13.656 11.5766C13.5626 11.5629 13.4969 11.4771 13.5108 11.381L13.6352 10.5093C13.649 10.4166 13.7389 10.3514 13.8323 10.3651C13.9256 10.3788 13.9913 10.4646 13.9775 10.5607L13.853 11.4325C13.8392 11.5183 13.7666 11.58 13.6836 11.58L13.6802 11.5766Z" fill="black"/>
<path d="M16.2523 11.5793C16.1451 11.5725 16.0725 11.4901 16.0794 11.3974L16.1348 10.5188C16.1417 10.4262 16.2143 10.3541 16.318 10.3575C16.4148 10.3644 16.4874 10.4468 16.4805 10.5394L16.4252 11.418C16.4182 11.5073 16.3422 11.5793 16.2523 11.5793Z" fill="black"/>
<path d="M13.4001 8.95112C13.4001 8.95112 13.7942 8.19951 14.7277 8.18235C15.6611 8.16519 16.2143 8.80697 16.2143 8.80697C16.2143 8.80697 15.8271 10.372 17.1062 11.1819C18.3854 11.9919 19.3638 11.7482 19.3638 11.7482L20.28 11.4119L20.9369 10.0699L18.2402 7.25914L14.7726 5.50195L13.0405 7.1047L13.407 8.95112H13.4001Z" fill="black"/>
<path d="M14.9904 14.6961C14.9489 14.6961 14.9212 14.6961 14.9178 14.6961C14.8244 14.6892 14.7518 14.6069 14.7588 14.5108C14.7657 14.4181 14.8486 14.3426 14.9454 14.3529C14.9766 14.3529 15.6957 14.4009 15.9964 13.7489C16.0345 13.6631 16.1382 13.6253 16.2246 13.6631C16.3111 13.7008 16.3491 13.8038 16.3111 13.8896C15.9722 14.6343 15.2324 14.6961 14.9938 14.6961H14.9904Z" fill="black"/>
<path d="M29.9499 24.5931C28.7987 26.3846 27.2982 27.9324 25.5419 29.1439C24.6016 29.7926 23.5886 30.3451 22.5168 30.7879L24.9922 19.5C25.1616 19.6167 27.803 21.4665 29.9499 24.5931Z" fill="#7C6053"/>
<path d="M15.9792 20.455C14.7933 20.455 13.8668 20.1942 13.8218 20.1805C13.732 20.153 13.6766 20.0604 13.7043 19.9677C13.732 19.875 13.8253 19.8235 13.9186 19.851C13.929 19.851 15.1391 20.1908 16.5185 20.0912C18.1019 19.9746 19.6162 18.8557 19.63 18.8454C19.7061 18.7871 19.8133 18.8042 19.872 18.8797C19.9308 18.9552 19.9135 19.0616 19.8375 19.12C19.7718 19.168 18.2298 20.3109 16.5427 20.4344C16.3491 20.4482 16.1624 20.455 15.9792 20.455Z" fill="#FFBF69"/>
</g>
<defs>
<clipPath id="clip0_6_19412">
<rect width="32.2388" height="32" fill="white" transform="translate(0.231445)"/>
</clipPath>
</defs>
</svg>
