<svg width="27" height="26" viewBox="0 0 27 26" fill="none" xmlns="http://www.w3.org/2000/svg">
<g clip-path="url(#clip0_6_19392)">
<path d="M26.4255 13.0014C26.4255 15.1985 25.8777 17.2673 24.9058 19.0825C22.7092 23.1979 18.3468 26 13.3271 26C11.7231 26 10.1894 25.7128 8.77084 25.1886C8.05454 24.9265 7.36914 24.6031 6.71745 24.2211C5.28767 23.393 4.03204 22.3028 3.01798 21.0175C1.27078 18.8092 0.231445 16.0266 0.231445 13.0014C0.231445 5.82177 6.09666 0 13.3271 0C20.5575 0 26.4255 5.82177 26.4255 13.0014Z" fill="#EDDDD6"/>
<path d="M18.0377 20.0921L8.7708 25.1889C8.0545 24.9268 7.3691 24.6034 6.71741 24.2214C5.28763 23.3933 4.032 22.3031 3.01794 21.0178C3.98986 18.9712 6.29606 15.4163 10.9365 14.2926C11.8748 14.0668 12.7034 14.0891 13.4281 14.2871C16.8945 15.2267 18.0377 20.0921 18.0377 20.0921Z" fill="#7C6053"/>
<path d="M24.9058 19.0832C22.7091 23.1985 18.3467 26.0007 13.327 26.0007C11.7231 26.0007 10.1893 25.7135 8.77079 25.1893C8.0545 24.9272 7.3691 24.6038 6.71741 24.2218C7.06011 20.3657 7.41404 17.1286 7.67809 16.5208C8.14719 15.4418 11.2905 14.6834 13.4281 14.2874C14.5742 14.0755 15.431 13.9668 15.431 13.9668C15.431 13.9668 19.6501 14.1341 23.0743 16.9753C23.6895 17.4855 24.3102 18.216 24.9058 19.0832Z" fill="#7C6053"/>
<path d="M10.2709 3.88086C10.2709 3.88086 8.78209 5.55378 9.59951 7.39678C10.4197 9.23979 11.2962 4.04815 11.2962 4.04815L10.2709 3.88086Z" fill="#ADA9C4"/>
<path d="M15.2793 11.3945L15.3355 14.7125C15.3355 14.7125 14.7484 15.6772 12.7961 15.8668C11.3411 16.009 10.8242 15.6912 10.8242 15.6912L10.9984 14.0071L11.1697 12.3648L14.6866 11.5339L15.2765 11.3945H15.2793Z" fill="#F27E64"/>
<path d="M14.6895 11.5352C14.6839 11.6272 15.2288 11.9116 15.1754 12.0342C14.4563 13.7044 11.7737 14.5436 10.9338 14.6329L11.1698 12.366L14.6867 11.5352H14.6895Z" fill="black"/>
<path d="M10.9057 4.04532C10.4478 4.41615 10.1248 4.9264 9.93659 5.48404C9.49839 6.76382 8.61917 9.75278 9.19501 11.5874C9.94502 13.9685 12.108 13.5224 13.3945 13.0178C14.681 12.5131 15.2569 11.6906 15.2569 11.6906C15.2569 11.6906 16.4872 12.067 17.2625 10.9043C18.0378 9.74162 17.4928 8.45068 16.7878 8.17186C16.0827 7.89304 15.2737 8.4228 15.2737 8.4228L15.8776 7.15975C15.8776 7.15975 13.4422 1.99042 10.9001 4.04532H10.9057Z" fill="#F27E64"/>
<path d="M15.4534 10.0369C15.4113 10.0369 15.3691 10.0174 15.3411 9.98116C15.2961 9.91982 15.3073 9.83059 15.3691 9.78598L16.5883 8.8826C16.6501 8.83799 16.7371 8.84914 16.7849 8.91049C16.8298 8.97183 16.8186 9.06105 16.7568 9.10566L15.5377 10.009C15.5124 10.0286 15.4843 10.0369 15.4534 10.0369Z" fill="black"/>
<path d="M16.8271 9.99511C16.8271 9.99511 16.8046 9.99511 16.7934 9.99232L15.7962 9.75532C15.7203 9.73859 15.6754 9.66331 15.6923 9.58803C15.7091 9.51275 15.7849 9.46535 15.8608 9.48487L16.858 9.72186C16.9338 9.73859 16.9788 9.81388 16.9619 9.88916C16.9479 9.95329 16.8889 9.99511 16.8243 9.99511H16.8271Z" fill="black"/>
<path d="M9.92253 7.91372C9.92253 7.91372 9.90006 7.91372 9.88882 7.90815C9.81298 7.88863 9.76803 7.81335 9.7877 7.73806L9.98433 6.9741C10.004 6.89882 10.0798 6.8542 10.1557 6.87372C10.2315 6.89324 10.2765 6.96852 10.2568 7.0438L10.0602 7.80777C10.0433 7.8719 9.98714 7.91372 9.92534 7.91372H9.92253Z" fill="black"/>
<path d="M12.0378 8.02505C12.0378 8.02505 12.0153 8.02505 12.0041 8.01947C11.9282 7.99996 11.8833 7.92467 11.9029 7.84939L12.0996 7.08542C12.1192 7.01014 12.1951 6.96553 12.2709 6.98505C12.3468 7.00457 12.3917 7.07985 12.372 7.15513L12.1754 7.9191C12.1586 7.98323 12.1024 8.02505 12.0406 8.02505H12.0378Z" fill="black"/>
<path d="M9.80169 6.24305C9.73146 6.24305 9.66966 6.19008 9.66124 6.11758C9.65281 6.0423 9.70899 5.9726 9.78483 5.96423L10.4197 5.89732C10.4955 5.88895 10.5657 5.94472 10.5742 6.02C10.5826 6.09528 10.5264 6.16498 10.4506 6.17335L9.81573 6.24026C9.81573 6.24026 9.8045 6.24026 9.80169 6.24026V6.24305Z" fill="#6C6B7C"/>
<path d="M12.6782 6.75078C12.6614 6.75078 12.6417 6.74799 12.6249 6.73962L11.7625 6.38273C11.6923 6.35206 11.6586 6.27121 11.6867 6.2015C11.7176 6.1318 11.799 6.09555 11.8692 6.12622L12.7316 6.48311C12.8018 6.51378 12.8355 6.59464 12.8074 6.66434C12.785 6.71732 12.7316 6.75078 12.6782 6.75078Z" fill="#6C6B7C"/>
<path d="M15.2765 8.42334C15.2765 8.42334 14.931 9.8035 14.6641 9.63621C14.3972 9.46892 14.1472 7.47814 14.3467 6.58592C14.5461 5.69369 14.6894 5.24758 14.6894 5.24758C14.6894 5.24758 11.0377 4.92415 10.077 4.06538C9.11349 3.20383 11.1472 2.64897 13.2259 3.03932C15.3046 3.42967 16.1248 4.20479 16.1248 4.20479C16.1248 4.20479 17.4282 4.0124 17.9141 4.80147C18.4001 5.59053 17.2933 8.58785 17.2933 8.58785C17.2933 8.58785 16.9647 7.83503 15.2765 8.42613V8.42334Z" fill="#ADA9C4"/>
<path d="M8.31299 9.85145C8.31299 9.85145 9.33266 8.73059 9.85233 8.89788C10.372 9.06517 10.5602 9.82078 10.5602 9.82078C10.5602 9.82078 11.1754 8.97316 11.8552 9.21295C12.5349 9.44995 13.9928 9.53917 14.0069 9.77338C14.0209 10.0076 13.5995 10.0912 13.5995 10.0912C13.5995 10.0912 10.1697 10.4844 8.31018 9.85424L8.31299 9.85145Z" fill="#ADA9C4"/>
<path d="M15.2765 8.42383C15.2765 8.42383 15.2147 10.6628 15.2596 11.6888C15.3046 12.7149 12.4282 14.3153 10.4422 13.4314C8.45621 12.5476 9.00116 9.96571 9.00116 9.96571L10.7708 10.1274C10.7708 10.1274 11.1781 9.89879 11.6416 9.80399C12.1051 9.70919 12.7231 9.96013 12.7231 9.96013L15.2765 8.42383Z" fill="#ADA9C4"/>
<path d="M11.049 10.64C10.9788 10.64 10.917 10.5871 10.9086 10.5146C10.9001 10.4393 10.9563 10.3696 11.0321 10.3612C11.0378 10.3612 11.6389 10.2915 11.858 9.85655C11.8917 9.78684 11.976 9.75896 12.0462 9.79521C12.1164 9.82867 12.1445 9.91231 12.108 9.98202C11.8187 10.5536 11.0911 10.6372 11.0602 10.64C11.0546 10.64 11.049 10.64 11.0462 10.64H11.049Z" fill="black"/>
<path d="M10.4984 9.57243C10.4479 9.57243 10.3973 9.54455 10.372 9.49436C9.87763 8.5157 10.5883 7.48686 10.6192 7.44225C10.6642 7.37812 10.7512 7.36418 10.8158 7.40879C10.8804 7.4534 10.8945 7.53983 10.8496 7.60396C10.8439 7.61233 10.2063 8.54359 10.6248 9.37168C10.6585 9.44139 10.6304 9.52503 10.563 9.55849C10.5434 9.56964 10.5209 9.57243 10.5012 9.57243H10.4984Z" fill="black"/>
<path d="M11.8832 16.0176C10.9057 16.0176 10.1501 15.828 10.0827 15.8112C10.0068 15.7917 9.96188 15.7164 9.98154 15.6411C10.0012 15.5659 10.0771 15.5213 10.1529 15.5408C10.1866 15.5491 13.6276 16.4051 15.3468 14.3837C15.3973 14.3251 15.4872 14.3168 15.5434 14.3669C15.6024 14.4171 15.6108 14.5036 15.5602 14.5621C14.5574 15.7415 13.0602 16.0148 11.8832 16.0148V16.0176Z" fill="white"/>
</g>
<defs>
<clipPath id="clip0_6_19392">
<rect width="26.194" height="26" fill="white" transform="translate(0.231445)"/>
</clipPath>
</defs>
</svg>
