<svg width="16" height="16" viewBox="0 0 16 16" fill="none" xmlns="http://www.w3.org/2000/svg">
<g clip-path="url(#clip0_6_20255)">
<path d="M13.7587 9.42333L13.7253 9.092L13.7153 9.09267L13.704 9.09467L13.7587 9.42333ZM13.7587 9.42333L13.792 9.75533L13.8033 9.754L13.814 9.752L13.7587 9.42333ZM11.0653 13.078L11.2767 12.82L11.2733 12.818L11.0653 13.078ZM11.0653 13.078L10.854 13.336L10.8573 13.3387L11.0653 13.078ZM4.93467 13.078L4.72333 12.8207L4.71867 12.8247L4.71333 12.8293L4.93467 13.078ZM4.93467 13.078L5.146 13.3367L5.15133 13.332L5.156 13.328L4.93467 13.078ZM2.24067 6.57533V6.242H2.22467L2.208 6.24333L2.24067 6.57533ZM2.24067 6.57533V6.90867H2.25733L2.274 6.90667L2.24067 6.57533ZM9.75467 2.20667C9.74478 2.08578 9.73077 1.96527 9.71267 1.84533C9.69769 1.73914 9.66572 1.63604 9.618 1.54L9.02533 1.846C9.032 1.85933 9.04333 1.886 9.05467 1.95533C9.06733 2.02867 9.07667 2.124 9.092 2.27267L9.75467 2.20667ZM9.88533 3.00867C9.87733 2.99867 9.85333 2.958 9.82733 2.81533C9.79616 2.61336 9.77282 2.41034 9.756 2.20667L9.092 2.27267C9.11867 2.54 9.14067 2.76133 9.17133 2.93333C9.20133 3.10133 9.248 3.27267 9.35533 3.41333L9.88533 3.00867ZM10.1947 3.13667C10.1364 3.14451 10.0771 3.1368 10.0228 3.11432C9.96844 3.09184 9.92102 3.05539 9.88533 3.00867L9.35467 3.41267C9.46172 3.55306 9.60404 3.6626 9.76716 3.73016C9.93027 3.79773 10.1084 3.8209 10.2833 3.79733L10.1947 3.13667ZM10.8533 2.66133C10.6367 2.83933 10.4887 2.96 10.372 3.04067C10.2527 3.12333 10.2067 3.13467 10.1947 3.13667L10.2833 3.79733C10.458 3.774 10.612 3.686 10.7527 3.588C10.896 3.488 11.0673 3.348 11.276 3.17733L10.8533 2.66133ZM11.4213 2.28733C11.3147 2.32133 11.2247 2.37533 11.1393 2.436C11.0567 2.49467 10.9627 2.572 10.8533 2.66133L11.276 3.17733C11.3913 3.08267 11.466 3.022 11.526 2.97933C11.556 2.9556 11.5892 2.9363 11.6247 2.922L11.4213 2.28733ZM12.1233 2.322C11.9012 2.22588 11.6518 2.21356 11.4213 2.28733L11.6247 2.922C11.7013 2.89772 11.7842 2.90198 11.858 2.934L12.1233 2.322ZM12.6513 2.75133C12.5513 2.65133 12.4653 2.56467 12.3893 2.498C12.3107 2.42548 12.2208 2.36606 12.1233 2.322L11.858 2.934C11.872 2.94 11.8973 2.954 11.9507 3.00067C12.006 3.04867 12.074 3.11667 12.18 3.22267L12.6513 2.75133ZM13.2467 3.34667L12.6513 2.75133L12.18 3.22267L12.7753 3.818L13.2467 3.34667ZM13.676 3.87467C13.6317 3.77711 13.5721 3.6873 13.4993 3.60867C13.4327 3.53267 13.346 3.44667 13.2467 3.34667L12.7753 3.818C12.8813 3.924 12.9487 3.992 12.998 4.04733C13.0447 4.10067 13.058 4.126 13.064 4.14L13.676 3.87467ZM13.7107 4.57667C13.7844 4.34618 13.7721 4.09676 13.676 3.87467L13.064 4.14C13.0958 4.21386 13.0998 4.29674 13.0753 4.37333L13.7107 4.57667ZM13.3367 5.14467C13.426 5.03533 13.5033 4.94133 13.562 4.85867C13.622 4.77333 13.6767 4.68333 13.7107 4.57667L13.0753 4.37333C13.0612 4.40875 13.0422 4.44198 13.0187 4.472C12.9552 4.55729 12.8891 4.64066 12.8207 4.722L13.3367 5.14467ZM12.8613 5.80333C12.8633 5.79133 12.8747 5.74533 12.9573 5.626C13.038 5.50933 13.1587 5.36133 13.3367 5.14467L12.8207 4.722C12.65 4.93067 12.5093 5.102 12.41 5.24533C12.312 5.38533 12.224 5.54 12.2007 5.71467L12.8613 5.80333ZM12.9893 6.11267C12.9426 6.07697 12.9062 6.02956 12.8837 5.97523C12.8612 5.92091 12.8535 5.8616 12.8613 5.80333L12.2007 5.71467C12.1772 5.88953 12.2005 6.06749 12.268 6.23047C12.3356 6.39346 12.4451 6.53567 12.5853 6.64267L12.9893 6.11267ZM13.7913 6.24267C13.512 6.21467 13.3227 6.196 13.1827 6.17067C13.04 6.14467 12.9993 6.12067 12.9893 6.11267L12.5853 6.64267C12.7253 6.74933 12.8967 6.796 13.0653 6.82667C13.2367 6.85733 13.4573 6.88 13.7253 6.90667L13.7913 6.24267ZM14.458 6.38C14.362 6.33228 14.2589 6.30031 14.1527 6.28533C14.0527 6.26867 13.9313 6.25667 13.7913 6.24267L13.7247 6.906C13.874 6.92133 13.9693 6.93067 14.0427 6.94333C14.0803 6.94788 14.1171 6.95776 14.152 6.97267L14.458 6.38ZM14.9293 6.90067C14.8403 6.67583 14.6729 6.49086 14.458 6.38L14.152 6.97267C14.2237 7.00952 14.2796 7.0711 14.3093 7.146L14.9293 6.90067ZM14.9993 7.57733C14.9993 7.43667 14.9993 7.31467 14.9927 7.21333C14.9884 7.10639 14.967 7.00083 14.9293 6.90067L14.3093 7.146C14.3147 7.16 14.3227 7.188 14.3273 7.258C14.3323 7.36459 14.3341 7.4713 14.3327 7.578L14.9993 7.57733ZM14.9993 8.42V7.57733H14.3327V8.42H14.9993ZM14.9293 9.096C14.9707 8.992 14.986 8.888 14.9927 8.78333C14.9993 8.68267 14.9993 8.56067 14.9993 8.42H14.3327C14.3327 8.56933 14.3327 8.66533 14.3273 8.73933C14.3267 8.77733 14.3206 8.81504 14.3093 8.85133L14.9293 9.096ZM14.458 9.61733C14.673 9.50631 14.8405 9.32108 14.9293 9.096L14.3093 8.85133C14.2796 8.92623 14.2237 8.98781 14.152 9.02467L14.458 9.61733ZM13.7913 9.75467C13.9313 9.74067 14.0533 9.728 14.1527 9.71133C14.256 9.69467 14.358 9.66867 14.4573 9.618L14.152 9.02467C14.1171 9.03958 14.0803 9.04945 14.0427 9.054C13.9693 9.06667 13.874 9.076 13.7253 9.09133L13.7913 9.75467ZM12.99 9.88467C13 9.87667 13.0407 9.852 13.1833 9.82667C13.3233 9.80133 13.5127 9.782 13.7913 9.75467L13.7253 9.09133C13.458 9.118 13.2367 9.13933 13.0647 9.17067C12.8967 9.20067 12.726 9.24733 12.5853 9.354L12.99 9.88467ZM12.8613 10.194C12.8536 10.1357 12.8614 10.0763 12.884 10.022C12.9066 9.96766 12.9432 9.92028 12.99 9.88467L12.5853 9.354C12.4449 9.46106 12.3354 9.60338 12.2678 9.76649C12.2003 9.9296 12.1771 10.1077 12.2007 10.2827L12.8613 10.194ZM13.3367 10.8527C13.2046 10.6967 13.0781 10.5362 12.9573 10.3713C12.8747 10.2527 12.8633 10.206 12.8613 10.194L12.2013 10.2833C12.2247 10.458 12.3127 10.6113 12.41 10.752C12.51 10.8947 12.65 11.0667 12.8207 11.2747L13.3367 10.8527ZM13.7107 11.4207C13.6766 11.3191 13.6264 11.2236 13.562 11.138C13.4898 11.0406 13.4146 10.9455 13.3367 10.8527L12.8207 11.2747C12.9153 11.3907 12.976 11.4647 13.0187 11.5253C13.0421 11.5551 13.0612 11.5881 13.0753 11.6233L13.7107 11.4207ZM13.676 12.1227C13.7721 11.9006 13.7844 11.6512 13.7107 11.4207L13.0753 11.6233C13.1 11.7001 13.096 11.7833 13.064 11.8573L13.676 12.1227ZM13.2473 12.65C13.3467 12.5507 13.4327 12.4647 13.4993 12.3887C13.5687 12.3093 13.6313 12.226 13.676 12.1227L13.064 11.8573C13.0463 11.891 13.0238 11.922 12.9973 11.9493C12.9256 12.028 12.8516 12.1045 12.7753 12.1787L13.2473 12.65ZM12.6513 13.246L13.2473 12.65L12.7753 12.1787L12.18 12.7747L12.6513 13.246ZM12.1233 13.6747C12.226 13.63 12.31 13.568 12.3893 13.4987C12.4653 13.432 12.5513 13.3453 12.6513 13.2453L12.18 12.7747C12.074 12.8807 12.006 12.948 11.9507 12.9967C11.9231 13.0232 11.8919 13.0457 11.858 13.0633L12.1233 13.6747ZM11.4213 13.71C11.6519 13.7836 11.9013 13.771 12.1233 13.6747L11.858 13.0633C11.7841 13.0951 11.7013 13.0992 11.6247 13.0747L11.4213 13.71ZM10.8533 13.3353C10.9627 13.4247 11.0567 13.502 11.1393 13.5607C11.2247 13.6213 11.3147 13.676 11.4213 13.71L11.6247 13.0747C11.5892 13.0606 11.556 13.0415 11.526 13.018C11.4407 12.9543 11.3573 12.888 11.276 12.8193L10.8533 13.3353ZM10.1947 12.8607C10.2067 12.862 10.2533 12.874 10.372 12.9567C10.4887 13.0373 10.6367 13.158 10.8533 13.3353L11.276 12.8193C11.0673 12.6493 10.896 12.5087 10.7527 12.4087C10.6127 12.3113 10.458 12.2233 10.2833 12.2L10.1947 12.8607ZM9.88533 12.9887C9.92102 12.9419 9.96844 12.9055 10.0228 12.883C10.0771 12.8605 10.1364 12.8528 10.1947 12.8607L10.2833 12.2C10.1085 12.1765 9.93061 12.1996 9.76763 12.2671C9.60465 12.3345 9.46241 12.4438 9.35533 12.584L9.88533 12.9887ZM9.75533 13.7907C9.78333 13.5113 9.802 13.322 9.82733 13.182C9.85333 13.0393 9.87733 12.9987 9.88533 12.9887L9.35533 12.584C9.24867 12.724 9.202 12.896 9.17133 13.064C9.14067 13.2353 9.118 13.456 9.09133 13.724L9.75533 13.7907ZM9.618 14.4573C9.66933 14.3573 9.69467 14.2553 9.712 14.152C9.72933 14.052 9.74133 13.9307 9.75533 13.7907L9.09133 13.724C9.08207 13.8304 9.07029 13.9364 9.05467 14.042C9.05012 14.0797 9.04024 14.1165 9.02533 14.1513L9.618 14.4573ZM9.09733 14.9287C9.32217 14.8397 9.50714 14.6722 9.618 14.4573L9.02533 14.1513C8.98848 14.223 8.9269 14.2789 8.852 14.3087L9.09733 14.9287ZM8.42067 14.9987C8.56133 14.9987 8.68333 14.9987 8.78467 14.992C8.88867 14.9853 8.99333 14.97 9.09733 14.9287L8.852 14.3087C8.81571 14.32 8.778 14.326 8.74 14.3267C8.66667 14.332 8.57 14.332 8.42 14.332L8.42067 14.9987ZM7.578 14.9987H8.42067L8.42 14.332H7.578V14.9987ZM6.90133 14.9287C7.006 14.97 7.11 14.9853 7.21467 14.992C7.31533 14.9987 7.43733 14.9987 7.578 14.9987V14.332C7.42867 14.332 7.33267 14.332 7.25867 14.3267C7.22067 14.326 7.18296 14.32 7.14667 14.3087L6.90133 14.9287ZM6.38067 14.4573C6.49153 14.6722 6.6765 14.8397 6.90133 14.9287L7.14667 14.3087C7.07177 14.2789 7.01019 14.223 6.97333 14.1513L6.38067 14.4573ZM6.24333 13.7907C6.25667 13.9316 6.27089 14.052 6.286 14.152C6.30333 14.2553 6.32933 14.3573 6.38067 14.4573L6.97333 14.1513C6.95842 14.1165 6.94855 14.0797 6.944 14.042C6.92839 13.9366 6.91594 13.8308 6.90667 13.7247L6.24333 13.7907ZM6.11333 12.9887C6.12133 12.9987 6.14533 13.0393 6.17133 13.182C6.19667 13.322 6.21533 13.512 6.24333 13.7907L6.90667 13.7247C6.88 13.4573 6.858 13.236 6.82733 13.064C6.79733 12.896 6.75067 12.7247 6.64333 12.584L6.11333 12.9887ZM5.804 12.8607C5.86227 12.8528 5.92157 12.8605 5.9759 12.883C6.03023 12.9055 6.07764 12.9419 6.11333 12.9887L6.64333 12.584C6.53633 12.4437 6.39412 12.3349 6.23114 12.2673C6.06816 12.1998 5.8902 12.1766 5.71533 12.2L5.804 12.8607ZM5.14533 13.336C5.362 13.158 5.51 13.0373 5.62667 12.9567C5.746 12.874 5.792 12.862 5.804 12.8607L5.71533 12.2C5.54067 12.2233 5.38667 12.3113 5.246 12.4093C5.10267 12.5087 4.93133 12.6493 4.72267 12.82L5.14533 13.336ZM4.57733 13.71C4.684 13.676 4.774 13.622 4.85933 13.5613C4.942 13.5027 5.036 13.4253 5.14533 13.336L4.72267 12.82C4.64133 12.8885 4.55796 12.9545 4.47267 13.018C4.44265 13.0415 4.40942 13.0606 4.374 13.0747L4.57733 13.71ZM3.87533 13.676C4.09743 13.7721 4.34685 13.7838 4.57733 13.71L4.374 13.0747C4.2974 13.0992 4.21453 13.0951 4.14067 13.0633L3.87533 13.676ZM3.34733 13.246C3.44733 13.346 3.53333 13.4327 3.60933 13.4993C3.688 13.568 3.77267 13.6313 3.87533 13.676L4.14067 13.0633C4.10675 13.0457 4.07554 13.0232 4.048 12.9967C3.96936 12.925 3.89288 12.8509 3.81867 12.7747L3.34733 13.246ZM2.752 12.6507L3.34733 13.246L3.81867 12.7747L3.22333 12.1793L2.752 12.6507ZM2.32267 12.1227C2.36733 12.2253 2.43 12.3093 2.49933 12.3887C2.566 12.4647 2.65267 12.5507 2.752 12.6507L3.22333 12.1793C3.14684 12.1051 3.07258 12.0287 3.00067 11.95C2.97413 11.9225 2.95168 11.8913 2.934 11.8573L2.32267 12.1227ZM2.288 11.4207C2.21423 11.6512 2.22655 11.9006 2.32267 12.1227L2.934 11.8573C2.90198 11.7836 2.89838 11.7007 2.92267 11.624L2.288 11.4207ZM2.662 10.8527C2.57267 10.962 2.49533 11.056 2.43667 11.1387C2.37235 11.2241 2.32216 11.3193 2.288 11.4207L2.92267 11.624C2.93696 11.5885 2.95627 11.5553 2.98 11.5253C3.02267 11.4653 3.08333 11.3907 3.178 11.2753L2.662 10.8527ZM3.13733 10.194C3.13533 10.206 3.124 10.252 3.04133 10.3713C2.96 10.488 2.84 10.636 2.662 10.8527L3.178 11.2753C3.34867 11.0667 3.48933 10.8953 3.58867 10.752C3.68667 10.612 3.77467 10.4573 3.798 10.2827L3.13733 10.194ZM3.00933 9.88467C3.05605 9.92036 3.0925 9.96777 3.11498 10.0221C3.13746 10.0764 3.14517 10.1357 3.13733 10.194L3.798 10.2827C3.82145 10.1078 3.79821 9.92984 3.73065 9.76686C3.66309 9.60388 3.55362 9.46167 3.41333 9.35467L3.00933 9.88467ZM2.20733 9.75533C2.48667 9.78267 2.676 9.80133 2.816 9.82667C2.95867 9.85267 2.99933 9.87667 3.00933 9.88467L3.41333 9.354C3.27333 9.24733 3.102 9.20067 2.93333 9.17067C2.762 9.14 2.54133 9.11733 2.27333 9.09067L2.20733 9.75533ZM1.54067 9.61733C1.64067 9.66867 1.74267 9.694 1.846 9.71133C1.946 9.72867 2.06667 9.74133 2.20733 9.75533L2.274 9.09133C2.16765 9.08207 2.0616 9.06962 1.956 9.054C1.91835 9.04945 1.88154 9.03958 1.84667 9.02467L1.54067 9.61733ZM1.06933 9.096C1.15819 9.32108 1.32565 9.50631 1.54067 9.61733L1.84667 9.02467C1.77499 8.98781 1.7191 8.92623 1.68933 8.85133L1.06933 9.096ZM1 8.42133C1 8.562 1 8.684 1.00667 8.78533C1.01098 8.89205 1.03236 8.99738 1.07 9.09733L1.69 8.85267C1.67871 8.81638 1.67265 8.77867 1.672 8.74067C1.66702 8.63408 1.66524 8.52736 1.66667 8.42067L1 8.42133ZM1 7.57867V8.42133H1.66667V7.57867H1ZM1.07 6.902C1.03222 7.00237 1.01084 7.10817 1.00667 7.21533C1 7.316 1 7.438 1 7.57867H1.66667C1.66667 7.42933 1.66667 7.33333 1.672 7.25933C1.67265 7.22133 1.67871 7.18362 1.69 7.14733L1.07 6.902ZM1.54133 6.38133C1.32644 6.4922 1.15899 6.67717 1.07 6.902L1.69 7.14733C1.71976 7.07243 1.77566 7.01086 1.84733 6.974L1.54133 6.38133ZM2.208 6.24333C2.06711 6.25667 1.94667 6.27156 1.84667 6.28667C1.74047 6.30165 1.63738 6.33361 1.54133 6.38133L1.84733 6.974C1.86067 6.96733 1.88733 6.956 1.95667 6.94467C2.03 6.932 2.12533 6.92267 2.274 6.90733L2.208 6.24333ZM3.01 6.114C3 6.122 2.95933 6.146 2.81667 6.172C2.67667 6.19733 2.48733 6.21533 2.208 6.24333L2.274 6.90733C2.54133 6.88067 2.76333 6.85867 2.93467 6.828C3.10333 6.798 3.27467 6.75133 3.41467 6.644L3.01 6.114ZM3.138 5.80467C3.14584 5.86294 3.13813 5.92224 3.11565 5.97657C3.09317 6.03089 3.05672 6.07831 3.01 6.114L3.41467 6.644C3.55483 6.53692 3.66417 6.39468 3.73161 6.2317C3.79905 6.06872 3.82219 5.89014 3.79867 5.71533L3.138 5.80467ZM2.66267 5.14533C2.84067 5.36267 2.96133 5.51067 3.04267 5.62733C3.12533 5.74667 3.136 5.79267 3.138 5.80467L3.79867 5.71533C3.77533 5.54067 3.68733 5.38733 3.58933 5.24667C3.49 5.10333 3.34933 4.932 3.17867 4.72333L2.66267 5.14533ZM2.28867 4.57733C2.322 4.684 2.37667 4.77467 2.43733 4.86C2.496 4.942 2.57333 5.03667 2.66267 5.14533L3.17867 4.72333C3.11018 4.64177 3.04415 4.55818 2.98067 4.47267C2.95699 4.44289 2.93769 4.40989 2.92333 4.37467L2.28867 4.57733ZM2.32333 3.876C2.22738 4.0979 2.21507 4.34705 2.28867 4.57733L2.92333 4.37467C2.89905 4.29799 2.90331 4.21512 2.93533 4.14133L2.32333 3.876ZM2.75267 3.348C2.65267 3.44733 2.566 3.53333 2.49933 3.61C2.42681 3.68868 2.36739 3.77849 2.32333 3.876L2.93533 4.14133C2.95306 4.10765 2.97551 4.07601 3.002 4.04867C3.07336 3.96971 3.14741 3.89322 3.224 3.81933L2.75267 3.348ZM3.348 2.752L2.75267 3.348L3.224 3.81933L3.81933 3.22333L3.348 2.752ZM3.876 2.32333C3.77849 2.36739 3.68868 2.42681 3.61 2.49933C3.534 2.566 3.44733 2.652 3.348 2.752L3.81933 3.22333C3.92533 3.118 3.99333 3.05 4.04867 3.00133C4.102 2.95467 4.12733 2.94133 4.14133 2.93467L3.876 2.32333ZM4.578 2.288C4.34743 2.21444 4.09801 2.227 3.876 2.32333L4.14133 2.93467C4.21512 2.90265 4.29799 2.89905 4.37467 2.92333L4.578 2.288ZM5.146 2.66267C5.03667 2.57333 4.94267 2.496 4.86 2.43733C4.7746 2.37278 4.67939 2.32236 4.578 2.288L4.37467 2.92333C4.41009 2.93742 4.44331 2.95651 4.47333 2.98C4.53333 3.02333 4.608 3.084 4.724 3.17867L5.146 2.66267ZM5.80467 3.138C5.79267 3.136 5.74667 3.12467 5.62733 3.042C5.46246 2.92105 5.30191 2.79497 5.146 2.66267L4.724 3.17867C4.932 3.34933 5.104 3.49 5.24667 3.58933C5.38667 3.68667 5.54133 3.77467 5.716 3.79867L5.80467 3.138ZM6.114 3.00933C6.07838 3.05617 6.031 3.09275 5.97667 3.11535C5.92234 3.13795 5.863 3.14577 5.80467 3.138L5.716 3.79867C5.89091 3.82231 6.06896 3.79857 6.23207 3.73113C6.39518 3.66368 6.53753 3.55427 6.64467 3.414L6.114 3.00933ZM6.244 2.208C6.216 2.48667 6.19733 2.67667 6.172 2.816C6.146 2.95867 6.122 2.99933 6.114 3.00933L6.64467 3.414C6.75133 3.274 6.798 3.10267 6.828 2.934C6.85867 2.76267 6.88133 2.542 6.908 2.274L6.244 2.208ZM6.38133 1.54133C6.33 1.64133 6.304 1.74333 6.28667 1.84667C6.27 1.94667 6.258 2.06733 6.244 2.208L6.90733 2.27467C6.91659 2.16832 6.92904 2.06227 6.94467 1.95667C6.94921 1.91902 6.95909 1.8822 6.974 1.84733L6.38133 1.54133ZM6.90267 1.07C6.67747 1.15902 6.49223 1.32607 6.38133 1.54133L6.974 1.84733C7.01086 1.77566 7.07243 1.71976 7.14733 1.69L6.90267 1.07ZM7.57867 1C7.438 1 7.316 1 7.21467 1.00667C7.10795 1.01098 7.00262 1.03236 6.90267 1.07L7.14733 1.69C7.18362 1.67871 7.22133 1.67265 7.25933 1.672C7.33267 1.66667 7.42933 1.66667 7.57933 1.66667L7.57867 1ZM8.42133 1H7.57867V1.66667H8.42133V1ZM9.098 1.07C8.99763 1.03222 8.89183 1.01084 8.78467 1.00667C8.684 1 8.562 1 8.42133 1V1.66667C8.57067 1.66667 8.66667 1.66667 8.74067 1.672C8.77867 1.67265 8.81638 1.67871 8.85267 1.69L9.098 1.07ZM9.61867 1.54133C9.50764 1.32632 9.32241 1.15886 9.09733 1.07L8.85267 1.69C8.92756 1.71976 8.98914 1.77566 9.026 1.84733L9.61867 1.54133ZM10.3333 7.99933C10.3333 8.61817 10.0875 9.21166 9.64991 9.64925C9.21233 10.0868 8.61884 10.3327 8 10.3327V10.9993C8.79565 10.9993 9.55871 10.6833 10.1213 10.1207C10.6839 9.55804 11 8.79498 11 7.99933H10.3333ZM8 5.666C8.61884 5.666 9.21233 5.91183 9.64991 6.34942C10.0875 6.787 10.3333 7.38049 10.3333 7.99933H11C11 7.20368 10.6839 6.44062 10.1213 5.87801C9.55871 5.3154 8.79565 4.99933 8 4.99933V5.666ZM5.66667 7.99933C5.66667 7.38049 5.9125 6.787 6.35008 6.34942C6.78767 5.91183 7.38116 5.666 8 5.666V4.99933C7.20435 4.99933 6.44129 5.3154 5.87868 5.87801C5.31607 6.44062 5 7.20368 5 7.99933H5.66667ZM8 10.3327C7.38116 10.3327 6.78767 10.0868 6.35008 9.64925C5.9125 9.21166 5.66667 8.61817 5.66667 7.99933H5C5 8.79498 5.31607 9.55804 5.87868 10.1207C6.44129 10.6833 7.20435 10.9993 8 10.9993V10.3327Z" fill="#666666"/>
<path d="M9.424 2.24L9.756 2.20667M9.756 2.20667C9.77282 2.41034 9.79616 2.61336 9.82733 2.81533C9.85333 2.958 9.87733 2.99867 9.88533 3.00867M9.756 2.20667L9.092 2.27267M9.32267 1.69333L9.026 1.84667M9.62067 3.21133L9.886 3.00933M10.24 3.46733L10.1953 3.13733M11.0653 2.92067L11.2767 3.178M11.5233 2.60533L11.6247 2.92267M11.9913 2.62867L12.124 2.32267M12.416 2.98733L12.1807 3.22333M13.012 3.58333L13.2473 3.34733M13.3707 4.008L13.6767 3.87533M13.394 4.476L13.7113 4.57733M13.0793 4.934L12.8213 4.72267M12.5313 5.76L12.2013 5.71533M12.788 6.37867L12.586 6.64333M13.7593 6.57533L13.7927 6.24333M14.306 6.67667L14.4587 6.38067M14.6193 7.024L14.93 6.90133M14.62 8.97467L14.31 8.852M14.3053 9.32133L14.4587 9.618M13.7587 9.42333L13.7253 9.092L13.7153 9.09267L13.704 9.09467L13.7587 9.42333ZM13.7587 9.42333L13.792 9.75533L13.8033 9.754L13.814 9.752L13.7587 9.42333ZM12.788 9.62L12.586 9.35467M12.532 10.2393L12.2013 10.2833M12.2013 10.2833L12.8613 10.194M12.2013 10.2833C12.2247 10.458 12.3127 10.6113 12.41 10.752C12.51 10.8947 12.65 11.0667 12.8207 11.2747M13.0793 11.0647L12.8213 11.2753M13.394 11.5227L13.076 11.624M13.3707 11.9907L13.0647 11.858M13.012 12.4153L13.248 12.6507M12.416 13.0107L12.1807 12.7753M11.9913 13.3693L12.1247 13.676M11.5233 13.3927L11.422 13.7107M11.0653 13.078L11.2767 12.82L11.2733 12.818L11.0653 13.078ZM11.0653 13.078L10.854 13.336L10.8573 13.3387L11.0653 13.078ZM10.24 12.5313L10.284 12.2007M9.62067 12.7873L9.886 12.9893M9.424 13.758L9.09267 13.7247M9.32267 14.3047L9.026 14.152M8.97533 14.6193L8.85267 14.3093M7.02467 14.6193L7.14733 14.3093M6.678 14.3047L6.974 14.152M6.576 13.758L6.244 13.7913M6.37933 12.7873L6.114 12.9893M5.76067 12.5313L5.716 12.2007M4.93467 13.078L4.72333 12.8207L4.71867 12.8247L4.71333 12.8293L4.93467 13.078ZM4.93467 13.078L5.146 13.3367L5.15133 13.332L5.156 13.328L4.93467 13.078ZM4.47667 13.3933L4.578 13.7107M4.00867 13.37L3.87533 13.676M3.87533 13.676C4.09743 13.7721 4.34685 13.7838 4.57733 13.71M3.87533 13.676L4.14067 13.0633M3.87533 13.676C3.77267 13.6313 3.688 13.568 3.60933 13.4993C3.53333 13.4327 3.44733 13.346 3.34733 13.246M3.584 13.0113L3.81933 12.7753M2.988 12.4153L2.75267 12.6513M2.62933 11.9907L2.93533 11.8587M2.606 11.5227L2.92333 11.624M2.92067 11.0647L3.17867 11.276M3.468 10.2387L3.79867 10.2833M3.212 9.62L3.414 9.35533M2.24067 9.42333L2.20733 9.75533M2.20733 9.75533C2.48667 9.78267 2.676 9.80133 2.816 9.82667C2.95867 9.85267 2.99933 9.87667 3.00933 9.88467M2.20733 9.75533L2.27333 9.09067C2.54133 9.11733 2.762 9.14 2.93333 9.17067C3.102 9.20067 3.27333 9.24733 3.41333 9.354L3.00933 9.88467M2.20733 9.75533C2.06667 9.74133 1.946 9.72867 1.846 9.71133C1.74267 9.694 1.64067 9.66867 1.54067 9.61733M2.20733 9.75533L2.274 9.09133C2.16765 9.08207 2.0616 9.06962 1.956 9.054C1.91835 9.04945 1.88154 9.03958 1.84667 9.02467M1.694 9.322L1.84733 9.02533M1.38067 8.97467L1.07 9.09733M1.07 9.09733C1.03236 8.99738 1.01098 8.89205 1.00667 8.78533C1 8.684 1 8.562 1 8.42133M1.07 9.09733L1.69 8.85267C1.67871 8.81638 1.67265 8.77867 1.672 8.74067C1.66702 8.63408 1.66524 8.52736 1.66667 8.42067L1 8.42133M1.38067 7.024L1.07 6.90133M1.694 6.67733L1.54133 6.38067M2.24067 6.57533V6.242H2.22467L2.208 6.24333M2.24067 6.57533L2.208 6.24333M2.24067 6.57533V6.90867H2.25733L2.274 6.90667L2.24067 6.57533ZM2.208 6.24333C2.06711 6.25667 1.94667 6.27156 1.84667 6.28667C1.74047 6.30165 1.63738 6.33361 1.54133 6.38133M2.208 6.24333L2.274 6.90733M2.208 6.24333C2.48733 6.21533 2.67667 6.19733 2.81667 6.172C2.95933 6.146 3 6.122 3.01 6.114M3.212 6.37867L3.01 6.11333M3.46867 5.76L3.79867 5.71533M3.79867 5.71533C3.82219 5.89014 3.79905 6.06872 3.73161 6.2317C3.66417 6.39468 3.55483 6.53692 3.41467 6.644M3.79867 5.71533L3.138 5.80467M3.79867 5.71533C3.77533 5.54067 3.68733 5.38733 3.58933 5.24667C3.49 5.10333 3.34933 4.932 3.17867 4.72333M2.92 4.93267L3.178 4.722M2.60533 4.47467L2.92267 4.37333M2.62867 4.00667L2.32267 3.87467M2.98733 3.582L3.22333 3.818M3.58333 2.98667L3.34733 2.75067M4.008 2.628L3.87533 2.32133M4.476 2.60467L4.57733 2.28667M4.934 2.91933L5.14533 2.66133M5.75933 3.46667L5.804 3.13667M6.37933 3.21L6.11333 3.008M6.57533 2.23933L6.90667 2.27267M6.67667 1.69267L6.38067 1.54067M7.024 1.37867L7.14667 1.68867M8.97467 1.37867L9.09733 1.06867M9.092 2.27267C9.07667 2.124 9.06733 2.02867 9.05467 1.95533C9.04333 1.886 9.032 1.85933 9.02533 1.846L9.618 1.54C9.66572 1.63604 9.69769 1.73914 9.71267 1.84533C9.73077 1.96527 9.74478 2.08578 9.75467 2.20667L9.092 2.27267ZM9.092 2.27267C9.11867 2.54 9.14067 2.76133 9.17133 2.93333C9.20133 3.10133 9.248 3.27267 9.35533 3.41333L9.88533 3.00867M9.88533 3.00867C9.92102 3.05539 9.96844 3.09184 10.0228 3.11432C10.0771 3.1368 10.1364 3.14451 10.1947 3.13667M9.88533 3.00867L9.35467 3.41267C9.46172 3.55306 9.60404 3.6626 9.76716 3.73016C9.93027 3.79773 10.1084 3.8209 10.2833 3.79733M10.1947 3.13667L10.2833 3.79733M10.1947 3.13667C10.2067 3.13467 10.2527 3.12333 10.372 3.04067C10.4887 2.96 10.6367 2.83933 10.8533 2.66133M10.2833 3.79733C10.458 3.774 10.612 3.686 10.7527 3.588C10.896 3.488 11.0673 3.348 11.276 3.17733M10.8533 2.66133L11.276 3.17733M10.8533 2.66133C10.9627 2.572 11.0567 2.49467 11.1393 2.436C11.2247 2.37533 11.3147 2.32133 11.4213 2.28733M11.276 3.17733C11.3913 3.08267 11.466 3.022 11.526 2.97933C11.556 2.9556 11.5892 2.9363 11.6247 2.922M11.4213 2.28733L11.6247 2.922M11.4213 2.28733C11.6518 2.21357 11.9012 2.22588 12.1233 2.322M11.6247 2.922C11.7013 2.89772 11.7842 2.90198 11.858 2.934M12.1233 2.322L11.858 2.934M12.1233 2.322C12.2208 2.36606 12.3107 2.42548 12.3893 2.498C12.4653 2.56467 12.5513 2.65133 12.6513 2.75133M11.858 2.934C11.872 2.94 11.8973 2.954 11.9507 3.00067C12.006 3.04867 12.074 3.11667 12.18 3.22267M12.6513 2.75133L12.18 3.22267M12.6513 2.75133L13.2467 3.34667M12.18 3.22267L12.7753 3.818M13.2467 3.34667L12.7753 3.818M13.2467 3.34667C13.346 3.44667 13.4327 3.53267 13.4993 3.60867C13.5721 3.6873 13.6317 3.77711 13.676 3.87467M12.7753 3.818C12.8813 3.924 12.9487 3.992 12.998 4.04733C13.0447 4.10067 13.058 4.126 13.064 4.14M13.676 3.87467L13.064 4.14M13.676 3.87467C13.7721 4.09676 13.7844 4.34618 13.7107 4.57667M13.064 4.14C13.0958 4.21386 13.0998 4.29673 13.0753 4.37333M13.7107 4.57667L13.0753 4.37333M13.7107 4.57667C13.6767 4.68333 13.622 4.77333 13.562 4.85867C13.5033 4.94133 13.426 5.03533 13.3367 5.14467M13.0753 4.37333C13.0612 4.40875 13.0422 4.44198 13.0187 4.472C12.9552 4.55729 12.8891 4.64066 12.8207 4.722M13.3367 5.14467L12.8207 4.722M13.3367 5.14467C13.1587 5.36133 13.038 5.50933 12.9573 5.626C12.8747 5.74533 12.8633 5.79133 12.8613 5.80333M12.8207 4.722C12.65 4.93067 12.5093 5.102 12.41 5.24533C12.312 5.38533 12.224 5.54 12.2007 5.71467M12.8613 5.80333L12.2007 5.71467M12.8613 5.80333C12.8535 5.8616 12.8612 5.92091 12.8837 5.97523C12.9062 6.02956 12.9426 6.07698 12.9893 6.11267M12.2007 5.71467C12.1772 5.88953 12.2005 6.06749 12.268 6.23047C12.3356 6.39346 12.4451 6.53567 12.5853 6.64267M12.9893 6.11267L12.5853 6.64267M12.9893 6.11267C12.9993 6.12067 13.04 6.14467 13.1827 6.17067C13.3227 6.196 13.512 6.21467 13.7913 6.24267M12.5853 6.64267C12.7253 6.74933 12.8967 6.796 13.0653 6.82667C13.2367 6.85733 13.4573 6.88 13.7253 6.90667L13.7913 6.24267M13.7913 6.24267C13.9313 6.25667 14.0527 6.26867 14.1527 6.28533C14.2589 6.30031 14.362 6.33228 14.458 6.38M13.7913 6.24267L13.7247 6.906C13.874 6.92133 13.9693 6.93067 14.0427 6.94333C14.0803 6.94788 14.1171 6.95776 14.152 6.97267M14.458 6.38L14.152 6.97267M14.458 6.38C14.6729 6.49086 14.8403 6.67583 14.9293 6.90067M14.152 6.97267C14.2237 7.00952 14.2796 7.0711 14.3093 7.146M14.9293 6.90067L14.3093 7.146M14.9293 6.90067C14.967 7.00083 14.9884 7.10639 14.9927 7.21333C14.9993 7.31467 14.9993 7.43667 14.9993 7.57733M14.3093 7.146C14.3147 7.16 14.3227 7.188 14.3273 7.258C14.3323 7.36459 14.3341 7.4713 14.3327 7.578L14.9993 7.57733M14.9993 7.57733V8.42M14.9993 7.57733H14.3327V8.42M14.9993 8.42H14.3327M14.9993 8.42C14.9993 8.56067 14.9993 8.68267 14.9927 8.78333C14.986 8.888 14.9707 8.992 14.9293 9.096M14.3327 8.42C14.3327 8.56933 14.3327 8.66533 14.3273 8.73933C14.3267 8.77733 14.3206 8.81504 14.3093 8.85133M14.9293 9.096L14.3093 8.85133M14.9293 9.096C14.8405 9.32108 14.673 9.50631 14.458 9.61733L14.152 9.02467M14.3093 8.85133C14.2796 8.92623 14.2237 8.98781 14.152 9.02467M14.152 9.02467L14.4573 9.618C14.358 9.66867 14.256 9.69467 14.1527 9.71133C14.0533 9.728 13.9313 9.74067 13.7913 9.75467M14.152 9.02467C14.1171 9.03958 14.0803 9.04945 14.0427 9.054C13.9693 9.06667 13.874 9.076 13.7253 9.09133M13.7913 9.75467L13.7253 9.09133M13.7913 9.75467C13.5127 9.782 13.3233 9.80133 13.1833 9.82667C13.0407 9.852 13 9.87667 12.99 9.88467M13.7253 9.09133C13.458 9.118 13.2367 9.13933 13.0647 9.17067C12.8967 9.20067 12.726 9.24733 12.5853 9.354M13.8133 9.75133L13.7033 9.094M12.99 9.88467L12.5853 9.354M12.99 9.88467C12.9432 9.92028 12.9066 9.96766 12.884 10.022C12.8614 10.0763 12.8536 10.1357 12.8613 10.194M12.5853 9.354C12.4449 9.46106 12.3354 9.60338 12.2678 9.76649C12.2003 9.9296 12.1771 10.1077 12.2007 10.2827L12.8613 10.194M12.8613 10.194C12.8633 10.206 12.8747 10.2527 12.9573 10.3713C13.0781 10.5362 13.2046 10.6967 13.3367 10.8527M13.3367 10.8527L12.8207 11.2747M13.3367 10.8527C13.4146 10.9455 13.4898 11.0406 13.562 11.138C13.6264 11.2236 13.6766 11.3191 13.7107 11.4207M12.8207 11.2747C12.9153 11.3907 12.976 11.4647 13.0187 11.5253C13.0421 11.5551 13.0612 11.5881 13.0753 11.6233M13.7107 11.4207L13.0753 11.6233M13.7107 11.4207C13.7844 11.6512 13.7721 11.9006 13.676 12.1227M13.0753 11.6233C13.1 11.7001 13.096 11.7833 13.064 11.8573M13.676 12.1227L13.064 11.8573M13.676 12.1227C13.6313 12.226 13.5687 12.3093 13.4993 12.3887C13.4327 12.4647 13.3467 12.5507 13.2473 12.65M13.064 11.8573C13.0463 11.891 13.0238 11.922 12.9973 11.9493C12.9256 12.028 12.8516 12.1045 12.7753 12.1787M13.2473 12.65L12.7753 12.1787M13.2473 12.65L12.6513 13.246L12.18 12.7747M12.7753 12.1787L12.18 12.7747M12.18 12.7747L12.6513 13.2453C12.5513 13.3453 12.4653 13.432 12.3893 13.4987C12.31 13.568 12.226 13.63 12.1233 13.6747M12.18 12.7747C12.074 12.8807 12.006 12.948 11.9507 12.9967C11.9231 13.0232 11.8919 13.0457 11.858 13.0633M12.1233 13.6747L11.858 13.0633M12.1233 13.6747C11.9013 13.771 11.6519 13.7836 11.4213 13.71M11.858 13.0633C11.7841 13.0951 11.7013 13.0992 11.6247 13.0747M11.4213 13.71L11.6247 13.0747M11.4213 13.71C11.3147 13.676 11.2247 13.6213 11.1393 13.5607C11.0567 13.502 10.9627 13.4247 10.8533 13.3353M11.6247 13.0747C11.5892 13.0606 11.556 13.0415 11.526 13.018C11.4407 12.9543 11.3573 12.888 11.276 12.8193M10.8533 13.3353L11.276 12.8193M10.8533 13.3353C10.6367 13.158 10.4887 13.0373 10.372 12.9567C10.2533 12.874 10.2067 12.862 10.1947 12.8607M11.276 12.8193C11.0673 12.6493 10.896 12.5087 10.7527 12.4087C10.6127 12.3113 10.458 12.2233 10.2833 12.2M10.8567 13.338L11.2727 12.8173M10.1947 12.8607L10.2833 12.2M10.1947 12.8607C10.1364 12.8528 10.0771 12.8605 10.0228 12.883C9.96844 12.9055 9.92102 12.9419 9.88533 12.9887M10.2833 12.2C10.1085 12.1765 9.93061 12.1996 9.76763 12.2671C9.60465 12.3345 9.46241 12.4438 9.35533 12.584M9.88533 12.9887L9.35533 12.584M9.88533 12.9887C9.87733 12.9987 9.85333 13.0393 9.82733 13.182C9.802 13.322 9.78333 13.5113 9.75533 13.7907M9.35533 12.584C9.24867 12.724 9.202 12.896 9.17133 13.064C9.14067 13.2353 9.118 13.456 9.09133 13.724M9.75533 13.7907L9.09133 13.724M9.75533 13.7907C9.74133 13.9307 9.72933 14.052 9.712 14.152C9.69467 14.2553 9.66933 14.3573 9.618 14.4573M9.09133 13.724C9.08207 13.8304 9.07029 13.9364 9.05467 14.042C9.05012 14.0797 9.04024 14.1165 9.02533 14.1513M9.618 14.4573L9.02533 14.1513M9.618 14.4573C9.50714 14.6722 9.32217 14.8397 9.09733 14.9287M9.02533 14.1513C8.98848 14.223 8.9269 14.2789 8.852 14.3087M9.09733 14.9287L8.852 14.3087M9.09733 14.9287C8.99333 14.97 8.88867 14.9853 8.78467 14.992C8.68333 14.9987 8.56133 14.9987 8.42067 14.9987M8.852 14.3087C8.81571 14.32 8.778 14.326 8.74 14.3267C8.66667 14.332 8.57 14.332 8.42 14.332M8.42067 14.9987L8.42 14.332M8.42067 14.9987H7.578M8.42 14.332H7.578M7.578 14.9987V14.332M7.578 14.9987C7.43733 14.9987 7.31533 14.9987 7.21467 14.992C7.11 14.9853 7.006 14.97 6.90133 14.9287M7.578 14.332C7.42867 14.332 7.33267 14.332 7.25867 14.3267C7.22067 14.326 7.18296 14.32 7.14667 14.3087M6.90133 14.9287L7.14667 14.3087M6.90133 14.9287C6.6765 14.8397 6.49153 14.6722 6.38067 14.4573M7.14667 14.3087C7.07177 14.2789 7.01019 14.223 6.97333 14.1513M6.38067 14.4573L6.97333 14.1513M6.38067 14.4573C6.32933 14.3573 6.30333 14.2553 6.286 14.152C6.27089 14.052 6.25667 13.9316 6.24333 13.7907M6.97333 14.1513C6.95842 14.1165 6.94855 14.0797 6.944 14.042C6.92839 13.9366 6.91594 13.8308 6.90667 13.7247M6.24333 13.7907L6.90667 13.7247M6.24333 13.7907C6.21533 13.512 6.19667 13.322 6.17133 13.182C6.14533 13.0393 6.12133 12.9987 6.11333 12.9887M6.90667 13.7247C6.88 13.4573 6.858 13.236 6.82733 13.064C6.79733 12.896 6.75067 12.7247 6.64333 12.584M6.11333 12.9887L6.64333 12.584M6.11333 12.9887C6.07764 12.9419 6.03023 12.9055 5.9759 12.883C5.92157 12.8605 5.86227 12.8528 5.804 12.8607M6.64333 12.584C6.53633 12.4437 6.39412 12.3349 6.23114 12.2673C6.06816 12.1998 5.8902 12.1766 5.71533 12.2M5.804 12.8607L5.71533 12.2M5.804 12.8607C5.792 12.862 5.746 12.874 5.62667 12.9567C5.51 13.0373 5.362 13.158 5.14533 13.336M5.71533 12.2C5.54067 12.2233 5.38667 12.3113 5.246 12.4093C5.10267 12.5087 4.93133 12.6493 4.72267 12.82M5.14533 13.336L4.72267 12.82M5.14533 13.336C5.036 13.4253 4.942 13.5027 4.85933 13.5613C4.774 13.622 4.684 13.676 4.57733 13.71M4.72267 12.82C4.64133 12.8885 4.55795 12.9545 4.47267 13.018C4.44265 13.0415 4.40942 13.0606 4.374 13.0747M5.15533 13.3273L4.71267 12.8287M4.57733 13.71L4.374 13.0747M4.374 13.0747C4.2974 13.0992 4.21453 13.0951 4.14067 13.0633M4.14067 13.0633C4.10675 13.0457 4.07554 13.0232 4.048 12.9967C3.96936 12.925 3.89288 12.8509 3.81867 12.7747M3.34733 13.246L3.81867 12.7747M3.34733 13.246L2.752 12.6507M3.81867 12.7747L3.22333 12.1793M2.752 12.6507L3.22333 12.1793M2.752 12.6507C2.65267 12.5507 2.566 12.4647 2.49933 12.3887C2.43 12.3093 2.36733 12.2253 2.32267 12.1227M3.22333 12.1793C3.14684 12.1051 3.07258 12.0287 3.00067 11.95C2.97413 11.9225 2.95168 11.8913 2.934 11.8573M2.32267 12.1227L2.934 11.8573M2.32267 12.1227C2.22655 11.9006 2.21423 11.6512 2.288 11.4207M2.934 11.8573C2.90198 11.7836 2.89838 11.7007 2.92267 11.624M2.288 11.4207L2.92267 11.624M2.288 11.4207C2.32216 11.3193 2.37235 11.2241 2.43667 11.1387C2.49533 11.056 2.57267 10.962 2.662 10.8527M2.92267 11.624C2.93696 11.5885 2.95627 11.5553 2.98 11.5253C3.02267 11.4653 3.08333 11.3907 3.178 11.2753M2.662 10.8527L3.178 11.2753M2.662 10.8527C2.84 10.636 2.96 10.488 3.04133 10.3713C3.124 10.252 3.13533 10.206 3.13733 10.194M3.178 11.2753C3.34867 11.0667 3.48933 10.8953 3.58867 10.752C3.68667 10.612 3.77467 10.4573 3.798 10.2827M3.13733 10.194L3.798 10.2827M3.13733 10.194C3.14517 10.1357 3.13746 10.0764 3.11498 10.0221C3.0925 9.96777 3.05605 9.92036 3.00933 9.88467M3.798 10.2827C3.82145 10.1078 3.79821 9.92984 3.73065 9.76686C3.66309 9.60388 3.55362 9.46167 3.41333 9.35467L3.00933 9.88467M1.54067 9.61733L1.84667 9.02467M1.54067 9.61733C1.32565 9.50631 1.15819 9.32108 1.06933 9.096L1.68933 8.85133C1.7191 8.92623 1.77499 8.98781 1.84667 9.02467M1 8.42133V7.57867M1 8.42133H1.66667V7.57867M1 7.57867H1.66667M1 7.57867C1 7.438 1 7.316 1.00667 7.21533C1.01084 7.10817 1.03222 7.00237 1.07 6.902M1.66667 7.57867C1.66667 7.42933 1.66667 7.33333 1.672 7.25933C1.67265 7.22133 1.67871 7.18362 1.69 7.14733M1.07 6.902L1.69 7.14733M1.07 6.902C1.15899 6.67717 1.32644 6.4922 1.54133 6.38133M1.69 7.14733C1.71976 7.07243 1.77566 7.01086 1.84733 6.974M1.54133 6.38133L1.84733 6.974M1.84733 6.974C1.86067 6.96733 1.88733 6.956 1.95667 6.94467C2.03 6.932 2.12533 6.92267 2.274 6.90733M2.274 6.90733C2.54133 6.88067 2.76333 6.85867 2.93467 6.828C3.10333 6.798 3.27467 6.75133 3.41467 6.644M2.24133 6.24267V6.90933M3.01 6.114L3.41467 6.644M3.01 6.114C3.05672 6.07831 3.09317 6.03089 3.11565 5.97657C3.13813 5.92224 3.14584 5.86294 3.138 5.80467M3.138 5.80467C3.136 5.79267 3.12533 5.74667 3.04267 5.62733C2.96133 5.51067 2.84067 5.36267 2.66267 5.14533M2.66267 5.14533L3.17867 4.72333M2.66267 5.14533C2.57333 5.03667 2.496 4.942 2.43733 4.86C2.37667 4.77467 2.322 4.684 2.28867 4.57733M3.17867 4.72333C3.11018 4.64177 3.04415 4.55818 2.98067 4.47267C2.95699 4.44289 2.93769 4.40989 2.92333 4.37467M2.28867 4.57733L2.92333 4.37467M2.28867 4.57733C2.21507 4.34705 2.22738 4.0979 2.32333 3.876M2.92333 4.37467C2.89905 4.29799 2.90331 4.21512 2.93533 4.14133M2.32333 3.876L2.93533 4.14133M2.32333 3.876C2.36739 3.77849 2.42681 3.68868 2.49933 3.61C2.566 3.53333 2.65267 3.44733 2.75267 3.348M2.93533 4.14133C2.95306 4.10765 2.97551 4.07601 3.002 4.04867C3.07336 3.96971 3.14741 3.89322 3.224 3.81933M2.75267 3.348L3.224 3.81933M2.75267 3.348L3.348 2.752M3.224 3.81933L3.81933 3.22333M3.348 2.752L3.81933 3.22333M3.348 2.752C3.44733 2.652 3.534 2.566 3.61 2.49933C3.68868 2.42681 3.77849 2.36739 3.876 2.32333M3.81933 3.22333C3.92533 3.118 3.99333 3.05 4.04867 3.00133C4.102 2.95467 4.12733 2.94133 4.14133 2.93467M3.876 2.32333L4.14133 2.93467M3.876 2.32333C4.09801 2.227 4.34743 2.21444 4.578 2.288M4.14133 2.93467C4.21512 2.90265 4.29799 2.89905 4.37467 2.92333M4.578 2.288L4.37467 2.92333M4.578 2.288C4.67939 2.32236 4.7746 2.37278 4.86 2.43733C4.94267 2.496 5.03667 2.57333 5.146 2.66267M4.37467 2.92333C4.41009 2.93742 4.44331 2.95651 4.47333 2.98C4.53333 3.02333 4.608 3.084 4.724 3.17867M5.146 2.66267L4.724 3.17867M5.146 2.66267C5.30191 2.79497 5.46246 2.92105 5.62733 3.042C5.74667 3.12467 5.79267 3.136 5.80467 3.138M4.724 3.17867C4.932 3.34933 5.104 3.49 5.24667 3.58933C5.38667 3.68667 5.54133 3.77467 5.716 3.79867M5.80467 3.138L5.716 3.79867M5.80467 3.138C5.863 3.14577 5.92234 3.13795 5.97667 3.11535C6.031 3.09275 6.07838 3.05617 6.114 3.00933M5.716 3.79867C5.89091 3.82231 6.06896 3.79857 6.23207 3.73113C6.39518 3.66368 6.53753 3.55427 6.64467 3.414M6.114 3.00933L6.64467 3.414M6.114 3.00933C6.122 2.99933 6.146 2.95867 6.172 2.816C6.19733 2.67667 6.216 2.48667 6.244 2.208M6.64467 3.414C6.75133 3.274 6.798 3.10267 6.828 2.934C6.85867 2.76267 6.88133 2.542 6.908 2.274L6.244 2.208M6.244 2.208C6.258 2.06733 6.27 1.94667 6.28667 1.84667C6.304 1.74333 6.33 1.64133 6.38133 1.54133M6.244 2.208L6.90733 2.27467C6.91659 2.16832 6.92904 2.06227 6.94467 1.95667C6.94921 1.91902 6.95909 1.8822 6.974 1.84733M6.38133 1.54133L6.974 1.84733M6.38133 1.54133C6.49223 1.32607 6.67747 1.15902 6.90267 1.07M6.974 1.84733C7.01086 1.77566 7.07243 1.71976 7.14733 1.69M6.90267 1.07L7.14733 1.69M6.90267 1.07C7.00262 1.03236 7.10795 1.01098 7.21467 1.00667C7.316 1 7.438 1 7.57867 1M7.14733 1.69C7.18362 1.67871 7.22133 1.67265 7.25933 1.672C7.33267 1.66667 7.42933 1.66667 7.57933 1.66667L7.57867 1M7.57867 1H8.42133M7.57867 1V1.66667H8.42133M8.42133 1V1.66667M8.42133 1C8.562 1 8.684 1 8.78467 1.00667C8.89183 1.01084 8.99763 1.03222 9.098 1.07L8.85267 1.69M8.42133 1.66667C8.57067 1.66667 8.66667 1.66667 8.74067 1.672C8.77867 1.67265 8.81638 1.67871 8.85267 1.69M8.85267 1.69L9.09733 1.07C9.32241 1.15886 9.50764 1.32632 9.61867 1.54133L9.026 1.84733C8.98914 1.77566 8.92756 1.71976 8.85267 1.69ZM10.3333 7.99933C10.3333 8.61817 10.0875 9.21166 9.64992 9.64925C9.21233 10.0868 8.61884 10.3327 8 10.3327M10.3333 7.99933H11M10.3333 7.99933C10.3333 7.38049 10.0875 6.787 9.64992 6.34942C9.21233 5.91183 8.61884 5.666 8 5.666M8 10.3327V10.9993M8 10.3327C7.38116 10.3327 6.78767 10.0868 6.35008 9.64925C5.9125 9.21166 5.66667 8.61817 5.66667 7.99933M8 10.9993C8.79565 10.9993 9.55871 10.6833 10.1213 10.1207C10.6839 9.55804 11 8.79498 11 7.99933M8 10.9993C7.20435 10.9993 6.44129 10.6833 5.87868 10.1207C5.31607 9.55804 5 8.79498 5 7.99933M11 7.99933C11 7.20368 10.6839 6.44062 10.1213 5.87801C9.55871 5.3154 8.79565 4.99933 8 4.99933M8 5.666V4.99933M8 5.666C7.38116 5.666 6.78767 5.91183 6.35008 6.34942C5.9125 6.787 5.66667 7.38049 5.66667 7.99933M8 4.99933C7.20435 4.99933 6.44129 5.3154 5.87868 5.87801C5.31607 6.44062 5 7.20368 5 7.99933M5.66667 7.99933H5" stroke="#666666" stroke-width="0.5"/>
</g>
<defs>
<clipPath id="clip0_6_20255">
<rect width="16" height="16" fill="white"/>
</clipPath>
</defs>
</svg>
