<svg width="16" height="16" viewBox="0 0 16 16" fill="none" xmlns="http://www.w3.org/2000/svg">
<path d="M4.00033 14.666C3.63366 14.666 3.31988 14.5356 3.05899 14.2747C2.7981 14.0138 2.66744 13.6998 2.66699 13.3327V6.66602C2.66699 6.29935 2.79766 5.98557 3.05899 5.72468C3.32033 5.46379 3.6341 5.33313 4.00033 5.33268H4.66699V3.99935C4.66699 3.07713 4.9921 2.29113 5.64233 1.64135C6.29255 0.991572 7.07855 0.666461 8.00033 0.666016C8.9221 0.665572 9.70833 0.990683 10.359 1.64135C11.0097 2.29202 11.3345 3.07802 11.3337 3.99935V5.33268H12.0003C12.367 5.33268 12.681 5.46335 12.9423 5.72468C13.2037 5.98602 13.3341 6.29979 13.3337 6.66602V13.3327C13.3337 13.6993 13.2032 14.0133 12.9423 14.2747C12.6814 14.536 12.3674 14.6665 12.0003 14.666H4.00033ZM8.00033 11.3327C8.36699 11.3327 8.68099 11.2022 8.94233 10.9413C9.20366 10.6805 9.3341 10.3665 9.33366 9.99935C9.33321 9.63224 9.20277 9.31846 8.94233 9.05802C8.68188 8.79757 8.36788 8.6669 8.00033 8.66602C7.63277 8.66513 7.31899 8.79579 7.05899 9.05802C6.79899 9.32024 6.66833 9.63402 6.66699 9.99935C6.66566 10.3647 6.79633 10.6787 7.05899 10.9413C7.32166 11.204 7.63544 11.3345 8.00033 11.3327ZM6.00033 5.33268H10.0003V3.99935C10.0003 3.44379 9.80588 2.97157 9.41699 2.58268C9.0281 2.19379 8.55588 1.99935 8.00033 1.99935C7.44477 1.99935 6.97255 2.19379 6.58366 2.58268C6.19477 2.97157 6.00033 3.44379 6.00033 3.99935V5.33268Z" fill="black"/>
</svg>
