<svg width="17" height="16" viewBox="0 0 17 16" fill="none" xmlns="http://www.w3.org/2000/svg">
<path d="M4.39974 14.666C4.03307 14.666 3.7193 14.5356 3.45841 14.2747C3.19752 14.0138 3.06685 13.6998 3.06641 13.3327V6.66602C3.06641 6.29935 3.19707 5.98557 3.45841 5.72468C3.71974 5.46379 4.03352 5.33313 4.39974 5.33268H5.06641V3.99935C5.06641 3.07713 5.39152 2.29113 6.04174 1.64135C6.69196 0.991572 7.47796 0.666461 8.39974 0.666016C9.32152 0.665572 10.1077 0.990683 10.7584 1.64135C11.4091 2.29202 11.734 3.07802 11.7331 3.99935V5.33268H12.3997C12.7664 5.33268 13.0804 5.46335 13.3417 5.72468C13.6031 5.98602 13.7335 6.29979 13.7331 6.66602V13.3327C13.7331 13.6993 13.6026 14.0133 13.3417 14.2747C13.0809 14.536 12.7669 14.6665 12.3997 14.666H4.39974ZM8.39974 11.3327C8.76641 11.3327 9.08041 11.2022 9.34174 10.9413C9.60307 10.6805 9.73352 10.3665 9.73307 9.99935C9.73263 9.63224 9.60218 9.31846 9.34174 9.05802C9.0813 8.79757 8.7673 8.6669 8.39974 8.66602C8.03218 8.66513 7.71841 8.79579 7.45841 9.05802C7.19841 9.32024 7.06774 9.63402 7.06641 9.99935C7.06507 10.3647 7.19574 10.6787 7.45841 10.9413C7.72107 11.204 8.03485 11.3345 8.39974 11.3327ZM6.39974 5.33268H10.3997V3.99935C10.3997 3.44379 10.2053 2.97157 9.81641 2.58268C9.42752 2.19379 8.9553 1.99935 8.39974 1.99935C7.84418 1.99935 7.37196 2.19379 6.98307 2.58268C6.59418 2.97157 6.39974 3.44379 6.39974 3.99935V5.33268Z" fill="black"/>
</svg>
