<svg width="10" height="10" viewBox="0 0 10 10" fill="none" xmlns="http://www.w3.org/2000/svg">
<g clip-path="url(#clip0_6_26910)">
<path fill-rule="evenodd" clip-rule="evenodd" d="M4.84694 0.984773C4.73131 1.02227 4.66465 1.08894 4.63236 1.19779C4.61413 1.25873 4.611 1.4004 4.611 2.13998C4.611 3.11967 4.60996 3.10717 4.70996 3.20717C4.84381 3.3405 5.15631 3.3405 5.29017 3.20717C5.39017 3.10717 5.38913 3.11967 5.38913 2.13998C5.38913 1.19206 5.38756 1.1754 5.31048 1.08373C5.2459 1.00717 5.17663 0.981648 5.0209 0.977481C4.96281 0.974208 4.90455 0.97665 4.84694 0.984773ZM2.26725 2.01394C2.18496 2.05144 2.06361 2.17019 2.02142 2.25456C1.9999 2.29674 1.98816 2.34323 1.98708 2.39057C1.986 2.43791 1.9956 2.48488 2.01517 2.528C2.05371 2.61394 3.26413 3.82852 3.35944 3.87696C3.49434 3.94623 3.63288 3.91238 3.77246 3.77592C3.90996 3.64154 3.94642 3.49571 3.87663 3.35977C3.82819 3.26446 2.61361 2.05404 2.52767 2.0155C2.4866 1.99772 2.44237 1.98842 2.39762 1.98815C2.35287 1.98788 2.30853 1.99665 2.26725 2.01394ZM7.52767 2.02227C7.46361 2.05196 7.35423 2.15456 6.83236 2.678C6.35267 3.15873 6.20631 3.31394 6.18288 3.36498C6.1634 3.4073 6.15336 3.45335 6.15345 3.49993C6.15354 3.54652 6.16376 3.59253 6.1834 3.63477C6.21986 3.7129 6.33965 3.83581 6.42038 3.878C6.50215 3.92071 6.6235 3.92019 6.7084 3.87696C6.79538 3.83217 7.9985 2.62904 8.04329 2.54206C8.06463 2.49728 8.07583 2.44835 8.0761 2.39875C8.07637 2.34915 8.0657 2.3001 8.04486 2.25509C7.98721 2.1587 7.9058 2.07871 7.8084 2.02279C7.76529 1.99951 7.71709 1.98727 7.6681 1.98718C7.61911 1.98709 7.57086 1.99915 7.52767 2.02227ZM1.19746 4.63165C1.04382 4.68008 0.967773 4.80248 0.967773 4.99988C0.968294 5.20144 1.04329 5.32227 1.19694 5.36811C1.2584 5.38634 1.39538 5.38946 2.13965 5.38946C2.91517 5.38946 3.01881 5.38686 3.08236 5.36602C3.12903 5.35069 3.17145 5.3246 3.20619 5.28986C3.24093 5.25512 3.26702 5.2127 3.28236 5.16602C3.32715 5.028 3.30475 4.83217 3.2334 4.73529C3.2048 4.7042 3.17117 4.67814 3.13392 4.65821L3.06256 4.61863L2.15996 4.6155C1.4334 4.61342 1.24538 4.61654 1.19746 4.63165ZM6.95058 4.62436C6.88016 4.64376 6.81651 4.68235 6.76673 4.73581C6.69538 4.83217 6.67298 5.028 6.71777 5.16602C6.74798 5.25977 6.82402 5.33581 6.91777 5.36602C6.98131 5.38686 7.08496 5.38946 7.86048 5.38946C8.60475 5.38946 8.74173 5.38634 8.80319 5.36811C8.95683 5.32227 9.03183 5.20144 9.03236 4.99988C9.03236 4.79936 8.95579 4.67904 8.79694 4.63113C8.74329 4.61498 8.57506 4.61186 7.86256 4.6129C7.38444 4.61394 6.97402 4.61915 6.95058 4.62436ZM3.361 6.18894C3.29694 6.21863 3.18756 6.32123 2.66569 6.84467C2.186 7.3254 2.03965 7.48061 2.01621 7.53165C1.99674 7.57397 1.9867 7.62002 1.98679 7.6666C1.98688 7.71319 1.99709 7.7592 2.01673 7.80144C2.05319 7.87956 2.17298 8.00248 2.25371 8.04467C2.33548 8.08738 2.45684 8.08686 2.54173 8.04363C2.62871 7.99884 3.83184 6.79571 3.87663 6.70873C3.89796 6.66395 3.90916 6.61502 3.90943 6.56542C3.9097 6.51581 3.89903 6.46676 3.87819 6.42175C3.82055 6.32536 3.73913 6.24538 3.64173 6.18946C3.59863 6.16618 3.55042 6.15394 3.50143 6.15385C3.45244 6.15376 3.40419 6.16582 3.361 6.18894ZM6.43392 6.18061C6.35163 6.21811 6.23027 6.33686 6.18809 6.42123C6.16656 6.46341 6.15483 6.5099 6.15375 6.55724C6.15266 6.60458 6.16226 6.65155 6.18184 6.69467C6.22038 6.78061 7.43079 7.99519 7.52611 8.04363C7.661 8.1129 7.79954 8.07904 7.93913 7.94259C8.07663 7.80821 8.11308 7.66238 8.04329 7.52644C7.99486 7.43113 6.78027 6.22071 6.69433 6.18217C6.65327 6.16439 6.60904 6.15508 6.56429 6.15481C6.51954 6.15454 6.47519 6.16332 6.43392 6.18061ZM4.86725 6.70717C4.79689 6.72699 4.7333 6.76572 4.6834 6.81915C4.61152 6.91602 4.611 6.92279 4.611 7.85925C4.611 8.60509 4.61413 8.74206 4.63236 8.80352C4.67819 8.95717 4.79954 9.03217 5.00006 9.03217C5.20059 9.03217 5.32194 8.95717 5.36777 8.80352C5.40006 8.69311 5.39954 7.01863 5.36673 6.92227C5.35664 6.88342 5.33818 6.84725 5.31262 6.8163C5.28707 6.78535 5.25505 6.76037 5.21881 6.74311C5.16152 6.71186 5.12819 6.70404 5.02975 6.7004C4.9755 6.69713 4.92105 6.6994 4.86725 6.70717Z" fill="white"/>
</g>
<defs>
<clipPath id="clip0_6_26910">
<rect width="8.33333" height="8.33333" fill="white" transform="translate(0.833008 0.833496)"/>
</clipPath>
</defs>
</svg>
