<svg width="11" height="10" viewBox="0 0 11 10" fill="none" xmlns="http://www.w3.org/2000/svg">
<g clip-path="url(#clip0_6_15618)">
<path fill-rule="evenodd" clip-rule="evenodd" d="M5.31613 0.181337C5.17738 0.226337 5.09738 0.306337 5.05863 0.436962C5.03676 0.510087 5.03301 0.680087 5.03301 1.56759C5.03301 2.74321 5.03176 2.72821 5.15176 2.84821C5.31238 3.00821 5.68738 3.00821 5.84801 2.84821C5.96801 2.72821 5.96676 2.74321 5.96676 1.56759C5.96676 0.430087 5.96488 0.410087 5.87238 0.300087C5.79488 0.208212 5.71176 0.177587 5.52488 0.172587C5.45518 0.168658 5.38526 0.171589 5.31613 0.181337ZM2.22051 1.41634C2.12176 1.46134 1.97613 1.60384 1.92551 1.70509C1.89968 1.7557 1.8856 1.81149 1.8843 1.86829C1.883 1.9251 1.89452 1.98147 1.91801 2.03321C1.96426 2.13634 3.41676 3.59384 3.53113 3.65196C3.69301 3.73509 3.85926 3.69446 4.02676 3.53071C4.19176 3.36946 4.23551 3.19446 4.15176 3.03134C4.09363 2.91696 2.63613 1.46446 2.53301 1.41821C2.48373 1.39687 2.43065 1.38571 2.37695 1.38539C2.32325 1.38506 2.27004 1.39559 2.22051 1.41634ZM8.53301 1.42634C8.45613 1.46196 8.32488 1.58509 7.69863 2.21321C7.12301 2.79009 6.94738 2.97634 6.91926 3.03759C6.89589 3.08837 6.88384 3.14363 6.88395 3.19953C6.88406 3.25543 6.89632 3.31064 6.91988 3.36134C6.96363 3.45509 7.10738 3.60259 7.20426 3.65321C7.30238 3.70446 7.44801 3.70384 7.54988 3.65196C7.65426 3.59821 9.09801 2.15446 9.15176 2.05009C9.17736 1.99635 9.1908 1.93763 9.19112 1.87811C9.19145 1.81859 9.17865 1.75972 9.15363 1.70571C9.08446 1.59005 8.98676 1.49407 8.86988 1.42696C8.81816 1.39902 8.76031 1.38434 8.70152 1.38423C8.64273 1.38412 8.58484 1.39859 8.53301 1.42634ZM0.936758 4.55759C0.752383 4.61571 0.661133 4.76259 0.661133 4.99946C0.661758 5.24134 0.751758 5.38634 0.936133 5.44134C1.00988 5.46321 1.17426 5.46696 2.06738 5.46696C2.99801 5.46696 3.12238 5.46384 3.19863 5.43884C3.25464 5.42043 3.30554 5.38912 3.34723 5.34744C3.38892 5.30575 3.42023 5.25485 3.43863 5.19884C3.49238 5.03321 3.46551 4.79821 3.37988 4.68196C3.34556 4.64465 3.30521 4.61338 3.26051 4.58946L3.17488 4.54196L2.09176 4.53821C1.21988 4.53571 0.994258 4.53946 0.936758 4.55759ZM7.84051 4.54884C7.75599 4.57212 7.67961 4.61843 7.61988 4.68259C7.53426 4.79821 7.50738 5.03321 7.56113 5.19884C7.59738 5.31134 7.68863 5.40259 7.80113 5.43884C7.87738 5.46384 8.00176 5.46696 8.93238 5.46696C9.82551 5.46696 9.98988 5.46321 10.0636 5.44134C10.248 5.38634 10.338 5.24134 10.3386 4.99946C10.3386 4.75884 10.2468 4.61446 10.0561 4.55696C9.99176 4.53759 9.78988 4.53384 8.93488 4.53509C8.36113 4.53634 7.86863 4.54259 7.84051 4.54884ZM3.53301 6.42634C3.45613 6.46196 3.32488 6.58509 2.69863 7.21321C2.12301 7.79009 1.94738 7.97634 1.91926 8.03759C1.89589 8.08837 1.88384 8.14363 1.88395 8.19953C1.88406 8.25543 1.89632 8.31064 1.91988 8.36134C1.96363 8.45509 2.10738 8.60259 2.20426 8.65321C2.30238 8.70446 2.44801 8.70384 2.54988 8.65196C2.65426 8.59821 4.09801 7.15446 4.15176 7.05009C4.17736 6.99635 4.1908 6.93763 4.19112 6.87811C4.19145 6.81859 4.17865 6.75972 4.15363 6.70571C4.08446 6.59005 3.98676 6.49407 3.86988 6.42696C3.81816 6.39902 3.76031 6.38434 3.70152 6.38423C3.64273 6.38412 3.58484 6.39859 3.53301 6.42634ZM7.22051 6.41634C7.12176 6.46134 6.97613 6.60384 6.92551 6.70509C6.89968 6.7557 6.8856 6.81149 6.8843 6.86829C6.883 6.9251 6.89452 6.98147 6.91801 7.03321C6.96426 7.13634 8.41676 8.59384 8.53113 8.65196C8.69301 8.73509 8.85926 8.69446 9.02676 8.53071C9.19176 8.36946 9.23551 8.19446 9.15176 8.03134C9.09363 7.91696 7.63613 6.46446 7.53301 6.41821C7.48373 6.39687 7.43065 6.38571 7.37695 6.38539C7.32325 6.38506 7.27004 6.39559 7.22051 6.41634ZM5.34051 7.04821C5.25607 7.072 5.17976 7.11848 5.11988 7.18259C5.03363 7.29884 5.03301 7.30696 5.03301 8.43071C5.03301 9.32571 5.03676 9.49009 5.05863 9.56384C5.11363 9.74821 5.25926 9.83821 5.49988 9.83821C5.74051 9.83821 5.88613 9.74821 5.94113 9.56384C5.97988 9.43134 5.97926 7.42196 5.93988 7.30634C5.92778 7.25972 5.90562 7.21631 5.87495 7.17917C5.84429 7.14203 5.80587 7.11205 5.76238 7.09134C5.69363 7.05384 5.65363 7.04446 5.53551 7.04009C5.4704 7.03617 5.40506 7.03889 5.34051 7.04821Z" fill="white"/>
</g>
<defs>
<clipPath id="clip0_6_15618">
<rect width="10" height="10" fill="white" transform="translate(0.5)"/>
</clipPath>
</defs>
</svg>
