<svg width="80" height="80" viewBox="0 0 80 80" fill="none" xmlns="http://www.w3.org/2000/svg">
<g clip-path="url(#clip0_6_27556)">
<path d="M11.716 68.284C15.3883 71.9563 19.6663 74.8406 24.4295 76.8551C29.3626 78.9417 34.6012 79.9991 40 79.9991C45.3988 79.9991 50.6374 78.9408 55.5705 76.8551C60.3337 74.8406 64.6117 71.9563 68.284 68.284C71.9563 64.6117 74.8406 60.3337 76.8551 55.5705C78.9417 50.6374 79.9991 45.3988 79.9991 40C79.9991 35.685 79.315 31.4395 77.9671 27.3807C77.5321 26.0724 76.119 25.3636 74.8107 25.7986C73.5024 26.2335 72.7936 27.6466 73.2286 28.9549C74.4083 32.5048 75.0062 36.2212 75.0062 40C75.0062 49.3502 71.3647 58.1414 64.7535 64.7526C58.1414 71.3647 49.3511 75.0053 40.0009 75.0053C30.6506 75.0053 21.8595 71.3638 15.2483 64.7526C8.6362 58.1405 4.9956 49.3502 4.9956 40C4.9956 30.6498 8.63708 21.8586 15.2483 15.2474C21.8604 8.63532 30.6506 4.99472 40.0009 4.99472C46.119 4.99472 52.1386 6.59535 57.4106 9.62317C58.6063 10.3099 60.1329 9.89787 60.8197 8.70224C61.5064 7.5066 61.0944 5.97993 59.8979 5.29319C53.8695 1.83043 46.9889 0 40 0C34.6012 0 29.3626 1.05828 24.4295 3.14404C19.6663 5.15848 15.3883 8.04279 11.716 11.7151C8.04367 15.3874 5.15936 19.6654 3.14492 24.4286C1.05828 29.3626 0 34.6012 0 40C0 45.3988 1.05828 50.6374 3.14404 55.5705C5.15848 60.3337 8.04279 64.6117 11.7151 68.284H11.716Z" fill="#000222"/>
<path d="M33.4792 45.5026C33.4792 45.5026 28.7292 42.4853 22.9923 37.8534C21.7615 36.8593 19.9513 37.0839 19.0022 38.3482C18.3119 39.2673 18.2556 40.514 18.8578 41.4922C21.7606 46.2096 26.7756 53.6493 30.6539 58.5366C32.4843 60.8433 35.7331 61.0564 37.8682 59.0296C50.1503 47.3726 61.5502 32.6667 75.1996 12.304C75.9911 11.1233 75.5931 9.51738 74.3403 8.84473C73.3832 8.33144 72.2008 8.52337 71.4551 9.31224C56.3125 25.3459 48.5461 32.9661 33.4792 45.5017V45.5026Z" fill="#D30F1A"/>
</g>
<defs>
<clipPath id="clip0_6_27556">
<rect width="80" height="80" fill="white"/>
</clipPath>
</defs>
</svg>
