<svg width="180" height="180" viewBox="0 0 180 180" fill="none" xmlns="http://www.w3.org/2000/svg">
<g clip-path="url(#clip0_6_28697)">
<path d="M26.3609 153.639C34.6236 161.902 44.2492 168.391 54.9663 172.924C66.0658 177.619 77.8526 179.998 90 179.998C102.147 179.998 113.934 177.617 125.034 172.924C135.751 168.391 145.376 161.902 153.639 153.639C161.902 145.376 168.391 135.751 172.924 125.034C177.619 113.934 179.998 102.147 179.998 90C179.998 80.2912 178.459 70.7389 175.426 61.6066C174.447 58.6628 171.268 57.0681 168.324 58.0467C165.38 59.0254 163.786 62.2048 164.764 65.1486C167.419 73.1359 168.764 81.4976 168.764 90C168.764 111.038 160.571 130.818 145.695 145.693C130.818 160.571 111.04 168.762 90.002 168.762C68.9639 168.762 49.1838 160.569 34.3086 145.693C19.4315 130.816 11.2401 111.038 11.2401 90C11.2401 68.962 19.4334 49.1819 34.3086 34.3067C49.1858 19.4295 68.9639 11.2381 90.002 11.2381C103.768 11.2381 117.312 14.8395 129.174 21.6521C131.864 23.1973 135.299 22.2702 136.844 19.58C138.389 16.8899 137.462 13.4548 134.77 11.9097C121.206 4.11846 105.725 0 90 0C77.8526 0 66.0658 2.38114 54.9663 7.07409C44.2492 11.6066 34.6236 18.0963 26.3609 26.359C18.0983 34.6216 11.6086 44.2472 7.07607 54.9643C2.38114 66.0658 0 77.8526 0 90C0 102.147 2.38114 113.934 7.07409 125.034C11.6066 135.751 18.0963 145.376 26.359 153.639H26.3609Z" fill="#000222"/>
<path d="M75.3288 102.381C75.3288 102.381 64.6414 95.5919 51.7334 85.1699C48.9639 82.9334 44.891 83.4386 42.7555 86.2832C41.2025 88.3514 41.0757 91.1565 42.4307 93.3573C48.962 103.971 60.2456 120.711 68.9719 131.707C73.0903 136.897 80.4002 137.377 85.204 132.817C112.839 106.588 138.489 73.5 169.2 27.6838C170.981 25.0273 170.085 21.414 167.266 19.9005C165.113 18.7456 162.452 19.1775 160.775 20.9524C126.704 57.0281 109.229 74.1735 75.3288 102.379V102.381Z" fill="#D30F1A"/>
</g>
<defs>
<clipPath id="clip0_6_28697">
<rect width="180" height="180" fill="white"/>
</clipPath>
</defs>
</svg>
