<svg width="12" height="13" viewBox="0 0 12 13" fill="none" xmlns="http://www.w3.org/2000/svg">
<path d="M6.00056 0.212769C4.37105 0.212769 4.16654 0.219894 3.52654 0.249019C2.88778 0.278269 2.45178 0.379394 2.07027 0.527769C1.67564 0.681019 1.34089 0.886019 1.00739 1.21964C0.673632 1.55314 0.46863 1.88789 0.314878 2.28239C0.166127 2.66402 0.0648756 3.10014 0.0361253 3.73864C0.00750002 4.37864 0 4.58327 0 6.21277C0 7.84227 0.00725019 8.04614 0.0362505 8.68614C0.0656258 9.32489 0.166752 9.76089 0.315003 10.1424C0.46838 10.537 0.673382 10.8718 1.00701 11.2053C1.34039 11.539 1.67514 11.7445 2.06952 11.8978C2.45128 12.0461 2.8874 12.1473 3.52604 12.1765C4.16604 12.2056 4.37042 12.2128 5.99981 12.2128C7.62945 12.2128 7.83333 12.2056 8.47334 12.1765C9.11209 12.1473 9.5486 12.0461 9.93035 11.8978C10.3249 11.7445 10.6591 11.539 10.9925 11.2053C11.3262 10.8718 11.5312 10.537 11.685 10.1425C11.8325 9.76089 11.9337 9.32477 11.9637 8.68627C11.9925 8.04627 12 7.84227 12 6.21277C12 4.58327 11.9925 4.37877 11.9637 3.73877C11.9337 3.10002 11.8325 2.66402 11.685 2.28252C11.5312 1.88789 11.3262 1.55314 10.9925 1.21964C10.6587 0.885894 10.325 0.680894 9.92998 0.527769C9.54747 0.379394 9.11122 0.278269 8.47246 0.249019C7.83246 0.219894 7.6287 0.212769 5.99869 0.212769H6.00056ZM5.46231 1.29402C5.62206 1.29377 5.80031 1.29402 6.00056 1.29402C7.60258 1.29402 7.79246 1.29977 8.42509 1.32852C9.01009 1.35527 9.3276 1.45302 9.5391 1.53514C9.8191 1.64389 10.0187 1.77389 10.2286 1.98389C10.4386 2.19389 10.5686 2.39389 10.6776 2.67389C10.7597 2.88514 10.8576 3.20264 10.8842 3.78764C10.913 4.42014 10.9192 4.61014 10.9192 6.21139C10.9192 7.81264 10.913 8.00264 10.8842 8.63514C10.8575 9.22014 10.7597 9.53764 10.6776 9.74889C10.5689 10.0289 10.4386 10.2283 10.2286 10.4381C10.0186 10.6481 9.81923 10.7781 9.5391 10.8869C9.32785 10.9694 9.01009 11.0669 8.42509 11.0936C7.79258 11.1224 7.60258 11.1286 6.00056 11.1286C4.39842 11.1286 4.20854 11.1224 3.57604 11.0936C2.99103 11.0666 2.67353 10.9689 2.4619 10.8868C2.1819 10.778 1.9819 10.648 1.77189 10.438C1.56189 10.228 1.43189 10.0285 1.32289 9.74839C1.24076 9.53714 1.14289 9.21964 1.11626 8.63464C1.08751 8.00214 1.08176 7.81214 1.08176 6.20989C1.08176 4.60764 1.08751 4.41864 1.11626 3.78614C1.14301 3.20114 1.24076 2.88364 1.32289 2.67214C1.43164 2.39214 1.56189 2.19214 1.77189 1.98214C1.9819 1.77214 2.1819 1.64214 2.4619 1.53314C2.6734 1.45064 2.99103 1.35314 3.57604 1.32627C4.12954 1.30127 4.34405 1.29377 5.46231 1.29252V1.29402ZM9.20335 2.29027C8.80584 2.29027 8.48334 2.61239 8.48334 3.01002C8.48334 3.40752 8.80584 3.73002 9.20335 3.73002C9.60085 3.73002 9.92335 3.40752 9.92335 3.01002C9.92335 2.61252 9.60085 2.29002 9.20335 2.29002V2.29027ZM6.00056 3.13152C4.29892 3.13152 2.91928 4.51114 2.91928 6.21277C2.91928 7.91439 4.29892 9.29339 6.00056 9.29339C7.7022 9.29339 9.08134 7.91439 9.08134 6.21277C9.08134 4.51114 7.7022 3.13152 6.00056 3.13152ZM6.00056 4.21277C7.10507 4.21277 8.00058 5.10814 8.00058 6.21277C8.00058 7.31727 7.10507 8.21277 6.00056 8.21277C4.89593 8.21277 4.00054 7.31727 4.00054 6.21277C4.00054 5.10814 4.89593 4.21277 6.00056 4.21277Z" fill="white"/>
</svg>
