<svg width="20" height="21" viewBox="0 0 20 21" fill="none" xmlns="http://www.w3.org/2000/svg">
<path d="M1.42857 7.64286V19.0714H18.5714V3.35714H15.7143V4.07143C15.7143 4.26087 15.639 4.44255 15.5051 4.5765C15.3711 4.71046 15.1894 4.78571 15 4.78571C14.8106 4.78571 14.6289 4.71046 14.4949 4.5765C14.361 4.44255 14.2857 4.26087 14.2857 4.07143V3.35714H5.71429V4.07143C5.71429 4.26087 5.63903 4.44255 5.50508 4.5765C5.37112 4.71046 5.18944 4.78571 5 4.78571C4.81056 4.78571 4.62888 4.71046 4.49492 4.5765C4.36097 4.44255 4.28571 4.26087 4.28571 4.07143V3.35714H1.42857V6.21429H18.5714V7.64286H1.42857ZM5.71429 1.92857H14.2857V1.21429C14.2857 1.02485 14.361 0.843164 14.4949 0.709209C14.6289 0.575255 14.8106 0.5 15 0.5C15.1894 0.5 15.3711 0.575255 15.5051 0.709209C15.639 0.843164 15.7143 1.02485 15.7143 1.21429V1.92857H19.2857C19.4752 1.92857 19.6568 2.00383 19.7908 2.13778C19.9247 2.27174 20 2.45342 20 2.64286V19.7857C20 19.9752 19.9247 20.1568 19.7908 20.2908C19.6568 20.4247 19.4752 20.5 19.2857 20.5H0.714286C0.524845 20.5 0.343164 20.4247 0.209209 20.2908C0.0752549 20.1568 0 19.9752 0 19.7857V2.64286C0 2.45342 0.0752549 2.27174 0.209209 2.13778C0.343164 2.00383 0.524845 1.92857 0.714286 1.92857H4.28571V1.21429C4.28571 1.02485 4.36097 0.843164 4.49492 0.709209C4.62888 0.575255 4.81056 0.5 5 0.5C5.18944 0.5 5.37112 0.575255 5.50508 0.709209C5.63903 0.843164 5.71429 1.02485 5.71429 1.21429V1.92857ZM5 10.5H6.42857C6.61801 10.5 6.79969 10.5753 6.93365 10.7092C7.0676 10.8432 7.14286 11.0248 7.14286 11.2143C7.14286 11.4037 7.0676 11.5854 6.93365 11.7194C6.79969 11.8533 6.61801 11.9286 6.42857 11.9286H5C4.81056 11.9286 4.62888 11.8533 4.49492 11.7194C4.36097 11.5854 4.28571 11.4037 4.28571 11.2143C4.28571 11.0248 4.36097 10.8432 4.49492 10.7092C4.62888 10.5753 4.81056 10.5 5 10.5ZM5 14.7857H6.42857C6.61801 14.7857 6.79969 14.861 6.93365 14.9949C7.0676 15.1289 7.14286 15.3106 7.14286 15.5C7.14286 15.6894 7.0676 15.8711 6.93365 16.0051C6.79969 16.139 6.61801 16.2143 6.42857 16.2143H5C4.81056 16.2143 4.62888 16.139 4.49492 16.0051C4.36097 15.8711 4.28571 15.6894 4.28571 15.5C4.28571 15.3106 4.36097 15.1289 4.49492 14.9949C4.62888 14.861 4.81056 14.7857 5 14.7857ZM9.28571 10.5H10.7143C10.9037 10.5 11.0854 10.5753 11.2194 10.7092C11.3533 10.8432 11.4286 11.0248 11.4286 11.2143C11.4286 11.4037 11.3533 11.5854 11.2194 11.7194C11.0854 11.8533 10.9037 11.9286 10.7143 11.9286H9.28571C9.09627 11.9286 8.91459 11.8533 8.78064 11.7194C8.64668 11.5854 8.57143 11.4037 8.57143 11.2143C8.57143 11.0248 8.64668 10.8432 8.78064 10.7092C8.91459 10.5753 9.09627 10.5 9.28571 10.5ZM9.28571 14.7857H10.7143C10.9037 14.7857 11.0854 14.861 11.2194 14.9949C11.3533 15.1289 11.4286 15.3106 11.4286 15.5C11.4286 15.6894 11.3533 15.8711 11.2194 16.0051C11.0854 16.139 10.9037 16.2143 10.7143 16.2143H9.28571C9.09627 16.2143 8.91459 16.139 8.78064 16.0051C8.64668 15.8711 8.57143 15.6894 8.57143 15.5C8.57143 15.3106 8.64668 15.1289 8.78064 14.9949C8.91459 14.861 9.09627 14.7857 9.28571 14.7857ZM13.5714 10.5H15C15.1894 10.5 15.3711 10.5753 15.5051 10.7092C15.639 10.8432 15.7143 11.0248 15.7143 11.2143C15.7143 11.4037 15.639 11.5854 15.5051 11.7194C15.3711 11.8533 15.1894 11.9286 15 11.9286H13.5714C13.382 11.9286 13.2003 11.8533 13.0664 11.7194C12.9324 11.5854 12.8571 11.4037 12.8571 11.2143C12.8571 11.0248 12.9324 10.8432 13.0664 10.7092C13.2003 10.5753 13.382 10.5 13.5714 10.5ZM13.5714 14.7857H15C15.1894 14.7857 15.3711 14.861 15.5051 14.9949C15.639 15.1289 15.7143 15.3106 15.7143 15.5C15.7143 15.6894 15.639 15.8711 15.5051 16.0051C15.3711 16.139 15.1894 16.2143 15 16.2143H13.5714C13.382 16.2143 13.2003 16.139 13.0664 16.0051C12.9324 15.8711 12.8571 15.6894 12.8571 15.5C12.8571 15.3106 12.9324 15.1289 13.0664 14.9949C13.2003 14.861 13.382 14.7857 13.5714 14.7857Z" fill="#666666"/>
</svg>
