<svg width="9" height="10" viewBox="0 0 9 10" fill="none" xmlns="http://www.w3.org/2000/svg">
<path d="M4.52059 0.529297C3.30676 0.529297 3.15443 0.534604 2.67769 0.5563C2.20188 0.578088 1.8771 0.653416 1.59292 0.76394C1.29896 0.878095 1.04961 1.0308 0.801181 1.27932C0.552568 1.52774 0.399863 1.77709 0.285333 2.07096C0.174529 2.35523 0.099107 2.6801 0.0776909 3.15571C0.056368 3.63245 0.0507812 3.78487 0.0507812 4.99868C0.0507812 6.2125 0.0561819 6.36436 0.0777842 6.8411C0.0996658 7.3169 0.174994 7.64167 0.285427 7.92585C0.399676 8.21981 0.552382 8.46916 0.800901 8.71759C1.04923 8.9662 1.29859 9.11927 1.59236 9.23343C1.87673 9.34395 2.2016 9.41928 2.67732 9.44107C3.15406 9.46276 3.3063 9.46807 4.52003 9.46807C5.73395 9.46807 5.88581 9.46276 6.36255 9.44107C6.83836 9.41928 7.16351 9.34395 7.44788 9.23343C7.74175 9.11927 7.99073 8.9662 8.23906 8.71759C8.48768 8.46916 8.64038 8.21981 8.75491 7.92595C8.86478 7.64168 8.94021 7.31681 8.96255 6.84119C8.98397 6.36445 8.98956 6.2125 8.98956 4.99868C8.98956 3.78487 8.98397 3.63254 8.96255 3.15581C8.94021 2.68 8.86478 2.35523 8.75491 2.07105C8.64038 1.77709 8.48768 1.52774 8.23906 1.27932C7.99045 1.03071 7.74184 0.878002 7.4476 0.76394C7.16267 0.653416 6.83771 0.578088 6.3619 0.5563C5.88516 0.534604 5.73339 0.529297 4.51919 0.529297H4.52059ZM4.11964 1.33472C4.23864 1.33453 4.37142 1.33472 4.52059 1.33472C5.71393 1.33472 5.85537 1.339 6.32661 1.36042C6.76238 1.38034 6.99889 1.45316 7.15644 1.51433C7.36501 1.59534 7.51371 1.69218 7.67005 1.8486C7.82648 2.00503 7.92332 2.15401 8.00451 2.36258C8.06569 2.51994 8.13859 2.75645 8.15843 3.19221C8.17984 3.66336 8.1845 3.80489 8.1845 4.99766C8.1845 6.19043 8.17984 6.33196 8.15843 6.80311C8.1385 7.23887 8.06569 7.47538 8.00451 7.63274C7.9235 7.84131 7.82648 7.98982 7.67005 8.14616C7.51362 8.30259 7.3651 8.39942 7.15644 8.48043C6.99907 8.54188 6.76238 8.61451 6.32661 8.63444C5.85546 8.65585 5.71393 8.66051 4.52059 8.66051C3.32716 8.66051 3.18572 8.65585 2.71456 8.63444C2.27879 8.61433 2.04229 8.54151 1.88465 8.48034C1.67607 8.39933 1.52709 8.30249 1.37066 8.14606C1.21423 7.98964 1.11739 7.84103 1.0362 7.63236C0.975023 7.475 0.902115 7.2385 0.882282 6.80273C0.860866 6.33159 0.856583 6.19005 0.856583 4.99654C0.856583 3.80303 0.860866 3.66224 0.882282 3.1911C0.902208 2.75533 0.975023 2.51883 1.0362 2.36128C1.11721 2.15271 1.21423 2.00373 1.37066 1.8473C1.52709 1.69087 1.67607 1.59404 1.88465 1.51284C2.04219 1.45139 2.27879 1.37876 2.71456 1.35874C3.12687 1.34012 3.28665 1.33453 4.11964 1.3336V1.33472ZM6.90633 2.07682C6.61023 2.07682 6.37 2.31677 6.37 2.61296C6.37 2.90906 6.61023 3.14929 6.90633 3.14929C7.20243 3.14929 7.44267 2.90906 7.44267 2.61296C7.44267 2.31687 7.20243 2.07664 6.90633 2.07664V2.07682ZM4.52059 2.70347C3.25304 2.70347 2.22535 3.73115 2.22535 4.99868C2.22535 6.26622 3.25304 7.29344 4.52059 7.29344C5.78814 7.29344 6.81546 6.26622 6.81546 4.99868C6.81546 3.73115 5.78814 2.70347 4.52059 2.70347ZM4.52059 3.50889C5.34334 3.50889 6.0104 4.17585 6.0104 4.99868C6.0104 5.82142 5.34334 6.48848 4.52059 6.48848C3.69775 6.48848 3.03078 5.82142 3.03078 4.99868C3.03078 4.17585 3.69775 3.50889 4.52059 3.50889Z" fill="white"/>
</svg>
