<svg width="50" height="50" viewBox="0 0 50 50" fill="none" xmlns="http://www.w3.org/2000/svg">
<path d="M24.6667 0C27.9377 0 31.0747 1.2994 33.3876 3.61235C35.7006 5.9253 37 9.06233 37 12.3333C37 15.6043 35.7006 18.7414 33.3876 21.0543C31.0747 23.3673 27.9377 24.6667 24.6667 24.6667C21.3957 24.6667 18.2586 23.3673 15.9457 21.0543C13.6327 18.7414 12.3333 15.6043 12.3333 12.3333C12.3333 9.06233 13.6327 5.9253 15.9457 3.61235C18.2586 1.2994 21.3957 0 24.6667 0ZM24.6667 30.8333C38.295 30.8333 49.3333 36.3525 49.3333 43.1667V49.3333H0V43.1667C0 36.3525 11.0383 30.8333 24.6667 30.8333Z" fill="white"/>
</svg>
