<svg width="12" height="8" viewBox="0 0 12 8" fill="none" xmlns="http://www.w3.org/2000/svg">
<path d="M0.530412 1.73171L5.84641 6.91371C5.93979 7.00473 6.06502 7.05566 6.19541 7.05566C6.32581 7.05566 6.45104 7.00473 6.54441 6.91371L11.8624 1.73171C11.906 1.68932 11.9406 1.63863 11.9642 1.58264C11.9878 1.52665 12 1.46649 12 1.40571C12 1.34494 11.9878 1.28478 11.9642 1.22879C11.9406 1.1728 11.906 1.12211 11.8624 1.07971C11.7731 0.992484 11.6532 0.943648 11.5284 0.943648C11.4036 0.943648 11.2837 0.992484 11.1944 1.07971L6.19541 5.95271L1.19741 1.07971C1.10816 0.992783 0.9885 0.944136 0.863912 0.944136C0.739324 0.944136 0.619661 0.992783 0.530412 1.07971C0.486869 1.12211 0.45226 1.1728 0.428629 1.22879C0.404997 1.28478 0.392822 1.34494 0.392822 1.40571C0.392822 1.46649 0.404997 1.52665 0.428629 1.58264C0.45226 1.63863 0.486869 1.68932 0.530412 1.73171Z" fill="#666666"/>
</svg>
