<svg width="9" height="10" viewBox="0 0 9 10" fill="none" xmlns="http://www.w3.org/2000/svg">
<path d="M4.52059 0.530273C3.30676 0.530273 3.15443 0.535581 2.67769 0.557276C2.20188 0.579064 1.8771 0.654392 1.59292 0.764916C1.29896 0.879072 1.04961 1.03178 0.801181 1.28029C0.552568 1.52872 0.399863 1.77807 0.285333 2.07193C0.174529 2.3562 0.099107 2.68107 0.0776909 3.15669C0.056368 3.63342 0.0507812 3.78585 0.0507812 4.99966C0.0507812 6.21347 0.0561819 6.36534 0.0777842 6.84207C0.0996658 7.31788 0.174994 7.64265 0.285427 7.92683C0.399676 8.22079 0.552382 8.47014 0.800901 8.71856C1.04923 8.96717 1.29859 9.12025 1.59236 9.23441C1.87673 9.34493 2.2016 9.42026 2.67732 9.44205C3.15406 9.46374 3.3063 9.46905 4.52003 9.46905C5.73395 9.46905 5.88581 9.46374 6.36255 9.44205C6.83836 9.42026 7.16351 9.34493 7.44788 9.23441C7.74175 9.12025 7.99073 8.96717 8.23906 8.71856C8.48768 8.47014 8.64038 8.22079 8.75491 7.92692C8.86478 7.64265 8.94021 7.31778 8.96255 6.84217C8.98397 6.36543 8.98956 6.21347 8.98956 4.99966C8.98956 3.78585 8.98397 3.63352 8.96255 3.15678C8.94021 2.68098 8.86478 2.3562 8.75491 2.07203C8.64038 1.77807 8.48768 1.52872 8.23906 1.28029C7.99045 1.03168 7.74184 0.878979 7.4476 0.764916C7.16267 0.654392 6.83771 0.579064 6.3619 0.557276C5.88516 0.535581 5.73339 0.530273 4.51919 0.530273H4.52059ZM4.11964 1.33569C4.23864 1.33551 4.37142 1.33569 4.52059 1.33569C5.71393 1.33569 5.85537 1.33998 6.32661 1.36139C6.76238 1.38132 6.99889 1.45413 7.15644 1.51531C7.36501 1.59632 7.51371 1.69315 7.67005 1.84958C7.82648 2.00601 7.92332 2.15499 8.00451 2.36356C8.06569 2.52092 8.13859 2.75743 8.15843 3.19319C8.17984 3.66434 8.1845 3.80587 8.1845 4.99864C8.1845 6.1914 8.17984 6.33293 8.15843 6.80408C8.1385 7.23985 8.06569 7.47635 8.00451 7.63371C7.9235 7.84228 7.82648 7.9908 7.67005 8.14713C7.51362 8.30356 7.3651 8.4004 7.15644 8.48141C6.99907 8.54286 6.76238 8.61549 6.32661 8.63541C5.85546 8.65683 5.71393 8.66149 4.52059 8.66149C3.32716 8.66149 3.18572 8.65683 2.71456 8.63541C2.27879 8.6153 2.04229 8.54249 1.88465 8.48131C1.67607 8.40031 1.52709 8.30347 1.37066 8.14704C1.21423 7.99061 1.11739 7.84201 1.0362 7.63334C0.975023 7.47598 0.902115 7.23948 0.882282 6.80371C0.860866 6.33256 0.856583 6.19103 0.856583 4.99752C0.856583 3.80401 0.860866 3.66322 0.882282 3.19207C0.902208 2.75631 0.975023 2.5198 1.0362 2.36226C1.11721 2.15369 1.21423 2.00471 1.37066 1.84828C1.52709 1.69185 1.67607 1.59501 1.88465 1.51382C2.04219 1.45236 2.27879 1.37974 2.71456 1.35972C3.12687 1.34109 3.28665 1.33551 4.11964 1.33458V1.33569ZM6.90633 2.0778C6.61023 2.0778 6.37 2.31775 6.37 2.61394C6.37 2.91004 6.61023 3.15027 6.90633 3.15027C7.20243 3.15027 7.44267 2.91004 7.44267 2.61394C7.44267 2.31784 7.20243 2.07761 6.90633 2.07761V2.0778ZM4.52059 2.70444C3.25304 2.70444 2.22535 3.73212 2.22535 4.99966C2.22535 6.2672 3.25304 7.29441 4.52059 7.29441C5.78814 7.29441 6.81546 6.2672 6.81546 4.99966C6.81546 3.73212 5.78814 2.70444 4.52059 2.70444ZM4.52059 3.50987C5.34334 3.50987 6.0104 4.17683 6.0104 4.99966C6.0104 5.8224 5.34334 6.48946 4.52059 6.48946C3.69775 6.48946 3.03078 5.8224 3.03078 4.99966C3.03078 4.17683 3.69775 3.50987 4.52059 3.50987Z" fill="white"/>
</svg>
