<svg width="9" height="10" viewBox="0 0 9 10" fill="none" xmlns="http://www.w3.org/2000/svg">
<path d="M4.52059 0.530762C3.30676 0.530762 3.15443 0.536069 2.67769 0.557764C2.20188 0.579553 1.8771 0.65488 1.59292 0.765405C1.29896 0.87956 1.04961 1.03226 0.801181 1.28078C0.552568 1.5292 0.399863 1.77856 0.285333 2.07242C0.174529 2.35669 0.099107 2.68156 0.0776909 3.15718C0.056368 3.63391 0.0507812 3.78634 0.0507812 5.00015C0.0507812 6.21396 0.0561819 6.36583 0.0777842 6.84256C0.0996658 7.31836 0.174994 7.64314 0.285427 7.92732C0.399676 8.22127 0.552382 8.47063 0.800901 8.71905C1.04923 8.96766 1.29859 9.12074 1.59236 9.23489C1.87673 9.34542 2.2016 9.42075 2.67732 9.44253C3.15406 9.46423 3.3063 9.46954 4.52003 9.46954C5.73395 9.46954 5.88581 9.46423 6.36255 9.44253C6.83836 9.42075 7.16351 9.34542 7.44788 9.23489C7.74175 9.12074 7.99073 8.96766 8.23906 8.71905C8.48768 8.47063 8.64038 8.22127 8.75491 7.92741C8.86478 7.64314 8.94021 7.31827 8.96255 6.84265C8.98397 6.36592 8.98956 6.21396 8.98956 5.00015C8.98956 3.78634 8.98397 3.63401 8.96255 3.15727C8.94021 2.68147 8.86478 2.35669 8.75491 2.07251C8.64038 1.77856 8.48768 1.5292 8.23906 1.28078C7.99045 1.03217 7.74184 0.879467 7.4476 0.765405C7.16267 0.65488 6.83771 0.579553 6.3619 0.557764C5.88516 0.536069 5.73339 0.530762 4.51919 0.530762H4.52059ZM4.11964 1.33618C4.23864 1.336 4.37142 1.33618 4.52059 1.33618C5.71393 1.33618 5.85537 1.34047 6.32661 1.36188C6.76238 1.38181 6.99889 1.45462 7.15644 1.5158C7.36501 1.5968 7.51371 1.69364 7.67005 1.85007C7.82648 2.0065 7.92332 2.15548 8.00451 2.36405C8.06569 2.52141 8.13859 2.75791 8.15843 3.19368C8.17984 3.66483 8.1845 3.80636 8.1845 4.99912C8.1845 6.19189 8.17984 6.33342 8.15843 6.80457C8.1385 7.24034 8.06569 7.47684 8.00451 7.6342C7.9235 7.84277 7.82648 7.99129 7.67005 8.14762C7.51362 8.30405 7.3651 8.40089 7.15644 8.48189C6.99907 8.54335 6.76238 8.61598 6.32661 8.6359C5.85546 8.65732 5.71393 8.66197 4.52059 8.66197C3.32716 8.66197 3.18572 8.65732 2.71456 8.6359C2.27879 8.61579 2.04229 8.54298 1.88465 8.4818C1.67607 8.40079 1.52709 8.30396 1.37066 8.14753C1.21423 7.9911 1.11739 7.84249 1.0362 7.63383C0.975023 7.47647 0.902115 7.23996 0.882282 6.8042C0.860866 6.33305 0.856583 6.19152 0.856583 4.99801C0.856583 3.80449 0.860866 3.66371 0.882282 3.19256C0.902208 2.7568 0.975023 2.52029 1.0362 2.36274C1.11721 2.15417 1.21423 2.00519 1.37066 1.84877C1.52709 1.69234 1.67607 1.5955 1.88465 1.51431C2.04219 1.45285 2.27879 1.38022 2.71456 1.36021C3.12687 1.34158 3.28665 1.336 4.11964 1.33507V1.33618ZM6.90633 2.07829C6.61023 2.07829 6.37 2.31824 6.37 2.61443C6.37 2.91052 6.61023 3.15075 6.90633 3.15075C7.20243 3.15075 7.44267 2.91052 7.44267 2.61443C7.44267 2.31833 7.20243 2.0781 6.90633 2.0781V2.07829ZM4.52059 2.70493C3.25304 2.70493 2.22535 3.73261 2.22535 5.00015C2.22535 6.26769 3.25304 7.2949 4.52059 7.2949C5.78814 7.2949 6.81546 6.26769 6.81546 5.00015C6.81546 3.73261 5.78814 2.70493 4.52059 2.70493ZM4.52059 3.51035C5.34334 3.51035 6.0104 4.17732 6.0104 5.00015C6.0104 5.82289 5.34334 6.48994 4.52059 6.48994C3.69775 6.48994 3.03078 5.82289 3.03078 5.00015C3.03078 4.17732 3.69775 3.51035 4.52059 3.51035Z" fill="white"/>
</svg>
