<svg width="20" height="20" viewBox="0 0 20 20" fill="none" xmlns="http://www.w3.org/2000/svg">
<path d="M1.42857 7.14286V18.5714H18.5714V2.85714H15.7143V3.57143C15.7143 3.76087 15.639 3.94255 15.5051 4.0765C15.3711 4.21046 15.1894 4.28571 15 4.28571C14.8106 4.28571 14.6289 4.21046 14.4949 4.0765C14.361 3.94255 14.2857 3.76087 14.2857 3.57143V2.85714H5.71429V3.57143C5.71429 3.76087 5.63903 3.94255 5.50508 4.0765C5.37112 4.21046 5.18944 4.28571 5 4.28571C4.81056 4.28571 4.62888 4.21046 4.49492 4.0765C4.36097 3.94255 4.28571 3.76087 4.28571 3.57143V2.85714H1.42857V5.71429H18.5714V7.14286H1.42857ZM5.71429 1.42857H14.2857V0.714286C14.2857 0.524845 14.361 0.343164 14.4949 0.209209C14.6289 0.0752549 14.8106 0 15 0C15.1894 0 15.3711 0.0752549 15.5051 0.209209C15.639 0.343164 15.7143 0.524845 15.7143 0.714286V1.42857H19.2857C19.4752 1.42857 19.6568 1.50383 19.7908 1.63778C19.9247 1.77174 20 1.95342 20 2.14286V19.2857C20 19.4752 19.9247 19.6568 19.7908 19.7908C19.6568 19.9247 19.4752 20 19.2857 20H0.714286C0.524845 20 0.343164 19.9247 0.209209 19.7908C0.0752549 19.6568 0 19.4752 0 19.2857V2.14286C0 1.95342 0.0752549 1.77174 0.209209 1.63778C0.343164 1.50383 0.524845 1.42857 0.714286 1.42857H4.28571V0.714286C4.28571 0.524845 4.36097 0.343164 4.49492 0.209209C4.62888 0.0752549 4.81056 0 5 0C5.18944 0 5.37112 0.0752549 5.50508 0.209209C5.63903 0.343164 5.71429 0.524845 5.71429 0.714286V1.42857ZM5 10H6.42857C6.61801 10 6.79969 10.0753 6.93365 10.2092C7.0676 10.3432 7.14286 10.5248 7.14286 10.7143C7.14286 10.9037 7.0676 11.0854 6.93365 11.2194C6.79969 11.3533 6.61801 11.4286 6.42857 11.4286H5C4.81056 11.4286 4.62888 11.3533 4.49492 11.2194C4.36097 11.0854 4.28571 10.9037 4.28571 10.7143C4.28571 10.5248 4.36097 10.3432 4.49492 10.2092C4.62888 10.0753 4.81056 10 5 10ZM5 14.2857H6.42857C6.61801 14.2857 6.79969 14.361 6.93365 14.4949C7.0676 14.6289 7.14286 14.8106 7.14286 15C7.14286 15.1894 7.0676 15.3711 6.93365 15.5051C6.79969 15.639 6.61801 15.7143 6.42857 15.7143H5C4.81056 15.7143 4.62888 15.639 4.49492 15.5051C4.36097 15.3711 4.28571 15.1894 4.28571 15C4.28571 14.8106 4.36097 14.6289 4.49492 14.4949C4.62888 14.361 4.81056 14.2857 5 14.2857ZM9.28571 10H10.7143C10.9037 10 11.0854 10.0753 11.2194 10.2092C11.3533 10.3432 11.4286 10.5248 11.4286 10.7143C11.4286 10.9037 11.3533 11.0854 11.2194 11.2194C11.0854 11.3533 10.9037 11.4286 10.7143 11.4286H9.28571C9.09627 11.4286 8.91459 11.3533 8.78064 11.2194C8.64668 11.0854 8.57143 10.9037 8.57143 10.7143C8.57143 10.5248 8.64668 10.3432 8.78064 10.2092C8.91459 10.0753 9.09627 10 9.28571 10ZM9.28571 14.2857H10.7143C10.9037 14.2857 11.0854 14.361 11.2194 14.4949C11.3533 14.6289 11.4286 14.8106 11.4286 15C11.4286 15.1894 11.3533 15.3711 11.2194 15.5051C11.0854 15.639 10.9037 15.7143 10.7143 15.7143H9.28571C9.09627 15.7143 8.91459 15.639 8.78064 15.5051C8.64668 15.3711 8.57143 15.1894 8.57143 15C8.57143 14.8106 8.64668 14.6289 8.78064 14.4949C8.91459 14.361 9.09627 14.2857 9.28571 14.2857ZM13.5714 10H15C15.1894 10 15.3711 10.0753 15.5051 10.2092C15.639 10.3432 15.7143 10.5248 15.7143 10.7143C15.7143 10.9037 15.639 11.0854 15.5051 11.2194C15.3711 11.3533 15.1894 11.4286 15 11.4286H13.5714C13.382 11.4286 13.2003 11.3533 13.0664 11.2194C12.9324 11.0854 12.8571 10.9037 12.8571 10.7143C12.8571 10.5248 12.9324 10.3432 13.0664 10.2092C13.2003 10.0753 13.382 10 13.5714 10ZM13.5714 14.2857H15C15.1894 14.2857 15.3711 14.361 15.5051 14.4949C15.639 14.6289 15.7143 14.8106 15.7143 15C15.7143 15.1894 15.639 15.3711 15.5051 15.5051C15.3711 15.639 15.1894 15.7143 15 15.7143H13.5714C13.382 15.7143 13.2003 15.639 13.0664 15.5051C12.9324 15.3711 12.8571 15.1894 12.8571 15C12.8571 14.8106 12.9324 14.6289 13.0664 14.4949C13.2003 14.361 13.382 14.2857 13.5714 14.2857Z" fill="#666666"/>
</svg>
