<svg width="10" height="9" viewBox="0 0 10 9" fill="none" xmlns="http://www.w3.org/2000/svg">
<path d="M1.38401 1.19748H2.76863L3.69171 0.308594H6.46094L7.38401 1.19748H8.76863C9.01344 1.19748 9.24823 1.29113 9.42134 1.45783C9.59445 1.62453 9.69171 1.85062 9.69171 2.08637V7.4197C9.69171 7.65545 9.59445 7.88155 9.42134 8.04824C9.24823 8.21494 9.01344 8.30859 8.76863 8.30859H1.38401C1.1392 8.30859 0.904411 8.21494 0.7313 8.04824C0.55819 7.88155 0.460938 7.65545 0.460938 7.4197V2.08637C0.460937 1.85062 0.55819 1.62453 0.7313 1.45783C0.904411 1.29113 1.1392 1.19748 1.38401 1.19748ZM5.07632 2.53082C4.46428 2.53082 3.87731 2.76494 3.44454 3.18169C3.01176 3.59844 2.76863 4.16367 2.76863 4.75304C2.76863 5.34241 3.01176 5.90764 3.44454 6.32439C3.87731 6.74113 4.46428 6.97526 5.07632 6.97526C5.68836 6.97526 6.27533 6.74113 6.70811 6.32439C7.14088 5.90764 7.38401 5.34241 7.38401 4.75304C7.38401 4.16367 7.14088 3.59844 6.70811 3.18169C6.27533 2.76494 5.68836 2.53082 5.07632 2.53082ZM5.07632 3.4197C5.44355 3.4197 5.79573 3.56018 6.05539 3.81023C6.31506 4.06028 6.46094 4.39942 6.46094 4.75304C6.46094 5.10666 6.31506 5.4458 6.05539 5.69585C5.79573 5.9459 5.44355 6.08637 5.07632 6.08637C4.7091 6.08637 4.35692 5.9459 4.09725 5.69585C3.83759 5.4458 3.69171 5.10666 3.69171 4.75304C3.69171 4.39942 3.83759 4.06028 4.09725 3.81023C4.35692 3.56018 4.7091 3.4197 5.07632 3.4197Z" fill="#999999"/>
</svg>
