<svg width="12" height="8" viewBox="0 0 12 8" fill="none" xmlns="http://www.w3.org/2000/svg">
<path d="M0.530168 1.73171L5.84617 6.91371C5.93954 7.00473 6.06478 7.05566 6.19517 7.05566C6.32556 7.05566 6.45079 7.00473 6.54417 6.91371L11.8622 1.73171C11.9057 1.68932 11.9403 1.63863 11.964 1.58264C11.9876 1.52665 11.9998 1.46649 11.9998 1.40571C11.9998 1.34494 11.9876 1.28478 11.964 1.22879C11.9403 1.1728 11.9057 1.12211 11.8622 1.07971C11.7729 0.992484 11.653 0.943648 11.5282 0.943648C11.4033 0.943648 11.2835 0.992484 11.1942 1.07971L6.19517 5.95271L1.19717 1.07971C1.10792 0.992783 0.988256 0.944136 0.863668 0.944136C0.73908 0.944136 0.619416 0.992783 0.530168 1.07971C0.486625 1.12211 0.452016 1.1728 0.428385 1.22879C0.404753 1.28478 0.392578 1.34494 0.392578 1.40571C0.392578 1.46649 0.404753 1.52665 0.428385 1.58264C0.452016 1.63863 0.486625 1.68932 0.530168 1.73171Z" fill="#666666"/>
</svg>
