<svg width="12" height="8" viewBox="0 0 12 8" fill="none" xmlns="http://www.w3.org/2000/svg">
<path d="M0.530168 1.7322L5.84617 6.9142C5.93954 7.00522 6.06478 7.05615 6.19517 7.05615C6.32556 7.05615 6.45079 7.00522 6.54417 6.9142L11.8622 1.7322C11.9057 1.68981 11.9403 1.63912 11.964 1.58312C11.9876 1.52713 11.9998 1.46698 11.9998 1.4062C11.9998 1.34543 11.9876 1.28527 11.964 1.22928C11.9403 1.17329 11.9057 1.1226 11.8622 1.0802C11.7729 0.992972 11.653 0.944136 11.5282 0.944136C11.4033 0.944136 11.2835 0.992972 11.1942 1.0802L6.19517 5.9532L1.19717 1.0802C1.10792 0.993271 0.988256 0.944624 0.863668 0.944624C0.73908 0.944624 0.619416 0.993271 0.530168 1.0802C0.486625 1.1226 0.452016 1.17329 0.428385 1.22928C0.404753 1.28527 0.392578 1.34543 0.392578 1.4062C0.392578 1.46698 0.404753 1.52713 0.428385 1.58312C0.452016 1.63912 0.486625 1.68981 0.530168 1.7322Z" fill="#666666"/>
</svg>
