<svg width="12" height="8" viewBox="0 0 12 8" fill="none" xmlns="http://www.w3.org/2000/svg">
<path d="M0.530168 1.73269L5.84617 6.91469C5.93954 7.0057 6.06478 7.05664 6.19517 7.05664C6.32556 7.05664 6.45079 7.0057 6.54417 6.91469L11.8622 1.73269C11.9057 1.69029 11.9403 1.6396 11.964 1.58361C11.9876 1.52762 11.9998 1.46746 11.9998 1.40669C11.9998 1.34592 11.9876 1.28576 11.964 1.22977C11.9403 1.17378 11.9057 1.12309 11.8622 1.08069C11.7729 0.99346 11.653 0.944624 11.5282 0.944624C11.4033 0.944624 11.2835 0.99346 11.1942 1.08069L6.19517 5.95369L1.19717 1.08069C1.10792 0.99376 0.988256 0.945113 0.863668 0.945113C0.73908 0.945113 0.619416 0.99376 0.530168 1.08069C0.486625 1.12309 0.452016 1.17378 0.428385 1.22977C0.404753 1.28576 0.392578 1.34592 0.392578 1.40669C0.392578 1.46746 0.404753 1.52762 0.428385 1.58361C0.452016 1.6396 0.486625 1.69029 0.530168 1.73269Z" fill="#666666"/>
</svg>
