<svg width="12" height="8" viewBox="0 0 12 8" fill="none" xmlns="http://www.w3.org/2000/svg">
<path d="M0.530412 1.73269L5.84641 6.91469C5.93979 7.0057 6.06502 7.05664 6.19541 7.05664C6.32581 7.05664 6.45104 7.0057 6.54441 6.91469L11.8624 1.73269C11.906 1.69029 11.9406 1.6396 11.9642 1.58361C11.9878 1.52762 12 1.46746 12 1.40669C12 1.34592 11.9878 1.28576 11.9642 1.22977C11.9406 1.17378 11.906 1.12309 11.8624 1.08069C11.7731 0.99346 11.6532 0.944624 11.5284 0.944624C11.4036 0.944624 11.2837 0.99346 11.1944 1.08069L6.19541 5.95369L1.19741 1.08069C1.10816 0.99376 0.9885 0.945113 0.863912 0.945113C0.739324 0.945113 0.619661 0.99376 0.530412 1.08069C0.486869 1.12309 0.45226 1.17378 0.428629 1.22977C0.404997 1.28576 0.392822 1.34592 0.392822 1.40669C0.392822 1.46746 0.404997 1.52762 0.428629 1.58361C0.45226 1.6396 0.486869 1.69029 0.530412 1.73269Z" fill="#666666"/>
</svg>
