<svg width="31" height="31" viewBox="0 0 31 31" fill="none" xmlns="http://www.w3.org/2000/svg">
<path d="M15.7176 0.615234C17.7305 0.615234 19.661 1.41487 21.0843 2.83822C22.5077 4.26157 23.3073 6.19205 23.3073 8.20498C23.3073 10.2179 22.5077 12.1484 21.0843 13.5717C19.661 14.9951 17.7305 15.7947 15.7176 15.7947C13.7046 15.7947 11.7742 14.9951 10.3508 13.5717C8.92746 12.1484 8.12783 10.2179 8.12783 8.20498C8.12783 6.19205 8.92746 4.26157 10.3508 2.83822C11.7742 1.41487 13.7046 0.615234 15.7176 0.615234ZM15.7176 19.5896C24.1042 19.5896 30.8971 22.986 30.8971 27.1793V30.9742H0.538086V27.1793C0.538086 22.986 7.33091 19.5896 15.7176 19.5896Z" fill="white"/>
</svg>
