<svg width="9" height="10" viewBox="0 0 9 10" fill="none" xmlns="http://www.w3.org/2000/svg">
<path d="M4.52059 0.530518C3.30676 0.530518 3.15443 0.535825 2.67769 0.55752C2.20188 0.579308 1.8771 0.654636 1.59292 0.76516C1.29896 0.879316 1.04961 1.03202 0.801181 1.28054C0.552568 1.52896 0.399863 1.77831 0.285333 2.07218C0.174529 2.35645 0.099107 2.68132 0.0776909 3.15693C0.056368 3.63367 0.0507812 3.78609 0.0507812 4.99991C0.0507812 6.21372 0.0561819 6.36558 0.0777842 6.84232C0.0996658 7.31812 0.174994 7.6429 0.285427 7.92707C0.399676 8.22103 0.552382 8.47038 0.800901 8.71881C1.04923 8.96742 1.29859 9.12049 1.59236 9.23465C1.87673 9.34517 2.2016 9.4205 2.67732 9.44229C3.15406 9.46398 3.3063 9.46929 4.52003 9.46929C5.73395 9.46929 5.88581 9.46398 6.36255 9.44229C6.83836 9.4205 7.16351 9.34517 7.44788 9.23465C7.74175 9.12049 7.99073 8.96742 8.23906 8.71881C8.48768 8.47038 8.64038 8.22103 8.75491 7.92717C8.86478 7.6429 8.94021 7.31803 8.96255 6.84241C8.98397 6.36568 8.98956 6.21372 8.98956 4.99991C8.98956 3.78609 8.98397 3.63376 8.96255 3.15703C8.94021 2.68122 8.86478 2.35645 8.75491 2.07227C8.64038 1.77831 8.48768 1.52896 8.23906 1.28054C7.99045 1.03193 7.74184 0.879223 7.4476 0.76516C7.16267 0.654636 6.83771 0.579308 6.3619 0.55752C5.88516 0.535825 5.73339 0.530518 4.51919 0.530518H4.52059ZM4.11964 1.33594C4.23864 1.33575 4.37142 1.33594 4.52059 1.33594C5.71393 1.33594 5.85537 1.34022 6.32661 1.36164C6.76238 1.38156 6.99889 1.45438 7.15644 1.51555C7.36501 1.59656 7.51371 1.6934 7.67005 1.84982C7.82648 2.00625 7.92332 2.15523 8.00451 2.3638C8.06569 2.52116 8.13859 2.75767 8.15843 3.19343C8.17984 3.66458 8.1845 3.80611 8.1845 4.99888C8.1845 6.19165 8.17984 6.33318 8.15843 6.80433C8.1385 7.24009 8.06569 7.4766 8.00451 7.63396C7.9235 7.84253 7.82648 7.99104 7.67005 8.14738C7.51362 8.30381 7.3651 8.40064 7.15644 8.48165C6.99907 8.54311 6.76238 8.61573 6.32661 8.63566C5.85546 8.65707 5.71393 8.66173 4.52059 8.66173C3.32716 8.66173 3.18572 8.65707 2.71456 8.63566C2.27879 8.61555 2.04229 8.54273 1.88465 8.48156C1.67607 8.40055 1.52709 8.30371 1.37066 8.14728C1.21423 7.99086 1.11739 7.84225 1.0362 7.63358C0.975023 7.47623 0.902115 7.23972 0.882282 6.80395C0.860866 6.33281 0.856583 6.19128 0.856583 4.99776C0.856583 3.80425 0.860866 3.66347 0.882282 3.19232C0.902208 2.75655 0.975023 2.52005 1.0362 2.3625C1.11721 2.15393 1.21423 2.00495 1.37066 1.84852C1.52709 1.69209 1.67607 1.59526 1.88465 1.51406C2.04219 1.45261 2.27879 1.37998 2.71456 1.35996C3.12687 1.34134 3.28665 1.33575 4.11964 1.33482V1.33594ZM6.90633 2.07804C6.61023 2.07804 6.37 2.31799 6.37 2.61418C6.37 2.91028 6.61023 3.15051 6.90633 3.15051C7.20243 3.15051 7.44267 2.91028 7.44267 2.61418C7.44267 2.31809 7.20243 2.07786 6.90633 2.07786V2.07804ZM4.52059 2.70469C3.25304 2.70469 2.22535 3.73237 2.22535 4.99991C2.22535 6.26744 3.25304 7.29466 4.52059 7.29466C5.78814 7.29466 6.81546 6.26744 6.81546 4.99991C6.81546 3.73237 5.78814 2.70469 4.52059 2.70469ZM4.52059 3.51011C5.34334 3.51011 6.0104 4.17707 6.0104 4.99991C6.0104 5.82264 5.34334 6.4897 4.52059 6.4897C3.69775 6.4897 3.03078 5.82264 3.03078 4.99991C3.03078 4.17707 3.69775 3.51011 4.52059 3.51011Z" fill="white"/>
</svg>
