<svg width="12" height="13" viewBox="0 0 12 13" fill="none" xmlns="http://www.w3.org/2000/svg">
<path d="M6.00056 0.212891C4.37105 0.212891 4.16654 0.220016 3.52654 0.249141C2.88778 0.278391 2.45178 0.379516 2.07027 0.527891C1.67564 0.681141 1.34089 0.886141 1.00739 1.21977C0.673632 1.55327 0.46863 1.88802 0.314878 2.28252C0.166127 2.66414 0.0648756 3.10027 0.0361253 3.73877C0.00750002 4.37877 0 4.58339 0 6.21289C0 7.84239 0.00725019 8.04627 0.0362505 8.68627C0.0656258 9.32502 0.166752 9.76101 0.315003 10.1425C0.46838 10.5371 0.673382 10.8719 1.00701 11.2054C1.34039 11.5391 1.67514 11.7446 2.06952 11.8979C2.45128 12.0463 2.8874 12.1474 3.52604 12.1766C4.16604 12.2058 4.37042 12.2129 5.99981 12.2129C7.62945 12.2129 7.83333 12.2058 8.47334 12.1766C9.11209 12.1474 9.5486 12.0463 9.93035 11.8979C10.3249 11.7446 10.6591 11.5391 10.9925 11.2054C11.3262 10.8719 11.5312 10.5371 11.685 10.1426C11.8325 9.76102 11.9337 9.32489 11.9637 8.68639C11.9925 8.04639 12 7.84239 12 6.21289C12 4.58339 11.9925 4.37889 11.9637 3.73889C11.9337 3.10014 11.8325 2.66414 11.685 2.28264C11.5312 1.88802 11.3262 1.55327 10.9925 1.21977C10.6587 0.886016 10.325 0.681016 9.92998 0.527891C9.54747 0.379516 9.11122 0.278391 8.47246 0.249141C7.83246 0.220016 7.6287 0.212891 5.99869 0.212891H6.00056ZM5.46231 1.29414C5.62206 1.29389 5.80031 1.29414 6.00056 1.29414C7.60258 1.29414 7.79246 1.29989 8.42509 1.32864C9.01009 1.35539 9.3276 1.45314 9.5391 1.53527C9.8191 1.64402 10.0187 1.77402 10.2286 1.98402C10.4386 2.19402 10.5686 2.39402 10.6776 2.67402C10.7597 2.88527 10.8576 3.20277 10.8842 3.78777C10.913 4.42027 10.9192 4.61027 10.9192 6.21152C10.9192 7.81277 10.913 8.00277 10.8842 8.63527C10.8575 9.22027 10.7597 9.53777 10.6776 9.74902C10.5689 10.029 10.4386 10.2284 10.2286 10.4383C10.0186 10.6483 9.81923 10.7783 9.5391 10.887C9.32785 10.9695 9.01009 11.067 8.42509 11.0938C7.79258 11.1225 7.60258 11.1288 6.00056 11.1288C4.39842 11.1288 4.20854 11.1225 3.57604 11.0938C2.99103 11.0668 2.67353 10.969 2.4619 10.8869C2.1819 10.7781 1.9819 10.6481 1.77189 10.4381C1.56189 10.2281 1.43189 10.0286 1.32289 9.74852C1.24076 9.53727 1.14289 9.21977 1.11626 8.63477C1.08751 8.00227 1.08176 7.81227 1.08176 6.21002C1.08176 4.60777 1.08751 4.41877 1.11626 3.78627C1.14301 3.20127 1.24076 2.88377 1.32289 2.67227C1.43164 2.39227 1.56189 2.19227 1.77189 1.98227C1.9819 1.77227 2.1819 1.64227 2.4619 1.53327C2.6734 1.45077 2.99103 1.35327 3.57604 1.32639C4.12954 1.30139 4.34405 1.29389 5.46231 1.29264V1.29414ZM9.20335 2.29039C8.80584 2.29039 8.48334 2.61252 8.48334 3.01014C8.48334 3.40764 8.80584 3.73014 9.20335 3.73014C9.60085 3.73014 9.92335 3.40764 9.92335 3.01014C9.92335 2.61264 9.60085 2.29014 9.20335 2.29014V2.29039ZM6.00056 3.13164C4.29892 3.13164 2.91928 4.51127 2.91928 6.21289C2.91928 7.91452 4.29892 9.29352 6.00056 9.29352C7.7022 9.29352 9.08134 7.91452 9.08134 6.21289C9.08134 4.51127 7.7022 3.13164 6.00056 3.13164ZM6.00056 4.21289C7.10507 4.21289 8.00058 5.10827 8.00058 6.21289C8.00058 7.31739 7.10507 8.21289 6.00056 8.21289C4.89593 8.21289 4.00054 7.31739 4.00054 6.21289C4.00054 5.10827 4.89593 4.21289 6.00056 4.21289Z" fill="white"/>
</svg>
