<svg width="12" height="8" viewBox="0 0 12 8" fill="none" xmlns="http://www.w3.org/2000/svg">
<path d="M0.530412 1.7322L5.84641 6.9142C5.93979 7.00522 6.06502 7.05615 6.19541 7.05615C6.32581 7.05615 6.45104 7.00522 6.54441 6.9142L11.8624 1.7322C11.906 1.68981 11.9406 1.63912 11.9642 1.58312C11.9878 1.52713 12 1.46698 12 1.4062C12 1.34543 11.9878 1.28527 11.9642 1.22928C11.9406 1.17329 11.906 1.1226 11.8624 1.0802C11.7731 0.992972 11.6532 0.944136 11.5284 0.944136C11.4036 0.944136 11.2837 0.992972 11.1944 1.0802L6.19541 5.9532L1.19741 1.0802C1.10816 0.993271 0.9885 0.944624 0.863912 0.944624C0.739324 0.944624 0.619661 0.993271 0.530412 1.0802C0.486869 1.1226 0.45226 1.17329 0.428629 1.22928C0.404997 1.28527 0.392822 1.34543 0.392822 1.4062C0.392822 1.46698 0.404997 1.52713 0.428629 1.58312C0.45226 1.63912 0.486869 1.68981 0.530412 1.7322Z" fill="#666666"/>
</svg>
