<svg width="15" height="16" viewBox="0 0 15 16" fill="none" xmlns="http://www.w3.org/2000/svg">
<path d="M2.65314 16C2.19996 16 1.8134 15.8404 1.49347 15.5211C1.17421 15.2019 1.01458 14.8153 1.01458 14.3614V1.79581H0V0.78123H4.05834V0H10.1458V0.78123H14.2042V1.79581H13.1896V14.3614C13.1896 14.8282 13.0334 15.2178 12.7209 15.5302C12.4077 15.8434 12.0178 16 11.551 16H2.65314ZM12.175 1.79581H2.02917V14.3614C2.02917 14.5434 2.08768 14.6929 2.20469 14.8099C2.32171 14.9269 2.47119 14.9854 2.65314 14.9854H11.551C11.7066 14.9854 11.8497 14.9205 11.9802 14.7906C12.1101 14.6601 12.175 14.517 12.175 14.3614V1.79581ZM4.87812 12.9562H5.89271V3.82498H4.87812V12.9562ZM8.31148 12.9562H9.32606V3.82498H8.31148V12.9562Z" fill="white"/>
</svg>
