<svg width="15" height="13" viewBox="0 0 15 13" fill="none" xmlns="http://www.w3.org/2000/svg">
<path d="M1.5 1.44444H3.75L5.25 0H9.75L11.25 1.44444H13.5C13.8978 1.44444 14.2794 1.59663 14.5607 1.86751C14.842 2.1384 15 2.5058 15 2.88889V11.5556C15 11.9386 14.842 12.306 14.5607 12.5769C14.2794 12.8478 13.8978 13 13.5 13H1.5C1.10218 13 0.720644 12.8478 0.43934 12.5769C0.158035 12.306 0 11.9386 0 11.5556V2.88889C0 2.5058 0.158035 2.1384 0.43934 1.86751C0.720644 1.59663 1.10218 1.44444 1.5 1.44444ZM7.5 3.61111C6.50544 3.61111 5.55161 3.99157 4.84835 4.66878C4.14509 5.346 3.75 6.2645 3.75 7.22222C3.75 8.17995 4.14509 9.09845 4.84835 9.77566C5.55161 10.4529 6.50544 10.8333 7.5 10.8333C8.49456 10.8333 9.44839 10.4529 10.1517 9.77566C10.8549 9.09845 11.25 8.17995 11.25 7.22222C11.25 6.2645 10.8549 5.346 10.1517 4.66878C9.44839 3.99157 8.49456 3.61111 7.5 3.61111ZM7.5 5.05556C8.09674 5.05556 8.66903 5.28383 9.09099 5.69016C9.51295 6.09649 9.75 6.64759 9.75 7.22222C9.75 7.79686 9.51295 8.34796 9.09099 8.75429C8.66903 9.16062 8.09674 9.38889 7.5 9.38889C6.90326 9.38889 6.33097 9.16062 5.90901 8.75429C5.48705 8.34796 5.25 7.79686 5.25 7.22222C5.25 6.64759 5.48705 6.09649 5.90901 5.69016C6.33097 5.28383 6.90326 5.05556 7.5 5.05556Z" fill="#999999"/>
</svg>
