<svg width="20" height="20" viewBox="0 0 20 20" fill="none" xmlns="http://www.w3.org/2000/svg">
<path fill-rule="evenodd" clip-rule="evenodd" d="M9.99967 14.8332C13.3613 14.8332 16.4047 12.9582 18.0397 9.99984C16.4047 7.0415 13.3613 5.1665 9.99967 5.1665C6.63801 5.1665 3.59467 7.0415 1.95967 9.99984C3.59467 12.9582 6.63801 14.8332 9.99967 14.8332ZM9.99967 4.1665C14.0063 4.1665 17.4763 6.53984 19.1663 9.99984C17.4763 13.4598 14.0063 15.8332 9.99967 15.8332C5.99301 15.8332 2.52301 13.4598 0.833008 9.99984C2.52301 6.53984 5.99301 4.1665 9.99967 4.1665ZM9.99967 12.3332C10.6185 12.3332 11.212 12.0873 11.6496 11.6498C12.0872 11.2122 12.333 10.6187 12.333 9.99984C12.333 9.381 12.0872 8.78751 11.6496 8.34992C11.212 7.91234 10.6185 7.6665 9.99967 7.6665C9.38084 7.6665 8.78734 7.91234 8.34976 8.34992C7.91217 8.78751 7.66634 9.381 7.66634 9.99984C7.66634 10.6187 7.91217 11.2122 8.34976 11.6498C8.78734 12.0873 9.38084 12.3332 9.99967 12.3332ZM9.99967 13.3332C9.11562 13.3332 8.26777 12.982 7.64265 12.3569C7.01753 11.7317 6.66634 10.8839 6.66634 9.99984C6.66634 9.11578 7.01753 8.26794 7.64265 7.64281C8.26777 7.01769 9.11562 6.6665 9.99967 6.6665C10.8837 6.6665 11.7316 7.01769 12.3567 7.64281C12.9818 8.26794 13.333 9.11578 13.333 9.99984C13.333 10.8839 12.9818 11.7317 12.3567 12.3569C11.7316 12.982 10.8837 13.3332 9.99967 13.3332Z" fill="#666666"/>
</svg>
